<?xml version="1.0" standalone="no"?>
<!DOCTYPE svg PUBLIC "-//W3C//DTD SVG 1.1//EN" "http://www.w3.org/Graphics/SVG/1.1/DTD/svg11.dtd" >
<svg xmlns="http://www.w3.org/2000/svg" xmlns:xlink="http://www.w3.org/1999/xlink" version="1.1">
<metadata></metadata>
<defs>
<font id="eyinterstateregular" horiz-adv-x="1270" >
<font-face units-per-em="2048" ascent="1638" descent="-410" />
<missing-glyph horiz-adv-x="553" />
<glyph unicode="&#xfb01;" d="M88 879v196h139v142q0 73 21.5 124.5t58 84t86.5 47t107 14.5q42 0 83.5 -5.5t75.5 -15.5v-184q-37 11 -66 16t-56 5q-53 0 -76 -23t-23 -82v-123h199v-196h-199v-879h-211v879h-139zM862 1350q0 28 11 53t29.5 43.5t43.5 29.5t53 11t52.5 -11t43 -29.5t29.5 -43.5 t11 -53t-11 -52.5t-29.5 -43t-43 -29.5t-52.5 -11t-53 11t-43.5 29.5t-29.5 43t-11 52.5zM893 0v1075h211v-1075h-211z" />
<glyph unicode="&#xfb02;" d="M88 879v196h139v142q0 73 21.5 124.5t58 84t86.5 47t107 14.5q42 0 83.5 -5.5t75.5 -15.5v-184q-37 11 -66 16t-56 5q-53 0 -76 -23t-23 -82v-123h199v-196h-199v-879h-211v879h-139zM893 0v1382l211 111v-1493h-211z" />
<glyph horiz-adv-x="0" />
<glyph unicode="&#xd;" horiz-adv-x="553" />
<glyph unicode=" "  horiz-adv-x="553" />
<glyph unicode="&#x09;" horiz-adv-x="553" />
<glyph unicode="&#xa0;" horiz-adv-x="553" />
<glyph unicode="!" horiz-adv-x="610" d="M152 131q0 31 12 59.5t33 50t48.5 34t59.5 12.5q31 0 59 -12.5t49 -34t33.5 -50t12.5 -59.5q0 -32 -12.5 -60t-33.5 -49t-49 -33t-59 -12q-32 0 -59.5 12t-48.5 33t-33 49t-12 60zM197 797v637h217v-637l-41 -383h-135z" />
<glyph unicode="&#x22;" horiz-adv-x="1004" d="M147 1434h256l-51 -670h-153zM600 1434h256l-51 -670h-154z" />
<glyph unicode="#" d="M94 340v168h205v418h-205v168h205v340h188v-340h295v340h189v-340h205v-168h-205v-418h205v-168h-205v-340h-189v340h-295v-340h-188v340h-205zM483 506h303v422h-303v-422z" />
<glyph unicode="$" d="M104 182l125 166q44 -35 92 -64t99 -50.5t104 -33.5t107 -12q137 0 213 52.5t76 152.5q0 42 -15.5 75t-53 61t-101 53.5t-158.5 54.5q-123 38 -208.5 76.5t-139 86t-77.5 109t-24 146.5q0 79 27 143t76.5 111.5t119.5 77t156 40.5v209h213v-206q57 -5 107 -17t95 -30.5 t87 -43t84 -53.5l-123 -170q-45 31 -87.5 55.5t-86.5 40.5t-91.5 24.5t-101.5 8.5q-69 0 -117 -13.5t-78.5 -37.5t-44 -56t-13.5 -69q0 -38 12 -68t47.5 -56.5t98.5 -53t165 -57.5q127 -39 213 -79t139 -89t76 -112t23 -148q0 -83 -28 -151t-80.5 -119.5t-128 -84.5 t-169.5 -45v-209h-211v209q-62 7 -120 23.5t-111 39.5t-100.5 52t-86.5 61z" />
<glyph unicode="%" d="M74 1059q0 197 63.5 297t159.5 100q112 0 169.5 -105t57.5 -292q0 -182 -61 -287.5t-166 -105.5q-103 0 -163 99t-60 294zM215 1063q0 -130 21.5 -197t64.5 -67q41 0 60.5 66.5t19.5 193.5q0 130 -21 197t-63 67q-43 0 -62.5 -65t-19.5 -195zM219 0l690 1434h142 l-691 -1434h-141zM745 371q0 192 63.5 294.5t162.5 102.5q107 0 166 -100.5t59 -292.5q0 -189 -61 -293t-164 -105q-108 1 -167 105t-59 289zM889 375q0 -130 21 -197t64 -67t62 66.5t19 193.5q0 135 -22 199.5t-63 64.5q-43 0 -62 -65t-19 -195z" />
<glyph unicode="&#x26;" horiz-adv-x="1393" d="M119 367q0 66 15.5 122.5t50.5 107.5t93 98.5t142 95.5l-29 34q-36 42 -61 79t-41 73t-23.5 72t-7.5 77q0 77 28 138t79.5 103t124.5 64.5t163 22.5q69 0 133 -21.5t113.5 -63t79 -101.5t29.5 -138q0 -224 -281 -393l240 -293q31 57 56 117.5t42 120.5l195 -55 q-23 -88 -61 -177t-95 -169l225 -281h-246l-110 133q-81 -71 -181.5 -113.5t-224.5 -42.5q-114 0 -198 28t-139.5 79t-83 123t-27.5 160zM334 377q0 -43 14.5 -80t44.5 -64.5t75.5 -43t106.5 -15.5q82 0 150 30t121 81l-303 360q-105 -57 -157 -122t-52 -146zM473 1130 q0 -55 19.5 -92.5t54.5 -79.5l57 -71q55 32 92 62.5t59 60t31 59.5t9 61q0 74 -44.5 110t-113.5 36q-42 0 -72.5 -12t-51 -32t-30.5 -46.5t-10 -55.5z" />
<glyph unicode="'" horiz-adv-x="551" d="M141 1434h269l-52 -670h-165z" />
<glyph unicode="(" horiz-adv-x="723" d="M35 612q0 107 23 201t63 176t94 152t117 129.5t132 108.5t138 89l86 -96q-95 -74 -171.5 -151.5t-130.5 -166.5t-83 -194.5t-29 -234.5q0 -134 29 -241t83 -196t130.5 -166t171.5 -151l-86 -96q-69 40 -138 89t-132 108.5t-117 129t-94 149t-63 170t-23 191.5z" />
<glyph unicode=")" horiz-adv-x="723" d="M35 -129q95 74 171.5 151.5t130 167t82.5 194.5t29 234q0 134 -29 241t-82.5 196.5t-130 166t-171.5 150.5l86 96q69 -40 138 -89t132 -108.5t117 -129t94 -149t63 -170t23 -191.5q0 -107 -23 -201t-63 -176t-94 -152t-117 -129.5t-132 -108.5t-138 -89z" />
<glyph unicode="*" horiz-adv-x="1024" d="M152 952l256 115l-254 115l82 139l225 -166l-27 279h160l-31 -277l225 164l82 -139l-258 -115l260 -115l-81 -139l-228 162l31 -279h-160l27 281l-228 -164z" />
<glyph unicode="+" d="M133 606v197h397v416h209v-416h398v-197h-398v-416h-209v416h-397z" />
<glyph unicode="," horiz-adv-x="635" d="M155 -258l30 543h269l-154 -543h-145z" />
<glyph unicode="-" horiz-adv-x="737" d="M113 645v209h512v-209h-512z" />
<glyph unicode="." horiz-adv-x="635" d="M156 139q0 34 12.5 63.5t34 52t51 35.5t63.5 13t63.5 -13t51.5 -35.5t34.5 -52t12.5 -63.5t-12.5 -63.5t-34.5 -51.5t-51.5 -34.5t-63.5 -12.5t-63.5 12.5t-51 34.5t-34 51.5t-12.5 63.5z" />
<glyph unicode="/" horiz-adv-x="913" d="M33 -184l637 1802h211l-637 -1802h-211z" />
<glyph unicode="0" d="M100 717q0 179 40 317t111 231.5t169 142t215 48.5t215 -48t168.5 -142t109.5 -231.5t39 -317.5q0 -179 -39.5 -317t-110 -232t-168 -142.5t-214.5 -48.5t-215.5 48.5t-169.5 142t-110.5 231.5t-39.5 318zM317 717q0 -133 22.5 -235.5t63.5 -172t100 -105.5t132 -36 t132 35.5t100 105t63 172t22 236.5q0 133 -22.5 235t-63.5 172t-99.5 106t-131.5 36q-74 0 -133 -35.5t-100 -105.5t-63 -172.5t-22 -235.5z" />
<glyph unicode="1" d="M240 0v182h321v920h-289v143q73 4 129.5 15t97.5 33t66.5 56.5t36.5 84.5h176v-1252h293v-182h-831z" />
<glyph unicode="2" d="M106 0q8 145 45 252.5t101 192t152 153t198 135.5q89 57 145 99t87.5 78t43 71.5t11.5 79.5q0 96 -68 150.5t-198 54.5q-60 0 -110 -10.5t-93.5 -29.5t-82.5 -45.5t-77 -58.5l-123 150q48 39 100.5 72.5t112.5 58.5t129 39t150 14q103 0 190 -23.5t149 -71t97 -119 t35 -167.5q0 -79 -18.5 -138.5t-60.5 -111.5t-110.5 -103t-169.5 -114q-109 -69 -179.5 -123.5t-114 -102.5t-65.5 -93t-34 -94h766v-195h-1008z" />
<glyph unicode="3" d="M86 176l135 143q72 -68 163 -110.5t204 -42.5q164 0 240.5 66.5t76.5 183.5q0 60 -22 104.5t-62.5 74.5t-98.5 45t-130 15h-121v181h119q132 0 194 58.5t62 158.5q0 47 -15 86.5t-48 68t-86 44.5t-130 16q-93 0 -168 -33.5t-135 -87.5l-125 141q35 31 81 61.5t101 54 t118 38t134 14.5q104 0 193 -22.5t154 -68.5t102 -117.5t37 -168.5q0 -63 -14.5 -112.5t-41 -88.5t-63.5 -68.5t-82 -51.5q51 -13 98 -39.5t83 -67.5t57.5 -98.5t21.5 -132.5q0 -107 -37 -189.5t-106 -139t-168.5 -85.5t-224.5 -29q-80 0 -151 15t-133 42t-115 63.5 t-97 78.5z" />
<glyph unicode="4" d="M84 324v165l700 945h220v-932h178v-180h-178v-322h-195v324h-725zM319 502h490v662z" />
<glyph unicode="5" d="M123 131l110 160q81 -57 177.5 -91t199.5 -34q82 0 143 22t101 62t60 96.5t20 126.5q0 130 -73.5 201t-219.5 71q-47 0 -85.5 -6t-72 -18t-62.5 -28.5t-56 -37.5l-199 68l47 711h850v-193h-668l-28 -393q52 34 125.5 58t175.5 24q117 0 206.5 -31t149.5 -89.5 t90.5 -141.5t30.5 -187q0 -128 -39 -222.5t-110.5 -157t-172.5 -93.5t-225 -31q-142 0 -259 41.5t-216 112.5z" />
<glyph unicode="6" d="M115 545q0 96 18.5 198t60 200t107.5 187t161 158.5t220.5 114t286.5 53.5l10 -182q-272 -25 -432.5 -158.5t-220.5 -365.5q34 32 72.5 59t85 46t103 29.5t126.5 10.5q98 0 183.5 -26.5t148.5 -81t99 -137.5t36 -195q0 -117 -40.5 -206.5t-112.5 -149.5t-171.5 -91 t-218.5 -31q-111 0 -206 32t-165.5 101t-110.5 176.5t-40 258.5zM328 440q0 -60 22.5 -111t63.5 -88t100 -58t133 -21q78 0 138 20t101 56t62 87.5t21 114.5t-20 113.5t-60 86t-99.5 54.5t-136.5 19t-137 -19t-102 -54.5t-64 -86t-22 -113.5z" />
<glyph unicode="7" d="M109 1239v195h1046v-185q-115 -124 -207.5 -259t-157.5 -287.5t-101 -326.5t-38 -376h-217q4 189 38 359t94 324t145 292.5t192 263.5h-794z" />
<glyph unicode="8" d="M106 412q0 70 18.5 126.5t52 101t80 77t103.5 53.5q-43 19 -79 46t-62.5 63.5t-41.5 82.5t-15 103q0 86 32 158t93 123.5t149 80.5t199 29q113 0 200.5 -28.5t147.5 -80t91.5 -123t31.5 -157.5q0 -55 -14.5 -99.5t-40.5 -80.5t-62.5 -64t-81.5 -49q57 -21 104 -54 t81 -77.5t52.5 -101.5t18.5 -127q0 -106 -37.5 -187.5t-107 -137t-168 -84t-219.5 -28.5t-218 28t-165.5 83t-105 136.5t-36.5 187.5zM315 416q0 -59 20.5 -106.5t61 -81t100.5 -52t140 -18.5t140 17.5t99.5 53.5t57.5 81.5t18 101.5q0 57 -21 105.5t-61.5 83t-100 54 t-136.5 19.5q-78 0 -137 -19t-99.5 -53.5t-61 -81.5t-20.5 -104zM371 1065q0 -46 17.5 -85.5t51 -68t82.5 -45t113 -16.5q62 0 111 16.5t83 45t52 67t18 82.5q0 42 -15 81.5t-47 70t-82.5 49t-121.5 18.5q-72 0 -122 -17.5t-81 -47.5t-45 -69t-14 -81z" />
<glyph unicode="9" d="M88 979q0 117 40.5 206t113 149t172.5 91t219 31q111 0 206 -32t164.5 -101t109.5 -176.5t40 -257.5q0 -96 -18.5 -198t-59.5 -200.5t-107 -187.5t-160.5 -158.5t-220 -114t-286.5 -53.5l-10 183q271 25 432 158.5t221 365.5q-34 -32 -72.5 -59t-85 -46t-103 -29.5 t-126.5 -10.5q-99 0 -184.5 26.5t-149 81t-99.5 137.5t-36 195zM301 993q0 -131 83 -201.5t232 -70.5q77 0 137.5 19t102.5 54t64 85.5t22 113.5q0 61 -22.5 112t-63.5 88t-100.5 58t-132.5 21q-78 0 -138 -20t-101 -56.5t-62 -88t-21 -114.5z" />
<glyph unicode=":" horiz-adv-x="635" d="M156 139q0 33 13 62.5t35 52t51.5 36t62.5 13.5t62.5 -13.5t51.5 -36t35 -52t13 -62.5t-13 -62.5t-35 -51.5t-51.5 -35t-62.5 -13t-62.5 13t-51.5 35t-35 51.5t-13 62.5zM156 934q0 33 13 62.5t35 52t51.5 36t62.5 13.5t62.5 -13.5t51.5 -36t35 -52t13 -62.5t-13 -62.5 t-35 -51.5t-51.5 -35t-62.5 -13t-62.5 13t-51.5 35t-35 51.5t-13 62.5z" />
<glyph unicode=";" horiz-adv-x="635" d="M155 -258l31 543h268l-153 -543h-146zM155 934q0 33 13 62.5t35 52t51.5 36t62.5 13.5t62.5 -13.5t51.5 -36t35 -52t13 -62.5t-13 -62.5t-35 -51.5t-51.5 -35t-62.5 -13t-62.5 13t-51.5 35t-35 51.5t-13 62.5z" />
<glyph unicode="&#x3c;" d="M166 610v197l942 573v-231l-735 -438l735 -439v-237z" />
<glyph unicode="=" d="M164 369v200h942v-200h-942zM164 840v200h942v-200h-942z" />
<glyph unicode="&#x3e;" d="M162 35v233l735 437l-735 438v237l942 -573v-197z" />
<glyph unicode="?" horiz-adv-x="1169" d="M70 1245q43 44 96.5 82.5t116.5 67t134.5 45t151.5 16.5q109 0 199.5 -24.5t155 -72.5t100 -119t35.5 -165q0 -74 -17 -130t-50.5 -100t-83 -80.5t-113.5 -72.5q-50 -28 -80 -53t-46.5 -55.5t-22 -71t-5.5 -98.5h-223q0 90 10.5 153t39.5 112.5t82 91.5t138 89 q39 22 68 42.5t47.5 44t27.5 51.5t9 65q0 87 -72 133.5t-205 46.5q-103 0 -187.5 -39t-168.5 -121zM375 131q0 31 12 59.5t33 50t48.5 34t59.5 12.5q31 0 59 -12.5t49 -34t33.5 -50t12.5 -59.5q0 -32 -12.5 -60t-33.5 -49t-49 -33t-59 -12q-32 0 -59.5 12t-48.5 33t-33 49 t-12 60z" />
<glyph unicode="@" horiz-adv-x="1712" d="M117 717q0 107 25 203.5t71.5 178.5t112.5 148t148 112.5t178.5 71.5t203.5 25q109 0 206 -26t179 -73.5t148 -114t111.5 -146.5t70 -171t24.5 -188q0 -116 -23.5 -196.5t-64.5 -130.5t-98.5 -72.5t-124.5 -22.5q-39 0 -73 9t-61 26t-48 39.5t-37 52.5 q-36 -48 -111.5 -87.5t-150.5 -39.5q-59 0 -115 17t-99.5 52t-70 88t-26.5 124q0 66 26.5 115t72 81t105 48t125.5 16q62 0 115.5 -16.5t87.5 -36.5v104q0 65 -49 93t-141 28q-57 0 -105.5 -10.5t-93.5 -38.5l-57 100q57 34 125 52t139 18q72 0 131 -15t100.5 -45.5 t64.5 -77t23 -108.5v-344q0 -56 31.5 -89.5t103.5 -33.5q54 0 89 23t54 63.5t28.5 90t9.5 126.5q0 122 -47 231t-130 191t-197 130t-247 48q-134 0 -248 -47t-196.5 -129.5t-129 -196.5t-46.5 -247q0 -135 46.5 -249t129 -197t196.5 -130t248 -47q69 0 133 13t133 47 l49 -109q-44 -20 -82 -33.5t-75 -21.5t-75.5 -11.5t-82.5 -3.5q-107 0 -203.5 25t-178.5 71.5t-148 113t-112.5 148.5t-71.5 178.5t-25 203.5zM625 600q0 -74 50.5 -118t147.5 -44q28 0 58 8.5t57 23.5t49.5 36t36.5 47v125q-31 23 -86.5 42t-124.5 19q-41 0 -76 -8 t-61.5 -27t-38.5 -45.5t-12 -58.5z" />
<glyph unicode="A" horiz-adv-x="1458" d="M96 0l516 1434h228l522 -1434h-229l-121 340h-574l-119 -340h-223zM504 532h442l-223 639z" />
<glyph unicode="B" horiz-adv-x="1382" d="M186 0v1434h590q94 0 170 -24.5t130 -71.5t83 -116.5t29 -160.5q0 -55 -14 -99.5t-38 -79.5t-57.5 -62t-72.5 -46q42 -12 85 -37.5t77.5 -66.5t56.5 -98t22 -132q0 -218 -128 -329t-363 -111h-570zM389 197h383q72 0 121.5 17t80 48.5t44.5 75t14 96.5t-14 93.5t-44.5 74 t-77.5 51.5t-118 19h-389v-475zM389 866h385q53 0 90.5 15t61.5 40.5t35.5 58.5t11.5 69q0 40 -11 74t-34.5 59.5t-61.5 40t-92 14.5h-385v-371z" />
<glyph unicode="C" horiz-adv-x="1341" d="M119 717q0 163 42.5 298.5t121.5 233.5t191 152.5t251 54.5q175 0 294 -69t193 -199l-190 -119q-28 44 -57 76.5t-64 53.5t-78 31.5t-98 10.5q-94 0 -166 -36.5t-120.5 -105t-73.5 -165.5t-25 -217q0 -121 25 -218t73.5 -165t120.5 -104.5t166 -36.5q112 0 186 45 t129 133l179 -119q-50 -80 -94.5 -122.5t-100 -76t-130 -55t-169.5 -21.5q-102 0 -183.5 27t-147.5 74t-119.5 117.5t-85.5 146.5t-51 170t-19 205z" />
<glyph unicode="D" horiz-adv-x="1391" d="M186 0v1434h392q144 0 271.5 -41t222 -128t149.5 -222.5t55 -325.5q0 -127 -25.5 -229t-72 -181.5t-111 -137.5t-142 -95.5t-166 -55.5t-181.5 -18h-392zM401 209h177q127 0 218 37t149 104t85 160.5t27 206.5t-27 206.5t-85 160.5t-149 104t-218 37h-177v-1016z" />
<glyph unicode="E" horiz-adv-x="1260" d="M186 0v1434h924v-209h-709v-355h576v-208h-576v-453h740v-209h-955z" />
<glyph unicode="F" horiz-adv-x="1192" d="M186 0v1434h924v-211h-709v-375h412v-211h-412v-637h-215z" />
<glyph unicode="G" horiz-adv-x="1389" d="M119 717q0 163 42.5 298.5t121.5 233.5t191 152.5t251 54.5q175 0 294 -69t193 -199l-188 -117q-28 44 -57.5 76t-64.5 53t-78.5 31t-98.5 10q-94 0 -166 -36.5t-121 -105t-74.5 -165.5t-25.5 -217q0 -121 25.5 -218t74.5 -165t121 -104.5t166 -36.5q154 0 240 86.5 t86 234.5v6h-234v207h453v-166q0 -138 -40.5 -246.5t-112.5 -183.5t-172 -114.5t-220 -39.5q-139 0 -251 54.5t-191 152.5t-121.5 234t-42.5 299z" />
<glyph unicode="H" horiz-adv-x="1462" d="M186 0v1434h215v-580h660v580h215v-1434h-215v639h-660v-639h-215z" />
<glyph unicode="I" horiz-adv-x="608" d="M197 0v1434h215v-1434h-215z" />
<glyph unicode="J" horiz-adv-x="1235" d="M49 358l209 62q20 -53 45 -93t58.5 -70t81.5 -47t112 -17q78 0 132.5 22.5t89.5 69.5t51 121t16 176v852h215v-869q0 -289 -125.5 -438.5t-384.5 -149.5q-101 0 -181.5 26t-142 75t-105.5 119.5t-71 160.5z" />
<glyph unicode="K" horiz-adv-x="1403" d="M186 0v1434h209v-732l586 732h244l-420 -521l512 -913h-244l-411 735l-267 -321v-414h-209z" />
<glyph unicode="L" horiz-adv-x="1219" d="M186 0v1434h215v-1223h715v-211h-930z" />
<glyph unicode="M" horiz-adv-x="1655" d="M186 0v1434h222l420 -998l411 998h229v-1434h-211v990l-436 -1013l-432 1013v-990h-203z" />
<glyph unicode="N" horiz-adv-x="1462" d="M186 0v1434h220l661 -1062v1062h209v-1434h-205l-676 1062v-1062h-209z" />
<glyph unicode="O" horiz-adv-x="1456" d="M117 715q0 167 44.5 304t125.5 234t193.5 150t248.5 53q137 0 249.5 -52.5t192.5 -149t124 -232.5t44 -303q0 -168 -44.5 -304.5t-125.5 -234t-194 -150.5t-250 -53q-136 0 -248 52.5t-192 149t-124 232.5t-44 304zM336 719q0 -122 29.5 -220t82 -166.5t125 -105.5 t158.5 -37q85 0 156.5 36t123 104t80.5 165.5t29 219.5t-30 219.5t-83 166t-125.5 105.5t-158.5 37q-85 0 -156 -36t-122.5 -104t-80 -165t-28.5 -219z" />
<glyph unicode="P" horiz-adv-x="1337" d="M186 0v1434h600q99 0 183.5 -28.5t146 -84.5t96.5 -140.5t35 -195.5t-35 -195t-98 -140.5t-150 -85.5t-192 -29h-375v-535h-211zM397 737h385q124 0 185 66t61 182q0 59 -17.5 105t-49.5 77.5t-77.5 47.5t-101.5 16h-385v-494z" />
<glyph unicode="Q" horiz-adv-x="1452" d="M119 717q0 163 42.5 298.5t121.5 233.5t191 152.5t251 54.5q140 0 252.5 -54.5t191.5 -152.5t121.5 -233.5t42.5 -298.5q0 -104 -18 -199t-57.5 -179.5t-73.5 -128.5t-72 -81l96 -149l-176 -111l-96 147q-48 -18 -101 -28.5t-110 -10.5q-139 0 -251 54.5t-191 152.5 t-121.5 234t-42.5 299zM338 717q0 -121 25.5 -218.5t74.5 -166.5t121 -106.5t166 -37.5q53 0 96 11l-104 161l176 111l104 -164q62 68 89.5 172t27.5 238q0 120 -25.5 217t-74.5 165.5t-122 105t-167 36.5t-166 -36.5t-121 -105t-74.5 -165.5t-25.5 -217z" />
<glyph unicode="R" horiz-adv-x="1421" d="M186 0v1434h629q94 0 177.5 -25.5t146.5 -78t100 -133.5t37 -191q0 -86 -22 -155.5t-63 -122t-99 -88.5t-131 -54l292 -586h-247l-285 567h-324v-567h-211zM397 770h418q54 0 98.5 14t77 42.5t50.5 71.5t18 101q0 56 -17.5 99.5t-49.5 73t-77 44.5t-100 15h-418v-461z " />
<glyph unicode="S" horiz-adv-x="1282" d="M106 209l154 149q36 -39 80 -70.5t92 -53.5t99 -34t102 -12q152 0 224.5 52t72.5 157q0 42 -17 74t-55 59.5t-100 52.5t-152 52q-114 34 -198 68t-139.5 80.5t-83 112t-27.5 161.5q0 93 37 167t100.5 125.5t150 79t185.5 27.5q82 -1 144.5 -14t121 -40t105.5 -59.5 t98 -80.5l-152 -154q-41 41 -74 63t-68.5 38t-83 26t-108.5 10q-63 0 -108 -14.5t-74.5 -38.5t-43 -56.5t-13.5 -68.5q0 -38 14 -67t49.5 -54.5t96 -49.5t153.5 -52q106 -32 191 -67.5t144.5 -84.5t91.5 -116.5t32 -163.5q0 -97 -31.5 -177t-96.5 -137.5t-165 -89 t-238 -31.5q-78 0 -150.5 16.5t-137 46.5t-121 73t-101.5 96z" />
<glyph unicode="T" horiz-adv-x="1243" d="M96 1223v211h1051v-211h-418v-1223h-215v1223h-418z" />
<glyph unicode="U" horiz-adv-x="1442" d="M176 602v832h215v-826q0 -204 83 -309.5t245 -105.5q169 0 250.5 102t81.5 299v840h215v-836q0 -150 -36 -266t-106 -195t-173 -119.5t-236 -40.5t-234 42t-168.5 122.5t-102 196.5t-34.5 264z" />
<glyph unicode="V" horiz-adv-x="1409" d="M96 1434h234l379 -1158l374 1158h230l-492 -1434h-227z" />
<glyph unicode="W" horiz-adv-x="1767" d="M111 1434h217l203 -1068l270 1068h184l269 -1068l203 1068h208l-293 -1434h-217l-264 1091l-275 -1091h-213z" />
<glyph unicode="X" horiz-adv-x="1350" d="M113 0l444 740l-416 694h256l289 -509l291 509h252l-416 -692l445 -742h-257l-319 554l-317 -554h-252z" />
<glyph unicode="Y" horiz-adv-x="1411" d="M84 1434h252l371 -657l373 657h247l-514 -867v-567h-215v567z" />
<glyph unicode="Z" horiz-adv-x="1360" d="M123 0v209l850 1026h-809v199h1048v-209l-840 -1026h840v-199h-1089z" />
<glyph unicode="[" horiz-adv-x="778" d="M194 -225v1659h455v-174h-252v-1311h252v-174h-455z" />
<glyph unicode="\" horiz-adv-x="913" d="M33 1618h211l637 -1802h-211z" />
<glyph unicode="]" horiz-adv-x="778" d="M129 -51h252v1311h-252v174h455v-1659h-455v174z" />
<glyph unicode="^" horiz-adv-x="1184" d="M96 782l414 652h164l413 -652h-235l-262 428l-262 -428h-232z" />
<glyph unicode="_" horiz-adv-x="1024" d="M0 -168h1024v-194h-1024v194z" />
<glyph unicode="`" horiz-adv-x="1024" d="M205 1546h287l219 -327h-168z" />
<glyph unicode="a" horiz-adv-x="1126" d="M104 340q0 90 32.5 155.5t90 108.5t136 63.5t169.5 20.5q85 0 143 -11.5t97 -29.5v80q0 88 -52 135t-151 47q-83 0 -150 -16t-130 -51l-82 159q77 48 165.5 72.5t202.5 24.5q90 0 164.5 -22t127.5 -67t82.5 -113t29.5 -159v-737h-207v106q-41 -38 -68 -55.5t-56 -33 t-73.5 -28t-97.5 -12.5q-65 0 -131.5 19.5t-120 63t-87.5 112.5t-34 168zM305 346q0 -48 17 -81.5t43 -54.5t61.5 -31.5t85.5 -10.5q42 0 81 12t73 31.5t61 44t45 49.5v154q-30 14 -54 21.5t-50 13t-62.5 9t-79.5 3.5q-102 0 -161.5 -43t-59.5 -117z" />
<glyph unicode="b" horiz-adv-x="1167" d="M156 0v1384l209 109v-520q33 30 60 49t57 36t70 28.5t93 11.5q87 0 162.5 -32.5t131.5 -102.5t88 -179.5t32 -263.5q0 -138 -35 -240t-93.5 -169.5t-135 -100.5t-160.5 -33q-78 0 -151 36t-119 87v-100h-209zM362 313q18 -24 44.5 -49t59.5 -45.5t70.5 -33.5t77.5 -13 q115 0 174.5 85.5t59.5 256.5q0 202 -62.5 295.5t-179.5 93.5q-38 0 -72.5 -11.5t-66 -30.5t-58 -44t-47.5 -51v-453z" />
<glyph unicode="c" horiz-adv-x="1069" d="M104 535q0 133 36.5 238t100.5 177t150 110t184 38q119 0 212.5 -46.5t168.5 -136.5l-125 -149q-38 38 -65 59.5t-59.5 38.5t-66 25t-71.5 8q-57 0 -103.5 -25t-79.5 -71t-51 -112t-18 -148q0 -79 17 -145.5t49.5 -115t80.5 -75.5t111 -27q38 0 69 8.5t59.5 25t56 41.5 t59.5 58l135 -133q-32 -40 -68.5 -76.5t-82.5 -64t-103.5 -44t-130.5 -16.5q-98 0 -183 40t-147.5 113t-98.5 176t-36 229z" />
<glyph unicode="d" horiz-adv-x="1167" d="M109 555q0 138 34.5 240.5t93 169.5t135 100t160.5 33q41 0 80 -10t74 -27t64.5 -39.5t52.5 -46.5v409l209 109v-1493h-209v102q-30 -27 -62 -50t-69 -41t-74 -26t-76 -8q-87 0 -162 32.5t-131 102.5t-88 179.5t-32 263.5zM319 561q0 -101 16 -174.5t47 -121t76 -70.5 t103 -23q38 0 73 11.5t66 31t57.5 44t47.5 50.5v453q-18 24 -44.5 49t-59.5 45.5t-70.5 33.5t-77.5 13q-115 0 -174.5 -85.5t-59.5 -256.5z" />
<glyph unicode="e" horiz-adv-x="1135" d="M104 537q0 136 34.5 241t96.5 176t149 107.5t191 36.5q115 0 200 -43.5t141 -117t84 -171.5t28 -207q0 -29 -2 -54t-4 -42h-711q9 -78 34 -133.5t61 -91.5t81.5 -53t94.5 -17q35 0 66 6t59.5 18t50.5 24.5t57 37.5l125 -135q-40 -38 -76.5 -61.5t-79 -42t-96.5 -28.5 t-119 -10q-70 0 -131 19.5t-108 51t-84.5 72t-71.5 104t-52 142t-18 171.5zM315 637h500q-4 55 -19.5 104t-46 86t-77 58.5t-111.5 21.5q-56 0 -98 -18.5t-72 -52.5t-49.5 -83.5t-26.5 -115.5z" />
<glyph unicode="f" horiz-adv-x="741" d="M88 879v196h139v142q0 73 21.5 124.5t58 84t86.5 47t107 14.5q42 0 83.5 -5.5t75.5 -15.5v-184q-37 11 -66 16t-56 5q-22 0 -40.5 -4.5t-31.5 -15t-20 -31.5t-7 -54v-123h199v-196h-199v-879h-211v879h-139z" />
<glyph unicode="g" horiz-adv-x="1167" d="M109 555q0 138 35 240.5t93.5 169.5t135 100t159.5 33q41 0 80 -10t73.5 -27t64 -39.5t51.5 -46.5v100h211v-973q0 -111 -22.5 -195.5t-73.5 -146.5q-63 -75 -172 -114t-277 -43l-61 172q123 4 213.5 27t126.5 65q33 35 44 88.5t11 128.5v18q-29 -27 -60.5 -49.5 t-66 -39.5t-72.5 -26.5t-80 -9.5q-86 0 -161 32.5t-131 102.5t-88.5 179.5t-32.5 263.5zM319 561q0 -189 59.5 -289t182.5 -100q68 0 129.5 37t114.5 100v453q-18 24 -44.5 49t-59.5 45.5t-70.5 33.5t-77.5 13q-115 0 -174.5 -85.5t-59.5 -256.5z" />
<glyph unicode="h" horiz-adv-x="1167" d="M156 0v1382l211 111v-520q20 29 49 52.5t64 39.5t75 24.5t82 8.5q97 0 168 -31t119.5 -91.5t72 -154t23.5 -205.5v-616h-211v608q0 149 -53 222t-168 73q-49 0 -90.5 -16t-71 -53t-44.5 -87t-15 -118v-629h-211z" />
<glyph unicode="i" horiz-adv-x="543" d="M135 1350q0 28 11 53t29.5 43.5t43.5 29.5t53 11t52.5 -11t43 -29.5t29.5 -43.5t11 -53t-11 -52.5t-29.5 -43t-43 -29.5t-52.5 -11t-53 11t-43.5 29.5t-29.5 43t-11 52.5zM166 0v1075h211v-1075h-211z" />
<glyph unicode="j" horiz-adv-x="543" d="M-59 -236q73 21 117.5 41.5t68.5 51t31.5 75t7.5 113.5v1030h211v-1026q0 -101 -15.5 -174.5t-56 -126t-111.5 -86.5t-182 -57zM135 1350q0 28 11 53t29.5 43.5t43.5 29.5t53 11t52.5 -11t43 -29.5t29.5 -43.5t11 -53t-11 -52.5t-29.5 -43t-43 -29.5t-52.5 -11t-53 11 t-43.5 29.5t-29.5 43t-11 52.5z" />
<glyph unicode="k" horiz-adv-x="1083" d="M156 0v1382l211 111v-894l340 476h239l-272 -360l323 -715h-229l-238 535l-163 -218v-317h-211z" />
<glyph unicode="l" horiz-adv-x="543" d="M166 0v1382l211 111v-1493h-211z" />
<glyph unicode="m" horiz-adv-x="1763" d="M156 0v1075h211v-102q40 59 106 92t150 33q109 0 180 -40.5t115 -117.5q29 36 60.5 65t70 50t87 32t111.5 11q87 0 154 -26.5t116.5 -86t74 -154t24.5 -215.5v-616h-211v608q0 81 -13 137.5t-38.5 91.5t-64.5 50.5t-91 15.5q-56 0 -95 -19t-64 -56t-36.5 -89t-11.5 -110 v-629h-211v608q0 81 -12.5 137.5t-38.5 91.5t-65 50.5t-91 15.5t-92.5 -18.5t-65 -55.5t-36.5 -85.5t-12 -114.5v-629h-211z" />
<glyph unicode="n" horiz-adv-x="1167" d="M156 0v1075h211v-102q20 29 49 52.5t64 39.5t75 24.5t82 8.5q97 0 168.5 -31.5t119 -90.5t71.5 -149t24 -211v-616h-211v608q0 146 -52 220.5t-169 74.5q-51 0 -94 -18t-72 -56t-42 -89.5t-13 -110.5v-629h-211z" />
<glyph unicode="o" horiz-adv-x="1167" d="M104 537q0 132 37 236t101.5 176.5t152 110.5t189.5 38q103 0 190.5 -39.5t151.5 -112t100.5 -175t36.5 -228.5q0 -134 -37 -239t-102 -178t-154 -111t-192 -38q-102 0 -188.5 40t-150 113.5t-99.5 177t-36 229.5zM317 543q0 -89 19.5 -157t55 -114t85 -70t109.5 -24 t108.5 28.5t83 77t53.5 114t19 139.5q0 82 -19 148.5t-54.5 113.5t-86.5 72.5t-115 25.5q-60 0 -107.5 -25.5t-81 -72t-51.5 -111.5t-18 -145z" />
<glyph unicode="p" horiz-adv-x="1167" d="M156 -395v1470h209v-102q58 54 126.5 89.5t153.5 35.5q87 0 162.5 -32.5t131.5 -102.5t88 -179.5t32 -263.5q0 -138 -35 -240t-93.5 -169.5t-135 -100.5t-160.5 -33q-71 0 -141.5 31t-128.5 92v-387zM362 313q18 -24 44.5 -49t59.5 -45.5t70.5 -33.5t77.5 -13 q115 0 174.5 85.5t59.5 256.5q0 202 -62.5 295.5t-179.5 93.5q-65 0 -129 -36.5t-115 -100.5v-453z" />
<glyph unicode="q" horiz-adv-x="1167" d="M109 555q0 138 34.5 240.5t93 169.5t135 100t160.5 33q41 0 80 -10t74 -27t64.5 -39.5t52.5 -46.5v100h209v-1362l-209 -108v497q-59 -54 -127.5 -89.5t-153.5 -35.5q-87 0 -162 32.5t-131 102.5t-88 179.5t-32 263.5zM319 561q0 -191 60 -290t182 -99q72 0 134 39 t110 98v453q-18 24 -44.5 49t-59.5 45.5t-70.5 33.5t-77.5 13q-115 0 -174.5 -85.5t-59.5 -256.5z" />
<glyph unicode="r" horiz-adv-x="856" d="M156 0v1075h211v-102q18 27 44 49.5t57.5 39.5t67.5 26.5t76 9.5q65 0 108 -12t75 -33l-56 -201q-34 19 -71.5 29t-89.5 10q-101 0 -156 -69.5t-55 -207.5v-614h-211z" />
<glyph unicode="s" horiz-adv-x="1022" d="M92 115l96 159q76 -52 157 -79t157 -27q100 0 148 31t48 88q0 31 -17 54.5t-49.5 44t-78.5 40t-104 41.5q-87 34 -147.5 67t-98 72t-54 87t-16.5 112q0 72 27 127t76 91.5t116 55.5t148 19q102 0 197 -33t167 -86l-92 -162q-66 47 -133.5 69.5t-144.5 22.5 q-78 0 -113 -27.5t-35 -70.5q0 -20 8.5 -38t30.5 -36t60.5 -38t99.5 -44q90 -35 157.5 -67t113 -71.5t68.5 -92.5t23 -129q0 -89 -33.5 -150t-89 -98.5t-128.5 -53.5t-152 -16q-102 0 -214.5 37.5t-197.5 100.5z" />
<glyph unicode="t" horiz-adv-x="825" d="M68 883v192h153v307l207 111v-418h266v-192h-266v-584q0 -38 6.5 -62.5t20 -39.5t34.5 -21t50 -6q41 0 83.5 13t71.5 30l-24 -186q-39 -22 -91.5 -36t-115.5 -14q-55 0 -96.5 15.5t-75.5 49t-52 88t-18 132.5v621h-153z" />
<glyph unicode="u" horiz-adv-x="1167" d="M147 459v616h211v-608q0 -148 52.5 -221.5t169.5 -73.5q106 0 163.5 71.5t57.5 202.5v629h211v-1075h-211v102q-40 -55 -112 -90t-159 -35q-188 0 -285.5 121t-97.5 361z" />
<glyph unicode="v" horiz-adv-x="1110" d="M68 1075h221l272 -823l258 823h223l-378 -1075h-211z" />
<glyph unicode="w" horiz-adv-x="1518" d="M82 1075h209l180 -738l203 738h170l204 -738l179 738h209l-299 -1075h-181l-200 752l-199 -752h-180z" />
<glyph unicode="x" horiz-adv-x="1087" d="M82 0l338 557l-316 518h244l197 -356l196 356h242l-317 -518l340 -557h-250l-215 389l-222 -389h-237z" />
<glyph unicode="y" horiz-adv-x="1139" d="M68 1075h231l270 -810l279 810h223l-541 -1454h-223l156 399z" />
<glyph unicode="z" horiz-adv-x="1079" d="M119 0v172l588 719h-547v184h788v-170l-577 -721h577v-184h-829z" />
<glyph unicode="{" horiz-adv-x="870" d="M125 516v182h47q34 0 57 8t36 28t18.5 55t5.5 88v133q0 223 117 328.5t356 105.5v-156q-75 -8 -125 -27t-80 -52t-42.5 -79.5t-12.5 -107.5v-96q0 -72 -8 -125t-26 -91t-48 -63t-74 -41q44 -15 74 -39.5t48 -62t26 -90.5t8 -125v-96q0 -61 12.5 -106.5t42.5 -77t80 -50.5 t125 -27v-157q-239 0 -356 103.5t-117 328.5v131q0 53 -5.5 87.5t-18.5 54.5t-36 28t-57 8h-47z" />
<glyph unicode="|" horiz-adv-x="604" d="M205 -379v2017h194v-2017h-194z" />
<glyph unicode="}" horiz-adv-x="870" d="M109 -70q76 9 125.5 28.5t79.5 52.5t42.5 79t12.5 107v96q0 72 8 125t26 91t48 62.5t73 40.5q-45 16 -74.5 40.5t-47 62t-25.5 90.5t-8 125v95q0 61 -12.5 106.5t-42.5 77t-80 50.5t-125 27v158q239 0 356 -105t117 -327v-131q0 -54 5.5 -88.5t18.5 -54.5t35.5 -28 t56.5 -8h47v-182h-47q-34 0 -56.5 -8t-35.5 -28t-18.5 -55t-5.5 -87v-133q0 -223 -117 -328.5t-356 -105.5v155z" />
<glyph unicode="~" horiz-adv-x="1151" d="M86 651q28 71 59 125t68.5 90.5t83 55t102.5 18.5q31 0 56.5 -4t48 -13t44.5 -22t48 -31q59 -40 100.5 -61t67.5 -21q24 0 43 7.5t36.5 25.5t35 48t39.5 75l147 -76q-28 -71 -59 -124.5t-68.5 -90t-83 -55t-102.5 -18.5q-32 0 -57 4t-47.5 12.5t-45 21.5t-47.5 31 q-33 24 -83 53t-87 29q-25 0 -43.5 -7.5t-35.5 -25.5t-34 -48t-39 -75z" />
<glyph unicode="&#xa1;" horiz-adv-x="610" d="M152 1303q0 31 12 59t33 49t48.5 33t59.5 12q31 0 59 -12t49 -33t33.5 -49t12.5 -59q0 -32 -12.5 -60t-33.5 -49.5t-49 -34t-59 -12.5q-32 0 -59.5 12.5t-48.5 34t-33 49.5t-12 60zM197 0v637l41 383h135l41 -383v-637h-217z" />
<glyph unicode="&#xa2;" d="M133 727q0 114 34 207.5t93.5 164t141 116t176.5 63.5v192h225v-186q119 -15 203 -60t143 -110l-150 -137q-33 34 -65.5 59.5t-68 41.5t-76.5 24t-91 8q-76 0 -140 -25.5t-110.5 -73.5t-73 -116.5t-26.5 -153.5q0 -90 25 -162.5t72 -123.5t114 -78t150 -27q97 0 170.5 35 t130.5 98l133 -127q-62 -66 -143.5 -113t-196.5 -63v-203h-225v203q-104 17 -186.5 63t-140 116.5t-88 163.5t-30.5 204z" />
<glyph unicode="&#xa3;" d="M170 0v170q43 47 77.5 91.5t59.5 93.5t39 104t16 123h-190v174h166q-11 29 -26.5 57t-32.5 59q-17 27 -30 52.5t-21.5 52t-12.5 55.5t-4 64q0 85 34.5 152t96.5 113t148.5 70.5t191.5 24.5q139 0 251.5 -47.5t209.5 -138.5l-123 -150q-77 76 -161 112t-181 36 q-64 0 -111 -14.5t-78.5 -39.5t-47 -58.5t-15.5 -72.5q0 -43 13.5 -83t41.5 -87q20 -32 39 -72t31 -85h303v-174h-289q-3 -67 -16.5 -123.5t-34 -105t-46.5 -90t-54 -77.5h733v-186h-977z" />
<glyph unicode="&#xa4;" horiz-adv-x="1257" d="M113 717q0 176 41 313.5t116.5 232t182 144t237.5 49.5q88 0 156.5 -18.5t122.5 -55.5t98 -92.5t84 -130.5l-174 -104q-30 48 -59 84t-62.5 60t-74.5 36t-95 12q-125 0 -210 -70.5t-122 -209.5h484v-168h-510q-2 -20 -2 -40v-40v-38.5t2 -37.5h510v-168h-486 q39 -144 124.5 -216.5t211.5 -72.5q54 0 96.5 12.5t79.5 36.5t69.5 60t65.5 84l162 -117q-40 -60 -85.5 -112t-102.5 -90.5t-128 -60.5t-161 -22q-134 0 -240 51.5t-179.5 147.5t-112.5 233t-39 308z" />
<glyph unicode="&#xa5;" d="M51 1434h250l336 -676l336 676h246l-478 -877v-127h332v-180h-332v-250h-213v250h-329v180h329v123z" />
<glyph unicode="&#xa6;" horiz-adv-x="633" d="M217 -379v875h197v-875h-197zM217 764v874h197v-874h-197z" />
<glyph unicode="&#xa7;" horiz-adv-x="1352" d="M113 606q0 58 19.5 107t51 89.5t71.5 72t81 55.5q-32 37 -51 83.5t-19 108.5q0 71 27.5 132t79.5 106t127.5 70.5t171.5 25.5q120 0 220.5 -36.5t194.5 -110.5l-129 -166q-74 59 -149.5 83.5t-157.5 24.5q-42 0 -72.5 -9.5t-50.5 -26t-29.5 -39t-9.5 -48.5 q0 -41 30.5 -70t80.5 -52t114 -43t132 -43q73 -25 143.5 -57t126 -78.5t89.5 -112.5t34 -158q0 -59 -19.5 -107.5t-51.5 -89t-72 -72t-80 -55.5q32 -37 50.5 -83.5t18.5 -108.5q0 -71 -27.5 -132t-79 -106t-127 -70.5t-171.5 -25.5q-120 0 -221 37t-195 111l129 165 q75 -58 150.5 -83t156.5 -25q85 0 123.5 35t38.5 88q0 41 -30.5 70t-80 52.5t-114 43.5t-131.5 43q-73 24 -143.5 56t-126 78.5t-89.5 112.5t-34 158zM334 627q0 -48 21 -84t56.5 -64t83 -49t101.5 -39q65 -22 131.5 -43t128.5 -49q76 39 119 86.5t43 108.5q0 48 -21 84 t-56.5 63.5t-83 48.5t-101.5 39q-65 22 -131.5 43t-128.5 49q-80 -40 -121 -87.5t-41 -106.5z" />
<glyph unicode="&#xa8;" horiz-adv-x="1024" d="M174 1356q0 28 11 53.5t30 44.5t44.5 30t53.5 11t53 -11t44 -30t30 -44.5t11 -53.5t-11 -53t-30 -43.5t-44 -29.5t-53 -11t-53.5 11t-44.5 29.5t-30 43.5t-11 53zM573 1356q0 28 11 53.5t30.5 44.5t44.5 30t54 11q27 0 52 -11t44 -30t30 -44.5t11 -53.5t-11 -53 t-30 -43.5t-44 -29.5t-52 -11q-29 0 -54 11t-44.5 29.5t-30.5 43.5t-11 53z" />
<glyph unicode="&#xa9;" horiz-adv-x="1712" d="M117 717q0 158 56.5 293t155.5 234.5t235.5 155.5t291.5 56q156 0 292 -56t235 -155.5t155.5 -234.5t56.5 -293t-56.5 -293t-155.5 -234.5t-234 -156t-293 -56.5t-293 56.5t-234 156t-155.5 234.5t-56.5 293zM236 717q0 -132 47.5 -245.5t130.5 -197t196.5 -131 t245.5 -47.5t245.5 47.5t197 131t131 197t47.5 245.5t-47.5 245.5t-131 196.5t-197 130.5t-245.5 47.5t-245.5 -47.5t-196.5 -130.5t-130.5 -196.5t-47.5 -245.5zM520 721q0 92 24.5 168.5t69 131.5t107.5 85.5t141 30.5q100 0 168 -40t113 -120l-121 -76q-32 51 -67 74.5 t-93 23.5q-50 0 -87.5 -19.5t-62.5 -55.5t-37.5 -87.5t-12.5 -115.5t12.5 -116t37.5 -88.5t62.5 -56.5t87.5 -20q59 0 97.5 26.5t72.5 80.5l115 -78q-48 -82 -120 -124t-165 -42q-78 0 -141 30.5t-107.5 86t-69 132.5t-24.5 169z" />
<glyph unicode="&#xaa;" horiz-adv-x="942" d="M94 846q0 70 27 123t74 88.5t111 53t138 17.5q54 0 101 -8.5t82 -23.5v55q0 69 -40 106t-118 37q-63 0 -117 -11.5t-106 -39.5l-68 129q62 38 134.5 61t162.5 23q72 0 132 -18.5t103 -56t67 -93t24 -129.5v-588h-174v76q-45 -43 -103.5 -69.5t-124.5 -26.5q-53 0 -107 16 t-98 51t-72 91t-28 137zM264 850q0 -65 39 -101t123 -36q61 0 115.5 32t85.5 76v115q-35 17 -80 28t-111 11q-80 0 -126 -33t-46 -92z" />
<glyph unicode="&#xab;" horiz-adv-x="1204" d="M61 537l379 538h228l-369 -536l369 -539h-228zM516 537l379 538h227l-368 -536l368 -539h-227z" />
<glyph unicode="&#xac;" d="M140 602v205h989v-604h-211v399h-778z" />
<glyph unicode="&#xad;" horiz-adv-x="737" d="M113 645v209h512v-209h-512z" />
<glyph unicode="&#xae;" horiz-adv-x="1712" d="M117 717q0 158 56.5 293t155.5 234.5t235.5 155.5t291.5 56q156 0 292 -56t235 -155.5t155.5 -234.5t56.5 -293t-56.5 -293t-155.5 -234.5t-234 -156t-293 -56.5t-293 56.5t-234 156t-155.5 234.5t-56.5 293zM236 717q0 -132 47.5 -245.5t130.5 -197t196.5 -131 t245.5 -47.5t245.5 47.5t197 131t131 197t47.5 245.5t-47.5 245.5t-131 196.5t-197 130.5t-245.5 47.5t-245.5 -47.5t-196.5 -130.5t-130.5 -196.5t-47.5 -245.5zM575 328v807h355q54 0 102 -14.5t84 -44.5t57 -76t21 -109q0 -96 -47 -155.5t-125 -82.5l166 -325h-162 l-158 311h-155v-311h-138zM713 772h213q55 0 92 27.5t37 87.5q0 57 -37 85.5t-92 28.5h-213v-229z" />
<glyph unicode="&#xaf;" horiz-adv-x="1024" d="M225 1249v185h574v-185h-574z" />
<glyph unicode="&#xb0;" horiz-adv-x="995" d="M92 1053q0 84 31.5 157.5t86 128t128.5 86t160 31.5t160 -31.5t128.5 -86t85.5 -128t31 -157.5q0 -87 -31 -161.5t-85.5 -129.5t-128.5 -86t-160 -31t-160 31t-128.5 86t-86 129.5t-31.5 161.5zM276 1053q0 -48 17.5 -89t47.5 -71.5t70.5 -48t86.5 -17.5q47 0 87.5 17.5 t70 48t46.5 71.5t17 89q0 45 -17 85.5t-46.5 70.5t-70 47.5t-87.5 17.5q-46 0 -86.5 -17.5t-70.5 -47.5t-47.5 -70.5t-17.5 -85.5z" />
<glyph unicode="&#xb1;" d="M140 59v189h989v-189h-989zM140 705v204h389v379h211v-379h389v-204h-389v-379h-211v379h-389z" />
<glyph unicode="&#xb2;" horiz-adv-x="868" d="M106 532q5 102 28 175t63 128.5t95 99.5t124 87q47 29 77 50.5t47.5 40.5t24 38t6.5 43q0 48 -34 75t-99 27q-33 0 -61.5 -5.5t-54.5 -17t-52.5 -29t-54.5 -40.5l-96 133q37 28 73 50.5t74.5 37.5t81.5 23t94 8q69 0 125 -16t96.5 -48t62.5 -79.5t22 -110.5 q0 -50 -11.5 -88.5t-37.5 -72.5t-69 -67.5t-106 -72.5q-54 -34 -91 -61t-62 -51t-39.5 -46.5t-22.5 -46.5h447v-164h-650z" />
<glyph unicode="&#xb3;" horiz-adv-x="817" d="M55 666l113 116q51 -51 102.5 -77.5t110.5 -26.5q84 0 126 32.5t42 98.5q0 60 -44 89.5t-118 29.5h-94v153h94q65 0 96 29t31 82q0 46 -33 76t-108 30q-50 0 -92 -22t-88 -64l-107 117q57 54 128.5 90.5t162.5 36.5q67 0 124 -15.5t98.5 -46.5t65 -78t23.5 -110 q0 -68 -24.5 -112.5t-67.5 -75.5q28 -12 51 -30.5t40 -44t26.5 -58t9.5 -74.5q0 -70 -24 -124t-68.5 -91t-108.5 -56.5t-145 -19.5q-96 0 -177.5 40.5t-144.5 105.5z" />
<glyph unicode="&#xb4;" horiz-adv-x="1024" d="M313 1219l219 327h287l-338 -327h-168z" />
<glyph unicode="&#xb5;" horiz-adv-x="1176" d="M156 -395v1470h211v-608q0 -81 15 -137.5t43.5 -91.5t69.5 -50.5t93 -15.5t89 15.5t69 50.5t47.5 89t15.5 119v629h211v-1075h-211v102q-46 -64 -119.5 -94.5t-150.5 -30.5q-60 0 -105.5 11t-68.5 23v-298z" />
<glyph unicode="&#xb6;" horiz-adv-x="1483" d="M96 985q0 108 37.5 191.5t101 140.5t148 87t178.5 30h739v-1813h-202v1616h-162v-1616h-203v914h-172q-95 0 -179 29.5t-148 87t-101 141.5t-37 192z" />
<glyph unicode="&#xb7;" horiz-adv-x="520" d="M98 752q0 33 13 62.5t35 52t51.5 35.5t62.5 13t62.5 -13t51.5 -35.5t35 -52t13 -62.5t-13 -62.5t-35 -51.5t-51.5 -35t-62.5 -13t-62.5 13t-51.5 35t-35 51.5t-13 62.5z" />
<glyph unicode="&#xb8;" horiz-adv-x="1024" d="M266 -322l45 68q89 -49 180 -49q68 0 99.5 22.5t31.5 57.5q0 31 -18 48t-47 17q-50 0 -82 -30l-74 28l37 185h105l-22 -117q20 8 42.5 13t56.5 5q26 0 52.5 -8t47.5 -25.5t34.5 -44.5t13.5 -65q0 -48 -20 -82t-54 -55.5t-79.5 -31t-96.5 -9.5q-74 0 -135 19t-117 54z" />
<glyph unicode="&#xb9;" horiz-adv-x="670" d="M131 1188v129q41 3 72 9t53.5 18.5t36.5 33.5t22 54h146v-910h-176v666h-154z" />
<glyph unicode="&#xba;" horiz-adv-x="991" d="M109 1004q0 106 29.5 190t81.5 142.5t122.5 89t153.5 30.5t154 -31.5t122.5 -90t81 -141t29.5 -183.5q0 -108 -30 -193t-83 -143.5t-125 -89.5t-156 -31q-81 0 -150.5 32.5t-120.5 91.5t-80 142t-29 185zM287 1010q0 -70 15 -124t43 -90.5t66.5 -55.5t86.5 -19 q47 0 85 22.5t65 60.5t42 89.5t15 110.5q0 65 -15 117.5t-43 89.5t-68 57t-90 20q-48 0 -85.5 -20t-63.5 -56t-39.5 -87.5t-13.5 -114.5z" />
<glyph unicode="&#xbb;" horiz-adv-x="1204" d="M82 0l369 537l-369 538h227l379 -536l-379 -539h-227zM537 0l368 537l-368 538h227l379 -536l-379 -539h-227z" />
<glyph unicode="&#xbc;" horiz-adv-x="1905" d="M171 1188v129q41 3 72 9t53.5 18.5t36.5 33.5t22 54h146v-910h-176v666h-154zM301 0l961 1434h237l-960 -1434h-238zM984 199v129l463 583h168v-559h117v-155h-117v-195h-166v197h-465zM1195 352h254v323z" />
<glyph unicode="&#xbd;" horiz-adv-x="1905" d="M157 1188v129q41 3 72 9t53.5 18.5t36.5 33.5t22 54h146v-910h-176v666h-154zM248 0l961 1434h237l-960 -1434h-238zM1098 -1q5 102 28 175t63 128.5t95 99.5t124 87q47 29 77 50.5t47.5 40.5t24 38t6.5 43q0 48 -34 75t-99 27q-33 0 -61.5 -5.5t-54.5 -17t-52.5 -29 t-54.5 -40.5l-96 133q37 28 73 50.5t74.5 37.5t81.5 23t94 8q69 0 125 -16t96.5 -48t62.5 -79.5t22 -110.5q0 -50 -11.5 -88.5t-37.5 -72.5t-69 -67.5t-106 -72.5q-54 -34 -91 -61t-62 -51t-39.5 -46.5t-22.5 -46.5h447v-164h-650z" />
<glyph unicode="&#xbe;" horiz-adv-x="1905" d="M113 666l113 116q51 -51 102.5 -77.5t110.5 -26.5q84 0 126 32.5t42 98.5q0 60 -44 89.5t-118 29.5h-94v153h94q65 0 96 29t31 82q0 46 -33 76t-108 30q-50 0 -92 -22t-88 -64l-107 117q57 54 128.5 90.5t162.5 36.5q67 0 124 -15.5t98.5 -46.5t65 -78t23.5 -110 q0 -68 -24.5 -112.5t-67.5 -75.5q28 -12 51 -30.5t40 -44t26.5 -58t9.5 -74.5q0 -70 -24 -124t-68.5 -91t-108.5 -56.5t-145 -19.5q-96 0 -177.5 40.5t-144.5 105.5zM429 0l961 1434h237l-960 -1434h-238zM1044 198v129l463 583h168v-559h117v-155h-117v-195h-166v197h-465z M1255 351h254v323z" />
<glyph unicode="&#xbf;" horiz-adv-x="1169" d="M111 358q0 75 17 130.5t50.5 99.5t82.5 80.5t114 72.5q50 28 80 53t46.5 55.5t21.5 71t5 99.5h224q0 -90 -8 -139t-18 -77.5t-30 -60t-45.5 -54.5t-55.5 -45.5t-114 -70.5q-39 -21 -67.5 -41.5t-47 -44t-27.5 -51.5t-9 -65q0 -87 71.5 -134t204.5 -47q57 0 105.5 11 t91.5 32t82 50.5t78 66.5l137 -162q-44 -44 -97.5 -82t-116.5 -67t-134.5 -45.5t-151.5 -16.5q-109 0 -199 24.5t-154.5 72.5t-100 119.5t-35.5 164.5zM487 1303q0 31 12 59t33 49t49 33t60 12q31 0 59 -12t49 -33t33.5 -49t12.5 -59q0 -32 -12.5 -60t-33.5 -49.5t-49 -34 t-59 -12.5q-32 0 -60 12.5t-49 34t-33 49.5t-12 60z" />
<glyph unicode="&#xc0;" horiz-adv-x="1458" d="M96 0l516 1434h228l522 -1434h-229l-121 340h-574l-119 -340h-223zM344 1853h287l219 -327h-168zM504 532h442l-223 639z" />
<glyph unicode="&#xc1;" horiz-adv-x="1458" d="M96 0l516 1434h228l522 -1434h-229l-121 340h-574l-119 -340h-223zM504 532h442l-223 639zM596 1526l219 327h287l-338 -327h-168z" />
<glyph unicode="&#xc2;" horiz-adv-x="1458" d="M96 0l516 1434h228l522 -1434h-229l-121 340h-574l-119 -340h-223zM363 1504l239 327h246l239 -327h-169l-195 180l-195 -180h-165zM504 532h442l-223 639z" />
<glyph unicode="&#xc3;" horiz-adv-x="1458" d="M96 0l516 1434h228l522 -1434h-229l-121 340h-574l-119 -340h-223zM332 1526q0 68 16.5 120t45 87t68 53t85.5 18q29 0 55.5 -5t54.5 -15.5t60 -27.5t72 -42q22 -12 42.5 -20.5t37.5 -8.5q34 0 53 25t27 88h145q0 -68 -16.5 -120.5t-45 -87.5t-68 -53t-85.5 -18 q-29 0 -55.5 5t-54.5 16t-60 28t-72 42q-21 12 -42 20t-38 8q-34 0 -52.5 -24.5t-26.5 -87.5h-146zM504 532h442l-223 639z" />
<glyph unicode="&#xc4;" horiz-adv-x="1458" d="M96 0l516 1434h228l522 -1434h-229l-121 340h-574l-119 -340h-223zM383 1663q0 28 11 53.5t30 44.5t44.5 30t53.5 11t53 -11t44 -30t30 -44.5t11 -53.5t-11 -53t-30 -43.5t-44 -29.5t-53 -11t-53.5 11t-44.5 29.5t-30 43.5t-11 53zM504 532h442l-223 639zM782 1663 q0 28 11 53.5t30.5 44.5t44.5 30t54 11q27 0 52 -11t44 -30t30 -44.5t11 -53.5t-11 -53t-30 -43.5t-44 -29.5t-52 -11q-29 0 -54 11t-44.5 29.5t-30.5 43.5t-11 53z" />
<glyph unicode="&#xc5;" horiz-adv-x="1458" d="M96 0l479 1331q-49 34 -78.5 89.5t-29.5 123.5q0 55 19.5 102.5t54 82t82 54t102.5 19.5t102.5 -19.5t82 -54t54 -82t19.5 -102.5q0 -68 -28.5 -122.5t-77.5 -88.5l485 -1333h-229l-121 340h-574l-119 -340h-223zM504 532h442l-223 639zM600 1544q0 -27 9.5 -49.5 t26 -39.5t39.5 -26.5t50 -9.5t50 9.5t39.5 26.5t26 39.5t9.5 49.5t-9.5 50t-26 39.5t-39.5 26t-50 9.5t-50 -9.5t-39.5 -26t-26 -39.5t-9.5 -50z" />
<glyph unicode="&#xc6;" horiz-adv-x="2085" d="M29 0l962 1434h944v-209h-708v-355h573v-208h-573v-453h739v-209h-946v336h-531l-221 -336h-239zM621 535h399v603z" />
<glyph unicode="&#xc7;" horiz-adv-x="1341" d="M119 717q0 163 42.5 298.5t121.5 233.5t191 152.5t251 54.5q175 0 294 -69t193 -199l-190 -119q-28 44 -57 76.5t-64 53.5t-78 31.5t-98 10.5q-94 0 -166 -36.5t-120.5 -105t-73.5 -165.5t-25 -217q0 -121 25 -218t73.5 -165t120.5 -104.5t166 -36.5q112 0 186 45 t129 133l179 -119q-50 -80 -94.5 -122.5t-100 -76t-130 -55t-169.5 -21.5q-102 0 -183.5 27t-147.5 74t-119.5 117.5t-85.5 146.5t-51 170t-19 205zM472 -322l45 68q89 -49 180 -49q68 0 99.5 22.5t31.5 57.5q0 31 -18 48t-47 17q-50 0 -82 -30l-74 28l37 185h105l-22 -117 q20 8 42.5 13t56.5 5q26 0 52.5 -8t47.5 -25.5t34.5 -44.5t13.5 -65q0 -48 -20 -82t-54 -55.5t-79.5 -31t-96.5 -9.5q-74 0 -135 19t-117 54z" />
<glyph unicode="&#xc8;" horiz-adv-x="1260" d="M186 0v1434h924v-209h-709v-355h576v-208h-576v-453h740v-209h-955zM260 1853h287l219 -327h-168z" />
<glyph unicode="&#xc9;" horiz-adv-x="1260" d="M186 0v1434h924v-209h-709v-355h576v-208h-576v-453h740v-209h-955zM512 1526l219 327h287l-338 -327h-168z" />
<glyph unicode="&#xca;" horiz-adv-x="1260" d="M186 0v1434h924v-209h-709v-355h576v-208h-576v-453h740v-209h-955zM275 1526l239 327h246l239 -327h-169l-195 180l-195 -180h-165z" />
<glyph unicode="&#xcb;" horiz-adv-x="1260" d="M186 0v1434h924v-209h-709v-355h576v-208h-576v-453h740v-209h-955zM299 1663q0 28 11 53.5t30 44.5t44.5 30t53.5 11t53 -11t44 -30t30 -44.5t11 -53.5t-11 -53t-30 -43.5t-44 -29.5t-53 -11t-53.5 11t-44.5 29.5t-30 43.5t-11 53zM698 1663q0 28 11 53.5t30.5 44.5 t44.5 30t54 11q27 0 52 -11t44 -30t30 -44.5t11 -53.5t-11 -53t-30 -43.5t-44 -29.5t-52 -11q-29 0 -54 11t-44.5 29.5t-30.5 43.5t-11 53z" />
<glyph unicode="&#xcc;" horiz-adv-x="608" d="M-90 1853h287l219 -327h-168zM197 0v1434h215v-1434h-215z" />
<glyph unicode="&#xcd;" horiz-adv-x="608" d="M197 0v1434h215v-1434h-215zM202 1526l219 327h287l-338 -327h-168z" />
<glyph unicode="&#xce;" horiz-adv-x="608" d="M-55 1512l239 327h246l239 -327h-169l-195 180l-195 -180h-165zM197 0v1434h215v-1434h-215z" />
<glyph unicode="&#xcf;" horiz-adv-x="608" d="M-31 1663q0 28 11 53.5t30 44.5t44.5 30t53.5 11t53 -11t44 -30t30 -44.5t11 -53.5t-11 -53t-30 -43.5t-44 -29.5t-53 -11t-53.5 11t-44.5 29.5t-30 43.5t-11 53zM197 0v1434h215v-1434h-215zM368 1663q0 28 11 53.5t30.5 44.5t44.5 30t54 11q27 0 52 -11t44 -30 t30 -44.5t11 -53.5t-11 -53t-30 -43.5t-44 -29.5t-52 -11q-29 0 -54 11t-44.5 29.5t-30.5 43.5t-11 53z" />
<glyph unicode="&#xd0;" horiz-adv-x="1421" d="M82 647v205h135v582h391q144 0 271.5 -41t222.5 -128t150 -222.5t55 -325.5t-56.5 -325.5t-152.5 -222.5t-222.5 -128t-267.5 -41h-391v647h-135zM426 211h182q127 0 218 36.5t149 103.5t85 160t27 206t-27 206t-85 160t-149 103.5t-218 36.5h-182v-371h260v-205h-260 v-436z" />
<glyph unicode="&#xd1;" horiz-adv-x="1462" d="M186 0v1434h220l661 -1062v1062h209v-1434h-205l-676 1062v-1062h-209zM364 1530q0 68 16.5 120t45 87t68 53t85.5 18q29 0 55.5 -5t54.5 -15.5t60 -27.5t72 -42q22 -12 42.5 -20.5t37.5 -8.5q34 0 53 25t27 88h145q0 -68 -16.5 -120.5t-45 -87.5t-68 -53t-85.5 -18 q-29 0 -55.5 5t-54.5 16t-60 28t-72 42q-21 12 -42 20t-38 8q-34 0 -52.5 -24.5t-26.5 -87.5h-146z" />
<glyph unicode="&#xd2;" horiz-adv-x="1456" d="M117 715q0 167 44.5 304t125.5 234t193.5 150t248.5 53q137 0 249.5 -52.5t192.5 -149t124 -232.5t44 -303q0 -168 -44.5 -304.5t-125.5 -234t-194 -150.5t-250 -53q-136 0 -248 52.5t-192 149t-124 232.5t-44 304zM336 719q0 -122 29.5 -220t82 -166.5t125 -105.5 t158.5 -37q85 0 156.5 36t123 104t80.5 165.5t29 219.5t-30 219.5t-83 166t-125.5 105.5t-158.5 37q-85 0 -156 -36t-122.5 -104t-80 -165t-28.5 -219zM353 1853h287l219 -327h-168z" />
<glyph unicode="&#xd3;" horiz-adv-x="1456" d="M117 715q0 167 44.5 304t125.5 234t193.5 150t248.5 53q137 0 249.5 -52.5t192.5 -149t124 -232.5t44 -303q0 -168 -44.5 -304.5t-125.5 -234t-194 -150.5t-250 -53q-136 0 -248 52.5t-192 149t-124 232.5t-44 304zM336 719q0 -122 29.5 -220t82 -166.5t125 -105.5 t158.5 -37q85 0 156.5 36t123 104t80.5 165.5t29 219.5t-30 219.5t-83 166t-125.5 105.5t-158.5 37q-85 0 -156 -36t-122.5 -104t-80 -165t-28.5 -219zM592 1526l219 327h287l-338 -327h-168z" />
<glyph unicode="&#xd4;" horiz-adv-x="1456" d="M117 715q0 167 44.5 304t125.5 234t193.5 150t248.5 53q137 0 249.5 -52.5t192.5 -149t124 -232.5t44 -303q0 -168 -44.5 -304.5t-125.5 -234t-194 -150.5t-250 -53q-136 0 -248 52.5t-192 149t-124 232.5t-44 304zM336 719q0 -122 29.5 -220t82 -166.5t125 -105.5 t158.5 -37q85 0 156.5 36t123 104t80.5 165.5t29 219.5t-30 219.5t-83 166t-125.5 105.5t-158.5 37q-85 0 -156 -36t-122.5 -104t-80 -165t-28.5 -219zM355 1516l239 327h246l239 -327h-169l-195 180l-195 -180h-165z" />
<glyph unicode="&#xd5;" horiz-adv-x="1456" d="M117 715q0 167 44.5 304t125.5 234t193.5 150t248.5 53q137 0 249.5 -52.5t192.5 -149t124 -232.5t44 -303q0 -168 -44.5 -304.5t-125.5 -234t-194 -150.5t-250 -53q-136 0 -248 52.5t-192 149t-124 232.5t-44 304zM325 1526q0 68 16.5 120t45 87t68 53t85.5 18 q29 0 55.5 -5t54.5 -15.5t60 -27.5t72 -42q22 -12 42.5 -20.5t37.5 -8.5q34 0 53 25t27 88h145q0 -68 -16.5 -120.5t-45 -87.5t-68 -53t-85.5 -18q-29 0 -55.5 5t-54.5 16t-60 28t-72 42q-21 12 -42 20t-38 8q-34 0 -52.5 -24.5t-26.5 -87.5h-146zM336 719q0 -122 29.5 -220 t82 -166.5t125 -105.5t158.5 -37q85 0 156.5 36t123 104t80.5 165.5t29 219.5t-30 219.5t-83 166t-125.5 105.5t-158.5 37q-85 0 -156 -36t-122.5 -104t-80 -165t-28.5 -219z" />
<glyph unicode="&#xd6;" horiz-adv-x="1456" d="M117 715q0 167 44.5 304t125.5 234t193.5 150t248.5 53q137 0 249.5 -52.5t192.5 -149t124 -232.5t44 -303q0 -168 -44.5 -304.5t-125.5 -234t-194 -150.5t-250 -53q-136 0 -248 52.5t-192 149t-124 232.5t-44 304zM336 719q0 -122 29.5 -220t82 -166.5t125 -105.5 t158.5 -37q85 0 156.5 36t123 104t80.5 165.5t29 219.5t-30 219.5t-83 166t-125.5 105.5t-158.5 37q-85 0 -156 -36t-122.5 -104t-80 -165t-28.5 -219zM379 1663q0 28 11 53.5t30 44.5t44.5 30t53.5 11t53 -11t44 -30t30 -44.5t11 -53.5t-11 -53t-30 -43.5t-44 -29.5 t-53 -11t-53.5 11t-44.5 29.5t-30 43.5t-11 53zM778 1663q0 28 11 53.5t30.5 44.5t44.5 30t54 11q27 0 52 -11t44 -30t30 -44.5t11 -53.5t-11 -53t-30 -43.5t-44 -29.5t-52 -11q-29 0 -54 11t-44.5 29.5t-30.5 43.5t-11 53z" />
<glyph unicode="&#xd7;" d="M137 340l371 365l-371 364l133 133l365 -371l364 371l134 -133l-371 -364l371 -365l-134 -133l-364 371l-365 -371z" />
<glyph unicode="&#xd8;" horiz-adv-x="1456" d="M119 717q0 163 42.5 298.5t121.5 233.5t191 152.5t251 54.5q114 0 209 -37l53 117h201l-96 -209q57 -48 102 -112.5t76 -142t47 -167t16 -188.5q0 -163 -42.5 -299t-121.5 -234t-191.5 -152.5t-252.5 -54.5q-121 0 -227 43l-56 -122h-200l100 221q-106 99 -164.5 252 t-58.5 346zM338 717q0 -133 23.5 -228t74.5 -163l414 907q-54 16 -125 16q-94 0 -166 -38t-121 -107.5t-74.5 -168t-25.5 -218.5zM582 207q54 -23 143 -23q94 0 167 38t122 107.5t74.5 168t25.5 219.5q0 136 -27 238t-86 171z" />
<glyph unicode="&#xd9;" horiz-adv-x="1442" d="M176 602v832h215v-826q0 -204 83 -309.5t245 -105.5q169 0 250.5 102t81.5 299v840h215v-836q0 -150 -36 -266t-106 -195t-173 -119.5t-236 -40.5t-234 42t-168.5 122.5t-102 196.5t-34.5 264zM344 1822h287l219 -327h-168z" />
<glyph unicode="&#xda;" horiz-adv-x="1442" d="M176 602v832h215v-826q0 -204 83 -309.5t245 -105.5q169 0 250.5 102t81.5 299v840h215v-836q0 -150 -36 -266t-106 -195t-173 -119.5t-236 -40.5t-234 42t-168.5 122.5t-102 196.5t-34.5 264zM596 1495l219 327h287l-338 -327h-168z" />
<glyph unicode="&#xdb;" horiz-adv-x="1442" d="M176 602v832h215v-826q0 -204 83 -309.5t245 -105.5q169 0 250.5 102t81.5 299v840h215v-836q0 -150 -36 -266t-106 -195t-173 -119.5t-236 -40.5t-234 42t-168.5 122.5t-102 196.5t-34.5 264zM359 1526l239 327h246l239 -327h-169l-195 180l-195 -180h-165z" />
<glyph unicode="&#xdc;" horiz-adv-x="1442" d="M176 602v832h215v-826q0 -204 83 -309.5t245 -105.5q169 0 250.5 102t81.5 299v840h215v-836q0 -150 -36 -266t-106 -195t-173 -119.5t-236 -40.5t-234 42t-168.5 122.5t-102 196.5t-34.5 264zM383 1663q0 28 11 53.5t30 44.5t44.5 30t53.5 11t53 -11t44 -30t30 -44.5 t11 -53.5t-11 -53t-30 -43.5t-44 -29.5t-53 -11t-53.5 11t-44.5 29.5t-30 43.5t-11 53zM782 1663q0 28 11 53.5t30.5 44.5t44.5 30t54 11q27 0 52 -11t44 -30t30 -44.5t11 -53.5t-11 -53t-30 -43.5t-44 -29.5t-52 -11q-29 0 -54 11t-44.5 29.5t-30.5 43.5t-11 53z" />
<glyph unicode="&#xdd;" horiz-adv-x="1411" d="M84 1434h252l371 -657l373 657h247l-514 -867v-567h-215v567zM581 1495l219 327h287l-338 -327h-168z" />
<glyph unicode="&#xde;" horiz-adv-x="1337" d="M186 0v1434h215v-240h385q99 0 183.5 -28.5t146 -84.5t96.5 -140.5t35 -195.5q0 -110 -35 -194t-98 -141t-150 -86t-192 -29h-371v-295h-215zM401 502h379q124 0 186 64t62 179q0 116 -65.5 179t-182.5 63h-379v-485z" />
<glyph unicode="&#xdf;" horiz-adv-x="1190" d="M156 -395v1462q0 109 29.5 188.5t83.5 131t129.5 76t166.5 24.5q87 0 162 -26t130 -75t86.5 -119.5t31.5 -158.5q0 -113 -49.5 -184.5t-132.5 -100.5q51 -11 103 -35.5t94 -67.5t68.5 -106t26.5 -151q0 -123 -36 -210.5t-104 -144t-166 -82.5t-222 -26h-25v193h37 q69 0 125 14.5t95.5 46t61 80t21.5 117.5q0 67 -25 117t-68 82.5t-101 48.5t-123 16h-23v190h31q91 0 145 52t54 145q0 88 -53.5 139t-147.5 51t-144 -57.5t-50 -159.5v-1358z" />
<glyph unicode="&#xe0;" horiz-adv-x="1126" d="M104 340q0 90 32.5 155.5t90 108.5t136 63.5t169.5 20.5q85 0 143 -11.5t97 -29.5v80q0 88 -52 135t-151 47q-83 0 -150 -16t-130 -51l-82 159q77 48 165.5 72.5t202.5 24.5q90 0 164.5 -22t127.5 -67t82.5 -113t29.5 -159v-737h-207v106q-41 -38 -68 -55.5t-56 -33 t-73.5 -28t-97.5 -12.5q-65 0 -131.5 19.5t-120 63t-87.5 112.5t-34 168zM195 1546h287l219 -327h-168zM305 346q0 -48 17 -81.5t43 -54.5t61.5 -31.5t85.5 -10.5q42 0 81 12t73 31.5t61 44t45 49.5v154q-30 14 -54 21.5t-50 13t-62.5 9t-79.5 3.5q-102 0 -161.5 -43 t-59.5 -117z" />
<glyph unicode="&#xe1;" horiz-adv-x="1126" d="M104 340q0 90 32.5 155.5t90 108.5t136 63.5t169.5 20.5q85 0 143 -11.5t97 -29.5v80q0 88 -52 135t-151 47q-83 0 -150 -16t-130 -51l-82 159q77 48 165.5 72.5t202.5 24.5q90 0 164.5 -22t127.5 -67t82.5 -113t29.5 -159v-737h-207v106q-41 -38 -68 -55.5t-56 -33 t-73.5 -28t-97.5 -12.5q-65 0 -131.5 19.5t-120 63t-87.5 112.5t-34 168zM305 346q0 -48 17 -81.5t43 -54.5t61.5 -31.5t85.5 -10.5q42 0 81 12t73 31.5t61 44t45 49.5v154q-30 14 -54 21.5t-50 13t-62.5 9t-79.5 3.5q-102 0 -161.5 -43t-59.5 -117zM444 1219l219 327h287 l-338 -327h-168z" />
<glyph unicode="&#xe2;" horiz-adv-x="1126" d="M104 340q0 90 32.5 155.5t90 108.5t136 63.5t169.5 20.5q85 0 143 -11.5t97 -29.5v80q0 88 -52 135t-151 47q-83 0 -150 -16t-130 -51l-82 159q77 48 165.5 72.5t202.5 24.5q90 0 164.5 -22t127.5 -67t82.5 -113t29.5 -159v-737h-207v106q-41 -38 -68 -55.5t-56 -33 t-73.5 -28t-97.5 -12.5q-65 0 -131.5 19.5t-120 63t-87.5 112.5t-34 168zM207 1211l239 327h246l239 -327h-169l-195 180l-195 -180h-165zM305 346q0 -48 17 -81.5t43 -54.5t61.5 -31.5t85.5 -10.5q42 0 81 12t73 31.5t61 44t45 49.5v154q-30 14 -54 21.5t-50 13t-62.5 9 t-79.5 3.5q-102 0 -161.5 -43t-59.5 -117z" />
<glyph unicode="&#xe3;" horiz-adv-x="1126" d="M104 340q0 90 32.5 155.5t90 108.5t136 63.5t169.5 20.5q85 0 143 -11.5t97 -29.5v80q0 88 -52 135t-151 47q-83 0 -150 -16t-130 -51l-82 159q77 48 165.5 72.5t202.5 24.5q90 0 164.5 -22t127.5 -67t82.5 -113t29.5 -159v-737h-207v106q-41 -38 -68 -55.5t-56 -33 t-73.5 -28t-97.5 -12.5q-65 0 -131.5 19.5t-120 63t-87.5 112.5t-34 168zM178 1219q0 68 16.5 120t45 87t68 53t85.5 18q29 0 55.5 -5t54.5 -15.5t60 -27.5t72 -42q22 -12 42.5 -20.5t37.5 -8.5q34 0 53 25t27 88h145q0 -68 -16.5 -120.5t-45 -87.5t-68 -53t-85.5 -18 q-29 0 -55.5 5t-54.5 16t-60 28t-72 42q-21 12 -42 20t-38 8q-34 0 -52.5 -24.5t-26.5 -87.5h-146zM305 346q0 -48 17 -81.5t43 -54.5t61.5 -31.5t85.5 -10.5q42 0 81 12t73 31.5t61 44t45 49.5v154q-30 14 -54 21.5t-50 13t-62.5 9t-79.5 3.5q-102 0 -161.5 -43t-59.5 -117 z" />
<glyph unicode="&#xe4;" horiz-adv-x="1126" d="M104 340q0 90 32.5 155.5t90 108.5t136 63.5t169.5 20.5q85 0 143 -11.5t97 -29.5v80q0 88 -52 135t-151 47q-83 0 -150 -16t-130 -51l-82 159q77 48 165.5 72.5t202.5 24.5q90 0 164.5 -22t127.5 -67t82.5 -113t29.5 -159v-737h-207v106q-41 -38 -68 -55.5t-56 -33 t-73.5 -28t-97.5 -12.5q-65 0 -131.5 19.5t-120 63t-87.5 112.5t-34 168zM231 1348q0 28 11 53.5t30 44.5t44.5 30t53.5 11t53 -11t44 -30t30 -44.5t11 -53.5t-11 -53t-30 -43.5t-44 -29.5t-53 -11t-53.5 11t-44.5 29.5t-30 43.5t-11 53zM305 346q0 -48 17 -81.5t43 -54.5 t61.5 -31.5t85.5 -10.5q42 0 81 12t73 31.5t61 44t45 49.5v154q-30 14 -54 21.5t-50 13t-62.5 9t-79.5 3.5q-102 0 -161.5 -43t-59.5 -117zM630 1348q0 28 11 53.5t30.5 44.5t44.5 30t54 11q27 0 52 -11t44 -30t30 -44.5t11 -53.5t-11 -53t-30 -43.5t-44 -29.5t-52 -11 q-29 0 -54 11t-44.5 29.5t-30.5 43.5t-11 53z" />
<glyph unicode="&#xe5;" horiz-adv-x="1126" d="M104 340q0 90 32.5 155.5t90 108.5t136 63.5t169.5 20.5q85 0 143 -11.5t97 -29.5v80q0 88 -52 135t-151 47q-83 0 -150 -16t-130 -51l-82 159q77 48 165.5 72.5t202.5 24.5q90 0 164.5 -22t127.5 -67t82.5 -113t29.5 -159v-737h-207v106q-41 -38 -68 -55.5t-56 -33 t-73.5 -28t-97.5 -12.5q-65 0 -131.5 19.5t-120 63t-87.5 112.5t-34 168zM305 346q0 -48 17 -81.5t43 -54.5t61.5 -31.5t85.5 -10.5q42 0 81 12t73 31.5t61 44t45 49.5v154q-30 14 -54 21.5t-50 13t-62.5 9t-79.5 3.5q-102 0 -161.5 -43t-59.5 -117zM311 1475 q0 55 19.5 102.5t54 82t82 54t102.5 19.5t102.5 -19.5t82 -54t54 -82t19.5 -102.5q0 -56 -19.5 -102.5t-54 -81t-82 -53.5t-102.5 -19t-102.5 19t-82 53.5t-54 81t-19.5 102.5zM444 1475q0 -28 9.5 -51t26 -40t39.5 -26.5t50 -9.5t50 9.5t39.5 26.5t26 40t9.5 51 q0 27 -9.5 50.5t-26 40.5t-39.5 26.5t-50 9.5t-50 -9.5t-39.5 -26.5t-26 -40.5t-9.5 -50.5z" />
<glyph unicode="&#xe6;" horiz-adv-x="1741" d="M104 340q0 89 33.5 155t91.5 109.5t137 64.5t171 21q72 0 123.5 -11.5t95.5 -31.5v76q0 85 -45 131.5t-142 46.5q-80 0 -146 -16t-128 -51l-84 163q78 48 165.5 74.5t198.5 26.5q119 0 194.5 -36.5t119.5 -113.5q57 73 132.5 111.5t176.5 38.5q108 0 188.5 -44 t134 -118.5t79.5 -172.5t26 -206q0 -29 -2 -54t-4 -42h-657q4 -72 24 -126t52 -90t74.5 -53.5t90.5 -17.5q34 0 61.5 5.5t51 16.5t46 27t48.5 37l129 -139q-35 -35 -70.5 -61.5t-76.5 -45t-90 -28t-111 -9.5q-105 0 -194.5 46t-149.5 137q-60 -84 -154 -133.5t-213 -49.5 q-65 0 -131.5 19.5t-121.5 63t-89.5 112.5t-34.5 168zM313 346q0 -78 49 -125t152 -47q42 0 78 11.5t67 30.5t55 43t42 48v79.5v70.5q-21 10 -43.5 19t-49.5 15t-60 9.5t-75 3.5q-100 0 -157.5 -43t-57.5 -115zM965 641h452q-3 54 -16 101.5t-39.5 83t-69 56.5t-104.5 21 q-52 0 -91.5 -18.5t-67 -53t-43.5 -83t-21 -107.5z" />
<glyph unicode="&#xe7;" horiz-adv-x="1069" d="M104 535q0 133 36.5 238t100.5 177t150 110t184 38q119 0 212.5 -46.5t168.5 -136.5l-125 -149q-38 38 -65 59.5t-59.5 38.5t-66 25t-71.5 8q-57 0 -103.5 -25t-79.5 -71t-51 -112t-18 -148q0 -79 17 -145.5t49.5 -115t80.5 -75.5t111 -27q38 0 69 8.5t59.5 25t56 41.5 t59.5 58l135 -133q-32 -40 -68.5 -76.5t-82.5 -64t-103.5 -44t-130.5 -16.5q-98 0 -183 40t-147.5 113t-98.5 176t-36 229zM314 -322l45 68q89 -49 180 -49q68 0 99.5 22.5t31.5 57.5q0 31 -18 48t-47 17q-50 0 -82 -30l-74 28l37 185h105l-22 -117q20 8 42.5 13t56.5 5 q26 0 52.5 -8t47.5 -25.5t34.5 -44.5t13.5 -65q0 -48 -20 -82t-54 -55.5t-79.5 -31t-96.5 -9.5q-74 0 -135 19t-117 54z" />
<glyph unicode="&#xe8;" horiz-adv-x="1135" d="M104 537q0 136 34.5 241t96.5 176t149 107.5t191 36.5q115 0 200 -43.5t141 -117t84 -171.5t28 -207q0 -29 -2 -54t-4 -42h-711q9 -78 34 -133.5t61 -91.5t81.5 -53t94.5 -17q35 0 66 6t59.5 18t50.5 24.5t57 37.5l125 -135q-40 -38 -76.5 -61.5t-79 -42t-96.5 -28.5 t-119 -10q-70 0 -131 19.5t-108 51t-84.5 72t-71.5 104t-52 142t-18 171.5zM191 1546h287l219 -327h-168zM315 637h500q-4 55 -19.5 104t-46 86t-77 58.5t-111.5 21.5q-56 0 -98 -18.5t-72 -52.5t-49.5 -83.5t-26.5 -115.5z" />
<glyph unicode="&#xe9;" horiz-adv-x="1135" d="M104 537q0 136 34.5 241t96.5 176t149 107.5t191 36.5q115 0 200 -43.5t141 -117t84 -171.5t28 -207q0 -29 -2 -54t-4 -42h-711q9 -78 34 -133.5t61 -91.5t81.5 -53t94.5 -17q35 0 66 6t59.5 18t50.5 24.5t57 37.5l125 -135q-40 -38 -76.5 -61.5t-79 -42t-96.5 -28.5 t-119 -10q-70 0 -131 19.5t-108 51t-84.5 72t-71.5 104t-52 142t-18 171.5zM315 637h500q-4 55 -19.5 104t-46 86t-77 58.5t-111.5 21.5q-56 0 -98 -18.5t-72 -52.5t-49.5 -83.5t-26.5 -115.5zM440 1219l219 327h287l-338 -327h-168z" />
<glyph unicode="&#xea;" horiz-adv-x="1135" d="M104 537q0 136 34.5 241t96.5 176t149 107.5t191 36.5q115 0 200 -43.5t141 -117t84 -171.5t28 -207q0 -29 -2 -54t-4 -42h-711q9 -78 34 -133.5t61 -91.5t81.5 -53t94.5 -17q35 0 66 6t59.5 18t50.5 24.5t57 37.5l125 -135q-40 -38 -76.5 -61.5t-79 -42t-96.5 -28.5 t-119 -10q-70 0 -131 19.5t-108 51t-84.5 72t-71.5 104t-52 142t-18 171.5zM203 1201l239 327h246l239 -327h-169l-195 180l-195 -180h-165zM315 637h500q-4 55 -19.5 104t-46 86t-77 58.5t-111.5 21.5q-56 0 -98 -18.5t-72 -52.5t-49.5 -83.5t-26.5 -115.5z" />
<glyph unicode="&#xeb;" horiz-adv-x="1135" d="M104 537q0 136 34.5 241t96.5 176t149 107.5t191 36.5q115 0 200 -43.5t141 -117t84 -171.5t28 -207q0 -29 -2 -54t-4 -42h-711q9 -78 34 -133.5t61 -91.5t81.5 -53t94.5 -17q35 0 66 6t59.5 18t50.5 24.5t57 37.5l125 -135q-40 -38 -76.5 -61.5t-79 -42t-96.5 -28.5 t-119 -10q-70 0 -131 19.5t-108 51t-84.5 72t-71.5 104t-52 142t-18 171.5zM227 1348q0 28 11 53.5t30 44.5t44.5 30t53.5 11t53 -11t44 -30t30 -44.5t11 -53.5t-11 -53t-30 -43.5t-44 -29.5t-53 -11t-53.5 11t-44.5 29.5t-30 43.5t-11 53zM315 637h500q-4 55 -19.5 104 t-46 86t-77 58.5t-111.5 21.5q-56 0 -98 -18.5t-72 -52.5t-49.5 -83.5t-26.5 -115.5zM626 1348q0 28 11 53.5t30.5 44.5t44.5 30t54 11q27 0 52 -11t44 -30t30 -44.5t11 -53.5t-11 -53t-30 -43.5t-44 -29.5t-52 -11q-29 0 -54 11t-44.5 29.5t-30.5 43.5t-11 53z" />
<glyph unicode="&#xec;" horiz-adv-x="543" d="M-123 1546h287l219 -327h-168zM164 0v1075h211v-1075h-211z" />
<glyph unicode="&#xed;" horiz-adv-x="543" d="M164 0v1075h211v-1075h-211zM172 1219l219 327h287l-338 -327h-168z" />
<glyph unicode="&#xee;" horiz-adv-x="543" d="M-90 1190l239 327h246l239 -327h-169l-195 180l-195 -180h-165zM164 0v1075h211v-1075h-211z" />
<glyph unicode="&#xef;" horiz-adv-x="543" d="M-68 1338q0 28 11 53.5t30 44.5t44.5 30t53.5 11t53 -11t44 -30t30 -44.5t11 -53.5t-11 -53t-30 -43.5t-44 -29.5t-53 -11t-53.5 11t-44.5 29.5t-30 43.5t-11 53zM164 0v1075h211v-1075h-211zM331 1338q0 28 11 53.5t30.5 44.5t44.5 30t54 11q27 0 52 -11t44 -30 t30 -44.5t11 -53.5t-11 -53t-30 -43.5t-44 -29.5t-52 -11q-29 0 -54 11t-44.5 29.5t-30.5 43.5t-11 53z" />
<glyph unicode="&#xf0;" horiz-adv-x="1167" d="M104 487q0 124 35.5 216t96 153.5t139.5 92t166 30.5q93 0 176 -33t139 -102q-22 93 -66.5 173t-115.5 140l-103 -106l-120 106l79 84q-75 35 -174 41v174q88 -5 164 -25.5t139 -54.5l76 80l121 -106l-61 -66q71 -64 122 -144.5t83.5 -170.5t47.5 -185t15 -188 q0 -166 -37 -283.5t-102 -192t-154 -109t-192 -34.5q-102 0 -188.5 35.5t-150 101.5t-99.5 160.5t-36 212.5zM317 494q0 -73 19.5 -131.5t55 -99.5t85 -63t109.5 -22t108.5 23.5t83 65t53.5 98t19 122.5q0 78 -21 136.5t-57.5 97.5t-87 58.5t-109.5 19.5q-54 0 -101.5 -19.5 t-82 -58t-54.5 -95.5t-20 -132z" />
<glyph unicode="&#xf1;" horiz-adv-x="1167" d="M156 0v1075h211v-102q20 29 49 52.5t64 39.5t75 24.5t82 8.5q97 0 168.5 -31.5t119 -90.5t71.5 -149t24 -211v-616h-211v608q0 146 -52 220.5t-169 74.5q-51 0 -94 -18t-72 -56t-42 -89.5t-13 -110.5v-629h-211zM190 1219q0 68 16.5 120t45 87t68 53t85.5 18 q29 0 55.5 -5t54.5 -15.5t60 -27.5t72 -42q22 -12 42.5 -20.5t37.5 -8.5q34 0 53 25t27 88h145q0 -68 -16.5 -120.5t-45 -87.5t-68 -53t-85.5 -18q-29 0 -55.5 5t-54.5 16t-60 28t-72 42q-21 12 -42 20t-38 8q-34 0 -52.5 -24.5t-26.5 -87.5h-146z" />
<glyph unicode="&#xf2;" horiz-adv-x="1167" d="M104 537q0 132 37 236t101.5 176.5t152 110.5t189.5 38q103 0 190.5 -39.5t151.5 -112t100.5 -175t36.5 -228.5q0 -134 -37 -239t-102 -178t-154 -111t-192 -38q-102 0 -188.5 40t-150 113.5t-99.5 177t-36 229.5zM203 1546h287l219 -327h-168zM317 543q0 -89 19.5 -157 t55 -114t85 -70t109.5 -24t108.5 28.5t83 77t53.5 114t19 139.5q0 82 -19 148.5t-54.5 113.5t-86.5 72.5t-115 25.5q-60 0 -107.5 -25.5t-81 -72t-51.5 -111.5t-18 -145z" />
<glyph unicode="&#xf3;" horiz-adv-x="1167" d="M104 537q0 132 37 236t101.5 176.5t152 110.5t189.5 38q103 0 190.5 -39.5t151.5 -112t100.5 -175t36.5 -228.5q0 -134 -37 -239t-102 -178t-154 -111t-192 -38q-102 0 -188.5 40t-150 113.5t-99.5 177t-36 229.5zM317 543q0 -89 19.5 -157t55 -114t85 -70t109.5 -24 t108.5 28.5t83 77t53.5 114t19 139.5q0 82 -19 148.5t-54.5 113.5t-86.5 72.5t-115 25.5q-60 0 -107.5 -25.5t-81 -72t-51.5 -111.5t-18 -145zM452 1219l219 327h287l-338 -327h-168z" />
<glyph unicode="&#xf4;" horiz-adv-x="1167" d="M104 537q0 132 37 236t101.5 176.5t152 110.5t189.5 38q103 0 190.5 -39.5t151.5 -112t100.5 -175t36.5 -228.5q0 -134 -37 -239t-102 -178t-154 -111t-192 -38q-102 0 -188.5 40t-150 113.5t-99.5 177t-36 229.5zM216 1201l239 327h246l239 -327h-169l-195 180 l-195 -180h-165zM317 543q0 -89 19.5 -157t55 -114t85 -70t109.5 -24t108.5 28.5t83 77t53.5 114t19 139.5q0 82 -19 148.5t-54.5 113.5t-86.5 72.5t-115 25.5q-60 0 -107.5 -25.5t-81 -72t-51.5 -111.5t-18 -145z" />
<glyph unicode="&#xf5;" horiz-adv-x="1167" d="M104 537q0 132 37 236t101.5 176.5t152 110.5t189.5 38q103 0 190.5 -39.5t151.5 -112t100.5 -175t36.5 -228.5q0 -134 -37 -239t-102 -178t-154 -111t-192 -38q-102 0 -188.5 40t-150 113.5t-99.5 177t-36 229.5zM186 1219q0 68 16.5 120t45 87t68 53t85.5 18 q29 0 55.5 -5t54.5 -15.5t60 -27.5t72 -42q22 -12 42.5 -20.5t37.5 -8.5q34 0 53 25t27 88h145q0 -68 -16.5 -120.5t-45 -87.5t-68 -53t-85.5 -18q-29 0 -55.5 5t-54.5 16t-60 28t-72 42q-21 12 -42 20t-38 8q-34 0 -52.5 -24.5t-26.5 -87.5h-146zM317 543q0 -89 19.5 -157 t55 -114t85 -70t109.5 -24t108.5 28.5t83 77t53.5 114t19 139.5q0 82 -19 148.5t-54.5 113.5t-86.5 72.5t-115 25.5q-60 0 -107.5 -25.5t-81 -72t-51.5 -111.5t-18 -145z" />
<glyph unicode="&#xf6;" horiz-adv-x="1167" d="M104 537q0 132 37 236t101.5 176.5t152 110.5t189.5 38q103 0 190.5 -39.5t151.5 -112t100.5 -175t36.5 -228.5q0 -134 -37 -239t-102 -178t-154 -111t-192 -38q-102 0 -188.5 40t-150 113.5t-99.5 177t-36 229.5zM240 1338q0 28 11 53.5t30 44.5t44.5 30t53.5 11t53 -11 t44 -30t30 -44.5t11 -53.5t-11 -53t-30 -43.5t-44 -29.5t-53 -11t-53.5 11t-44.5 29.5t-30 43.5t-11 53zM317 543q0 -89 19.5 -157t55 -114t85 -70t109.5 -24t108.5 28.5t83 77t53.5 114t19 139.5q0 82 -19 148.5t-54.5 113.5t-86.5 72.5t-115 25.5q-60 0 -107.5 -25.5 t-81 -72t-51.5 -111.5t-18 -145zM639 1338q0 28 11 53.5t30.5 44.5t44.5 30t54 11q27 0 52 -11t44 -30t30 -44.5t11 -53.5t-11 -53t-30 -43.5t-44 -29.5t-52 -11q-29 0 -54 11t-44.5 29.5t-30.5 43.5t-11 53z" />
<glyph unicode="&#xf7;" d="M141 610v189h989v-189h-989zM485 272q0 31 12 59t32.5 49t47.5 33.5t58 12.5q30 0 57 -12.5t47.5 -33.5t32.5 -49t12 -59q0 -32 -12 -59t-32.5 -47t-47.5 -31.5t-57 -11.5q-32 0 -59 11.5t-47.5 31.5t-32 47t-11.5 59zM485 1133q0 31 12 59t32.5 49t47.5 33t58 12 q30 0 57 -12t47.5 -33t32.5 -49t12 -59q0 -32 -12 -59t-32.5 -47.5t-47.5 -32t-57 -11.5q-32 0 -59 11.5t-47.5 32t-32 47.5t-11.5 59z" />
<glyph unicode="&#xf8;" horiz-adv-x="1167" d="M104 537q0 132 37 236t101.5 176.5t152 110.5t189.5 38q43 0 84 -7.5t80 -21.5l53 109h188l-98 -197q80 -72 126 -184t46 -254q0 -134 -37 -239t-102 -178t-154 -111t-192 -38q-77 0 -170 33l-58 -112h-188l102 206q-74 75 -117 184t-43 249zM315 543q0 -81 12 -140 t35 -104l300 598q-41 12 -87 12q-62 0 -110.5 -26t-81.5 -74t-50.5 -115.5t-17.5 -150.5zM492 182q48 -16 94 -16q63 0 112.5 29t83.5 79.5t52 118t18 144.5q0 87 -15 148t-40 106z" />
<glyph unicode="&#xf9;" horiz-adv-x="1167" d="M147 459v616h211v-608q0 -148 52.5 -221.5t169.5 -73.5q106 0 163.5 71.5t57.5 202.5v629h211v-1075h-211v102q-40 -55 -112 -90t-159 -35q-188 0 -285.5 121t-97.5 361zM205 1546h287l219 -327h-168z" />
<glyph unicode="&#xfa;" horiz-adv-x="1167" d="M147 459v616h211v-608q0 -148 52.5 -221.5t169.5 -73.5q106 0 163.5 71.5t57.5 202.5v629h211v-1075h-211v102q-40 -55 -112 -90t-159 -35q-188 0 -285.5 121t-97.5 361zM454 1219l219 327h287l-338 -327h-168z" />
<glyph unicode="&#xfb;" horiz-adv-x="1167" d="M147 459v616h211v-608q0 -148 52.5 -221.5t169.5 -73.5q106 0 163.5 71.5t57.5 202.5v629h211v-1075h-211v102q-40 -55 -112 -90t-159 -35q-188 0 -285.5 121t-97.5 361zM218 1219l239 327h246l239 -327h-169l-195 180l-195 -180h-165z" />
<glyph unicode="&#xfc;" horiz-adv-x="1167" d="M147 459v616h211v-608q0 -148 52.5 -221.5t169.5 -73.5q106 0 163.5 71.5t57.5 202.5v629h211v-1075h-211v102q-40 -55 -112 -90t-159 -35q-188 0 -285.5 121t-97.5 361zM242 1356q0 28 11 53.5t30 44.5t44.5 30t53.5 11t53 -11t44 -30t30 -44.5t11 -53.5t-11 -53 t-30 -43.5t-44 -29.5t-53 -11t-53.5 11t-44.5 29.5t-30 43.5t-11 53zM641 1356q0 28 11 53.5t30.5 44.5t44.5 30t54 11q27 0 52 -11t44 -30t30 -44.5t11 -53.5t-11 -53t-30 -43.5t-44 -29.5t-52 -11q-29 0 -54 11t-44.5 29.5t-30.5 43.5t-11 53z" />
<glyph unicode="&#xfd;" horiz-adv-x="1139" d="M68 1075h231l270 -810l279 810h223l-541 -1454h-223l156 399zM442 1201l219 327h287l-338 -327h-168z" />
<glyph unicode="&#xfe;" horiz-adv-x="1167" d="M156 -395v1779l209 109v-520q58 54 126.5 89.5t153.5 35.5q87 0 162.5 -32.5t131.5 -102.5t88 -179.5t32 -263.5q0 -138 -35 -240t-93.5 -169.5t-135 -100.5t-160.5 -33q-41 0 -80 10t-74 27t-64.5 39.5t-51.5 46.5v-387zM362 313q18 -24 44.5 -49t59.5 -45.5t70.5 -33.5 t77.5 -13q115 0 174.5 85.5t59.5 256.5q0 202 -62.5 295.5t-179.5 93.5q-38 0 -72.5 -11.5t-66 -30.5t-58 -44t-47.5 -51v-453z" />
<glyph unicode="&#xff;" horiz-adv-x="1139" d="M68 1075h231l270 -810l279 810h223l-541 -1454h-223l156 399zM229 1338q0 28 11 53.5t30 44.5t44.5 30t53.5 11t53 -11t44 -30t30 -44.5t11 -53.5t-11 -53t-30 -43.5t-44 -29.5t-53 -11t-53.5 11t-44.5 29.5t-30 43.5t-11 53zM628 1338q0 28 11 53.5t30.5 44.5t44.5 30 t54 11q27 0 52 -11t44 -30t30 -44.5t11 -53.5t-11 -53t-30 -43.5t-44 -29.5t-52 -11q-29 0 -54 11t-44.5 29.5t-30.5 43.5t-11 53z" />
<glyph unicode="&#x152;" horiz-adv-x="2169" d="M119 717q0 163 42.5 298.5t121.5 233.5t191 152.5t251 54.5q61 0 120.5 -13.5t111 -39t94 -61t69.5 -78.5v170h899v-209h-708v-355h573v-208h-573v-453h739v-209h-930v170q-33 -48 -78 -84.5t-96.5 -60.5t-108 -36t-112.5 -12q-139 0 -251 54.5t-191 152.5t-121.5 234 t-42.5 299zM338 717q0 -121 25.5 -218t74.5 -165t121 -104.5t166 -36.5t167 36.5t122 104.5t74.5 165t25.5 218q0 120 -25.5 217t-74.5 165.5t-122 105t-167 36.5t-166 -36.5t-121 -105t-74.5 -165.5t-25.5 -217z" />
<glyph unicode="&#x153;" horiz-adv-x="1876" d="M104 537q0 132 37 236t101.5 176.5t152 110.5t189.5 38q56 0 109.5 -14.5t100.5 -41t86 -64t66 -83.5q59 97 153.5 150t209.5 53q114 0 199 -44t141.5 -119t84 -174t27.5 -208q0 -29 -2 -52t-4 -40h-706q8 -76 32.5 -130.5t60.5 -89t80.5 -51t92.5 -16.5q69 0 124.5 22 t106.5 64l129 -143q-71 -69 -159.5 -104.5t-212.5 -35.5q-53 0 -104.5 14t-98.5 40.5t-86 64.5t-66 86q-30 -48 -70.5 -86t-88 -64.5t-101 -40.5t-110.5 -14q-102 0 -188.5 40t-150 113.5t-99.5 177t-36 229.5zM317 543q0 -89 19.5 -157t55 -114t85 -70t109.5 -24 t108.5 28.5t83 77t53.5 114t19 139.5q0 82 -19 148.5t-54.5 113.5t-86.5 72.5t-115 25.5q-60 0 -107.5 -25.5t-81 -72t-51.5 -111.5t-18 -145zM1051 641h491q-3 54 -19 101.5t-46 83t-75.5 56.5t-107.5 21q-105 0 -165.5 -67t-77.5 -195z" />
<glyph unicode="&#x178;" horiz-adv-x="1411" d="M84 1434h252l371 -657l373 657h247l-514 -867v-567h-215v567zM369 1643q0 28 11 53.5t30 44.5t44.5 30t53.5 11t53 -11t44 -30t30 -44.5t11 -53.5t-11 -53t-30 -43.5t-44 -29.5t-53 -11t-53.5 11t-44.5 29.5t-30 43.5t-11 53zM768 1643q0 28 11 53.5t30.5 44.5t44.5 30 t54 11q27 0 52 -11t44 -30t30 -44.5t11 -53.5t-11 -53t-30 -43.5t-44 -29.5t-52 -11q-29 0 -54 11t-44.5 29.5t-30.5 43.5t-11 53z" />
<glyph unicode="&#x2c6;" horiz-adv-x="1024" d="M150 1219l239 327h246l239 -327h-169l-195 180l-195 -180h-165z" />
<glyph unicode="&#x2dc;" horiz-adv-x="1024" d="M137 1219q0 68 16.5 120t45 87t68 53t85.5 18q29 0 55.5 -5t54.5 -15.5t60 -27.5t72 -42q22 -12 42.5 -20.5t37.5 -8.5q34 0 53 25t27 88h145q0 -68 -16.5 -120.5t-45 -87.5t-68 -53t-85.5 -18q-29 0 -55.5 5t-54.5 16t-60 28t-72 42q-21 12 -42 20t-38 8 q-34 0 -52.5 -24.5t-26.5 -87.5h-146z" />
<glyph unicode="&#x2000;" horiz-adv-x="926" />
<glyph unicode="&#x2001;" horiz-adv-x="1853" />
<glyph unicode="&#x2002;" horiz-adv-x="926" />
<glyph unicode="&#x2003;" horiz-adv-x="1853" />
<glyph unicode="&#x2004;" horiz-adv-x="617" />
<glyph unicode="&#x2005;" horiz-adv-x="463" />
<glyph unicode="&#x2006;" horiz-adv-x="308" />
<glyph unicode="&#x2007;" horiz-adv-x="308" />
<glyph unicode="&#x2008;" horiz-adv-x="231" />
<glyph unicode="&#x2009;" horiz-adv-x="370" />
<glyph unicode="&#x200a;" horiz-adv-x="102" />
<glyph unicode="&#x2010;" horiz-adv-x="737" d="M113 645v209h512v-209h-512z" />
<glyph unicode="&#x2011;" horiz-adv-x="737" d="M113 645v209h512v-209h-512z" />
<glyph unicode="&#x2012;" horiz-adv-x="737" d="M113 645v209h512v-209h-512z" />
<glyph unicode="&#x2013;" horiz-adv-x="942" d="M113 651v197h716v-197h-716z" />
<glyph unicode="&#x2014;" d="M113 651v197h1044v-197h-1044z" />
<glyph unicode="&#x2018;" horiz-adv-x="543" d="M113 920l155 514h142l-29 -514h-268z" />
<glyph unicode="&#x2019;" horiz-adv-x="543" d="M133 920l29 514h268l-156 -514h-141z" />
<glyph unicode="&#x201a;" horiz-adv-x="543" d="M133 -229l29 514h268l-156 -514h-141z" />
<glyph unicode="&#x201c;" horiz-adv-x="1024" d="M113 920l155 514h142l-29 -514h-268zM594 920l156 514h141l-29 -514h-268z" />
<glyph unicode="&#x201d;" horiz-adv-x="1024" d="M133 920l29 514h268l-156 -514h-141zM614 920l29 514h268l-155 -514h-142z" />
<glyph unicode="&#x201e;" horiz-adv-x="1024" d="M133 -229l29 514h268l-156 -514h-141zM614 -229l29 514h268l-155 -514h-142z" />
<glyph unicode="&#x2022;" horiz-adv-x="952" d="M125 317v871l759 -436z" />
<glyph unicode="&#x2026;" horiz-adv-x="1561" d="M98 139q0 33 13 62.5t35 52t51.5 36t62.5 13.5t62.5 -13.5t51.5 -36t35 -52t13 -62.5t-13 -62.5t-35 -51.5t-51.5 -35t-62.5 -13t-62.5 13t-51.5 35t-35 51.5t-13 62.5zM618 139q0 33 13 62.5t35 52t51.5 36t62.5 13.5t62.5 -13.5t51.5 -36t35 -52t13 -62.5t-13 -62.5 t-35 -51.5t-51.5 -35t-62.5 -13t-62.5 13t-51.5 35t-35 51.5t-13 62.5zM1139 139q0 33 13 62.5t34.5 52t51 36t62.5 13.5t62.5 -13.5t51.5 -36t35 -52t13 -62.5t-13 -62.5t-35 -51.5t-51.5 -35t-62.5 -13t-62.5 13t-51 35t-34.5 51.5t-13 62.5z" />
<glyph unicode="&#x202f;" horiz-adv-x="370" />
<glyph unicode="&#x2039;" horiz-adv-x="750" d="M61 537l379 538h228l-369 -536l369 -539h-228z" />
<glyph unicode="&#x203a;" horiz-adv-x="750" d="M82 0l369 537l-369 538h227l379 -536l-379 -539h-227z" />
<glyph unicode="&#x205f;" horiz-adv-x="463" />
<glyph unicode="&#x20ac;" d="M78 498v147h133q-1 54 -1 77.5t1 76.5h-133v145h149q44 252 173.5 382t328.5 130q83 0 146 -18t112.5 -53t88 -87.5t73.5 -121.5l-176 -93q-26 54 -50.5 90.5t-53 58t-63 31t-81.5 9.5q-51 0 -97 -18t-83.5 -57t-64.5 -101.5t-42 -151.5h432v-145h-446q-2 -20 -2 -40v-40 v-38.5t2 -35.5h446v-147h-432q15 -105 47.5 -170.5t73 -102t85 -50t85.5 -13.5q47 0 82.5 11.5t65.5 34.5t56.5 59t55.5 85l164 -96q-36 -62 -76.5 -113t-91.5 -88t-115 -57.5t-147 -20.5q-102 0 -185.5 34.5t-146.5 101.5t-104.5 163.5t-59.5 221.5h-149z" />
<glyph unicode="&#x2122;" horiz-adv-x="1577" d="M39 1298v136h596v-136h-229v-671h-138v671h-229zM768 627v807h137l225 -519l222 519h139v-807h-131v512l-234 -537l-227 538v-513h-131z" />
<glyph unicode="&#x25fc;" horiz-adv-x="1075" d="M0 0v1075h1075v-1075h-1075z" />
</font>
</defs>
</svg>
