<?xml version="1.0" standalone="no"?>
<!DOCTYPE svg PUBLIC "-//W3C//DTD SVG 1.1//EN" "http://www.w3.org/Graphics/SVG/1.1/DTD/svg11.dtd" >
<svg xmlns="http://www.w3.org/2000/svg" xmlns:xlink="http://www.w3.org/1999/xlink" version="1.1">
<metadata></metadata>
<defs>
<font id="eyinterstateitalic" horiz-adv-x="1270" >
<font-face units-per-em="2048" ascent="1638" descent="-410" />
<missing-glyph horiz-adv-x="555" />
<glyph unicode="&#xfb01;" horiz-adv-x="1276" d="M131 0l156 879h-140l35 196h140l24 137q13 76 39 129t63 85t86.5 46.5t112.5 14.5q28 0 54 -3t47 -8t38 -11t31 -13l-31 -176q-20 11 -49.5 19t-66.5 8q-57 0 -82 -27.5t-35 -85.5l-21 -115h191l-35 -196h-190l-156 -879h-211zM805 0l188 1075h211l-188 -1075h-211z M1010 1350q0 28 10.5 53t28.5 43.5t42 29.5t52 11q27 0 50.5 -11t41.5 -29.5t28.5 -43.5t10.5 -53t-10.5 -52.5t-28.5 -43t-41.5 -29.5t-50.5 -11q-28 0 -52 11t-42 29.5t-28.5 43t-10.5 52.5z" />
<glyph unicode="&#xfb02;" horiz-adv-x="1276" d="M131 0l156 879h-140l35 196h140l24 137q13 76 39 129t63 85t86.5 46.5t112.5 14.5q28 0 54 -3t47 -8t38 -11t31 -13l-31 -176q-20 11 -49.5 19t-66.5 8q-57 0 -82 -27.5t-35 -85.5l-21 -115h191l-35 -196h-190l-156 -879h-211zM805 0l244 1382l231 111l-264 -1493h-211z " />
<glyph horiz-adv-x="0" />
<glyph unicode="&#xd;" horiz-adv-x="594" />
<glyph unicode=" "  horiz-adv-x="555" />
<glyph unicode="&#x09;" horiz-adv-x="555" />
<glyph unicode="&#xa0;" horiz-adv-x="555" />
<glyph unicode="!" horiz-adv-x="610" d="M78 131q0 31 12 59.5t33 50t48.5 34t59.5 12.5q31 0 59 -12.5t49 -34t33.5 -50t12.5 -59.5q0 -32 -12.5 -60t-33.5 -49t-49 -33t-59 -12q-32 0 -59.5 12t-48.5 33t-33 49t-12 60zM217 414l27 383l112 637h217l-112 -637l-109 -383h-135z" />
<glyph unicode="&#x22;" horiz-adv-x="1004" d="M258 764l67 670h256l-170 -670h-153zM710 764l68 670h256l-170 -670h-154z" />
<glyph unicode="#" d="M79 338l31 172h184l72 416h-184l33 172h184l57 336h178l-57 -336h270l60 336h178l-57 -336h184l-33 -172h-184l-72 -416h184l-30 -172h-185l-59 -338h-178l59 338h-270l-62 -338h-178l60 338h-185zM469 508h278l74 420h-279z" />
<glyph unicode="$" d="M67 190l156 150q65 -77 148.5 -118t188.5 -42q64 0 115.5 14.5t88 43t56 70t19.5 95.5q0 29 -8.5 57.5t-31.5 55.5t-63.5 53t-103.5 51q-100 39 -170.5 83t-115.5 95.5t-65.5 110.5t-20.5 127q0 91 32 161.5t88 120.5t131 79t162 37l35 194h199l-35 -201q98 -17 171 -55 t134 -98l-149 -150q-24 25 -53 48t-65.5 41t-82 28.5t-101.5 10.5q-69 0 -116 -14.5t-75.5 -40t-41 -60.5t-12.5 -76q0 -37 9 -67.5t31 -56.5t58.5 -49t90.5 -44q105 -42 180 -85.5t122.5 -93t69.5 -108t22 -129.5q0 -96 -32 -171t-90.5 -129t-140 -86t-179.5 -42l-35 -195 h-198l34 199q-118 17 -204.5 67t-151.5 119z" />
<glyph unicode="%" d="M128 889.5q-4 77.5 13 175.5q18 99 48 172.5t69 122t85.5 72.5t96.5 24q57 0 99 -28t65.5 -81.5t28 -131.5t-12.5 -177q-18 -98 -48 -171.5t-69.5 -122.5t-87 -73t-98.5 -24q-58 0 -99 28.5t-63.5 82.5t-26.5 131.5zM133 0l897 1434h131l-901 -1434h-127zM269 920.5 q-2 -54.5 5.5 -87t22.5 -46t36 -13.5q22 0 41.5 11.5t37 42.5t33 84.5t30.5 136.5q15 82 17.5 136t-5 86t-23 45t-36.5 13q-22 0 -41.5 -11.5t-37 -42t-33 -83.5t-30.5 -135t-17 -136.5zM655 218.5q-4 77.5 14 176.5q18 98 47.5 171.5t68.5 122t85.5 73t97.5 24.5 q58 0 99.5 -28.5t65 -82t27.5 -131t-14 -175.5q-17 -99 -46.5 -173t-69 -122.5t-86.5 -72.5t-99 -24q-57 0 -98.5 28t-64.5 82t-27 131.5zM797 250.5q-2 -54.5 5.5 -87t22.5 -46t35 -13.5q21 0 40.5 12t37.5 42.5t34 83.5t31 135t17 136.5t-5.5 86.5t-22.5 45.5t-36 13.5 t-41 -11.5t-38 -42t-34 -83.5t-30 -135t-16 -136.5z" />
<glyph unicode="&#x26;" horiz-adv-x="1384" d="M80 322q0 84 27 155t77 129.5t121 107t160 87.5l-31 49q-51 81 -65.5 138t-14.5 124q0 79 30.5 142.5t84.5 108.5t128.5 69t162.5 24q82 0 147.5 -20.5t111 -57t69.5 -88t24 -114.5q0 -77 -30.5 -141.5t-81 -118.5t-115 -98.5t-131.5 -82.5l192 -307q37 51 72 111.5 t67 126.5l168 -68q-44 -96 -95.5 -179.5t-110.5 -154.5l161 -264h-235l-76 117q-88 -68 -187 -104t-210 -36q-96 0 -173.5 23.5t-132.5 68t-84.5 108.5t-29.5 145zM295 356q0 -81 63.5 -133.5t180.5 -52.5q71 0 135.5 28t126.5 74l-242 379q-63 -26 -112 -57t-84.5 -70 t-51.5 -80.5t-16 -87.5zM565 1112q0 -33 12 -72t39 -84l46 -73q37 21 78 45.5t75.5 55.5t57 70t22.5 89q0 63 -34.5 96t-100.5 33q-43 0 -79 -12.5t-61.5 -34t-40 -50.5t-14.5 -63z" />
<glyph unicode="'" horiz-adv-x="551" d="M253 764l66 670h268l-168 -670h-166z" />
<glyph unicode="(" horiz-adv-x="723" d="M-19 510q0 122 28.5 227t77.5 195.5t114.5 168t139.5 143.5t152 123t153 106l97 -113q-111 -81 -206.5 -169t-166.5 -192.5t-111.5 -228t-40.5 -274.5q0 -102 20 -188.5t54.5 -162.5t80.5 -143t97 -131l-118 -94q-62 59 -128 135.5t-120 168.5t-88.5 199.5t-34.5 229.5z " />
<glyph unicode=")" horiz-adv-x="723" d="M-19 -111q111 81 206.5 169t166 192.5t111 228t40.5 275.5q0 102 -20 188.5t-54.5 162t-80 142.5t-97.5 131l119 95q62 -59 128 -135.5t120 -169t88.5 -200.5t34.5 -229q0 -122 -28.5 -227t-77.5 -195.5t-114.5 -167.5t-139.5 -143.5t-152.5 -123t-153.5 -105.5z" />
<glyph unicode="*" horiz-adv-x="1024" d="M223 965l248 110l-248 113l80 135l221 -162l-24 273h155l-28 -271l221 160l80 -135l-254 -113l254 -110l-80 -138l-221 160l28 -272h-155l24 274l-221 -162z" />
<glyph unicode="+" d="M153 602v205h383v397h215v-397h381v-205h-381v-397h-215v397h-383z" />
<glyph unicode="," horiz-adv-x="635" d="M38 -258l127 543h269l-250 -543h-146z" />
<glyph unicode="-" horiz-adv-x="737" d="M131 645l37 209h512l-37 -209h-512z" />
<glyph unicode="." horiz-adv-x="635" d="M176 139q0 34 12.5 63.5t34 52t51 35.5t63.5 13t63.5 -13t51.5 -35.5t34.5 -52t12.5 -63.5t-12.5 -63.5t-34.5 -51.5t-51.5 -34.5t-63.5 -12.5t-63.5 12.5t-51 34.5t-34 51.5t-12.5 63.5z" />
<glyph unicode="/" horiz-adv-x="913" d="M-94 -184l956 1802h211l-956 -1802h-211z" />
<glyph unicode="0" d="M89 540q0 200 48.5 368.5t134.5 290.5t205 189.5t259 67.5q113 0 201 -36t148.5 -106.5t92.5 -174.5t32 -238q0 -203 -48 -372.5t-134.5 -292t-206.5 -191t-263 -68.5q-110 0 -197 36.5t-147.5 108t-92.5 176.5t-32 242zM315 557q0 -88 15 -158t47.5 -119.5t83 -76 t122.5 -26.5q89 0 163 54t126.5 148.5t81.5 223t29 277.5q0 86 -14.5 155.5t-47 119t-83 76.5t-122.5 26q-90 0 -163.5 -53.5t-126 -147t-82 -221.5t-29.5 -278z" />
<glyph unicode="1" d="M167 0l33 178h284l160 922h-287l27 149q75 4 133.5 15t103 32.5t75 55t50.5 82.5h175l-222 -1256h299l-32 -178h-799z" />
<glyph unicode="2" d="M29 0q28 151 80 265t126 203.5t169.5 160t211.5 132.5q99 53 163 93.5t101 77.5t51.5 74.5t14.5 85.5q0 82 -62.5 126.5t-175.5 44.5q-97 0 -184 -34t-165 -93l-106 158q98 80 217.5 121t270.5 41q99 0 178 -23t134.5 -66.5t85 -106.5t29.5 -143q0 -78 -22.5 -142.5 t-73.5 -123.5t-132.5 -116.5t-200.5 -119.5q-110 -57 -184 -109.5t-122.5 -102.5t-75.5 -100t-42 -108h728l-35 -195h-979z" />
<glyph unicode="3" d="M50 208l164 129q59 -82 136.5 -123.5t199.5 -41.5q77 0 136 20.5t99.5 58t61 90t20.5 117.5q0 94 -61 145t-186 51h-129l33 186h127q66 0 117 17.5t86.5 49.5t53.5 76.5t18 98.5q0 87 -56 134.5t-171 47.5q-88 0 -165 -33t-149 -89l-110 146q40 36 89 67t106 53.5t122 35 t138 12.5q99 0 177.5 -24t132.5 -68.5t82.5 -107.5t28.5 -141q0 -80 -21.5 -139.5t-57.5 -102.5t-82 -72.5t-95 -49.5q87 -32 140.5 -104.5t53.5 -183.5q0 -110 -41 -199.5t-115.5 -153.5t-179.5 -98.5t-232 -34.5q-82 0 -153.5 18t-131 49t-107 73.5t-79.5 90.5z" />
<glyph unicode="4" d="M46 324l29 165l867 945h220l-164 -932h178l-32 -180h-178l-57 -322h-195l57 324h-725zM313 502h490l116 662z" />
<glyph unicode="5" d="M49 156l140 157q81 -71 168.5 -107t203.5 -36q86 0 151 25.5t108.5 70.5t65.5 106t22 132q0 121 -64.5 182t-197.5 61q-84 0 -151 -26.5t-120 -75.5l-183 72l165 717h850l-31 -193h-663l-91 -378q28 18 59.5 31t66.5 22t73 14t78 5q205 0 317 -105t112 -306 q0 -127 -45 -228.5t-123 -172t-184 -108.5t-228 -38q-82 0 -154.5 13.5t-134.5 37t-114.5 56.5t-95.5 72z" />
<glyph unicode="6" d="M102 435q0 132 33 255.5t95 233t150.5 202.5t200 162.5t243 113.5t279.5 55l-15 -192q-125 -15 -236.5 -53t-204.5 -99.5t-164.5 -146t-115.5 -193.5q31 28 69.5 50.5t82.5 38t94 23.5t106 8q103 0 185 -25.5t138.5 -76.5t86.5 -125.5t30 -171.5q0 -116 -44 -211 t-120.5 -163t-179 -105.5t-219.5 -37.5q-116 0 -207.5 31t-155.5 90t-97.5 144t-33.5 193zM316 412q0 -119 77 -183.5t219 -64.5q76 0 137 25.5t103 66t64.5 96t22.5 119.5q0 111 -71.5 175.5t-217.5 64.5q-73 0 -134.5 -22t-106 -61.5t-69 -94.5t-24.5 -121z" />
<glyph unicode="7" d="M250 1239l32 195h961l-35 -189q-136 -128 -247 -264t-198 -288t-150 -323t-102 -370h-227q40 191 104 363t148.5 325.5t188.5 290.5t229 260h-704z" />
<glyph unicode="8" d="M82 372q0 81 24.5 146.5t67 115.5t100 86t123.5 58q-77 39 -118.5 107.5t-41.5 159.5q0 88 36.5 163.5t102.5 130.5t158 86t202 31q116 0 202.5 -27t143.5 -75t85.5 -113t28.5 -142q0 -67 -19.5 -120t-53.5 -94.5t-80.5 -72t-100.5 -51.5q43 -18 81 -46t66.5 -67 t44.5 -89.5t16 -114.5q0 -113 -43.5 -200t-119 -146.5t-177 -90t-217.5 -30.5q-124 0 -219 28t-160 79.5t-98.5 124.5t-33.5 163zM296 394q0 -55 21 -97.5t61.5 -72.5t95.5 -45t127 -15q81 0 142.5 19.5t104 57t64 87.5t21.5 109q0 50 -18.5 93.5t-56 75t-94.5 49.5t-135 18 q-79 0 -141 -20.5t-104.5 -57t-65 -88t-22.5 -113.5zM451 1051q0 -44 15.5 -80.5t46.5 -62.5t78 -41t110 -15q64 0 115.5 16.5t88.5 46.5t56.5 72.5t19.5 94.5q0 43 -15.5 78t-47.5 60.5t-80.5 39.5t-113.5 14q-70 0 -121 -18t-85 -49t-50.5 -71.5t-16.5 -84.5z" />
<glyph unicode="9" d="M143 941q0 116 44 211t120.5 163t179.5 105t220 37q116 0 207.5 -31t155 -89.5t97 -144t33.5 -193.5q0 -131 -33 -254.5t-94.5 -233.5t-150.5 -202.5t-200.5 -162t-243 -114t-279.5 -55.5l15 193q125 15 237 53t204.5 99.5t164 146t116.5 193.5q-32 -28 -70 -50.5 t-82.5 -38t-94.5 -23.5t-105 -8q-104 0 -186 25.5t-138.5 76.5t-86.5 125.5t-30 171.5zM363 964q0 -115 73 -177.5t216 -62.5q73 0 134.5 21.5t106 61t69.5 94.5t25 122q0 116 -76.5 180t-220.5 64q-76 0 -136.5 -23.5t-103 -64.5t-65 -96t-22.5 -119z" />
<glyph unicode=":" horiz-adv-x="635" d="M52 139q0 33 13 62.5t34.5 52t51 36t62.5 13.5t62.5 -13.5t51.5 -36t35 -52t13 -62.5t-13 -62.5t-35 -51.5t-51.5 -35t-62.5 -13t-62.5 13t-51 35t-34.5 51.5t-13 62.5zM193 934q0 33 13 62.5t35 52t51.5 36t62.5 13.5t62.5 -13.5t51.5 -36t35 -52t13 -62.5t-13 -62.5 t-35 -51.5t-51.5 -35t-62.5 -13t-62.5 13t-51.5 35t-35 51.5t-13 62.5z" />
<glyph unicode=";" horiz-adv-x="635" d="M-14 -258l127 543h268l-249 -543h-146zM193 934q0 33 13 62.5t35 52t51.5 36t62.5 13.5t62.5 -13.5t51.5 -36t35 -52t13 -62.5t-13 -62.5t-35 -51.5t-51.5 -35t-62.5 -13t-62.5 13t-51.5 35t-35 51.5t-13 62.5z" />
<glyph unicode="&#x3c;" d="M186 610v197l942 573v-231l-735 -438l735 -439v-237z" />
<glyph unicode="=" d="M184 369v200h942v-200h-942zM184 840v200h942v-200h-942z" />
<glyph unicode="&#x3e;" d="M182 35v233l735 437l-735 438v237l942 -573v-197z" />
<glyph unicode="?" horiz-adv-x="1161" d="M180 1268q109 88 238 138t278 50q105 0 187.5 -26.5t138.5 -73.5t85.5 -110.5t29.5 -137.5q0 -80 -19 -140.5t-56.5 -108t-93 -85.5t-128.5 -74q-50 -24 -90 -46.5t-70.5 -52.5t-50.5 -73t-29 -110h-211q12 100 36 167t62.5 114.5t93.5 81t128 65.5q48 21 86.5 43 t65.5 48.5t42 58.5t15 73t-17 73t-48.5 54.5t-76.5 34.5t-100 12q-100 0 -196 -37.5t-189 -109.5zM295 131q0 31 12 59.5t33 50t49 34t60 12.5q31 0 59 -12.5t49 -34t33 -50t12 -59.5q0 -32 -12 -60t-33 -49t-49 -33t-59 -12q-32 0 -60 12t-49 33t-33 49t-12 60z" />
<glyph unicode="@" horiz-adv-x="1712" d="M125 717q0 107 25 203.5t71.5 178.5t112.5 148t148 112.5t178.5 71.5t203.5 25q109 0 206 -26t179.5 -73.5t148 -114t111.5 -146.5t70.5 -171t24.5 -188q0 -116 -23.5 -196.5t-65 -130.5t-98.5 -72.5t-125 -22.5q-34 0 -68 8t-64.5 26.5t-51.5 41.5t-35 51 q-45 -56 -120 -91.5t-142 -35.5q-59 0 -115 17t-99.5 52t-70 88t-26.5 124q0 66 26.5 115t72 81t105 48t125.5 16q62 0 115.5 -16.5t87.5 -36.5v104q0 65 -48.5 93t-141.5 28q-57 0 -105.5 -10.5t-93.5 -38.5l-57 100q57 34 125 52t139 18q72 0 131 -15t100.5 -45.5 t64.5 -77t23 -108.5v-344q0 -24 6.5 -47t24 -41t44 -26.5t61.5 -8.5q95 0 137.5 78t42.5 225q0 122 -47 231t-130 191t-196.5 130t-247.5 48t-248 -47t-196.5 -129.5t-129 -196.5t-46.5 -247q0 -135 46.5 -249t129 -197t196.5 -130t248 -47q69 0 133 13t133 47l50 -109 q-44 -20 -82.5 -33.5t-75.5 -21.5t-75.5 -11.5t-82.5 -3.5q-107 0 -203.5 25t-178.5 71.5t-148 113t-112.5 148.5t-71.5 178.5t-25 203.5zM633 600q0 -74 50.5 -118t147.5 -44q58 0 114.5 32t86.5 83v125q-31 23 -86.5 42t-124.5 19q-88 0 -138 -35.5t-50 -103.5z" />
<glyph unicode="A" horiz-adv-x="1448" d="M2 0l770 1434h217l266 -1434h-225l-59 342h-557l-178 -342h-234zM508 532h434l-105 613z" />
<glyph unicode="B" horiz-adv-x="1374" d="M92 0l254 1434h500q101 0 182 -22t137.5 -64t86.5 -102.5t30 -137.5q0 -69 -17 -123.5t-48.5 -97t-75.5 -73.5t-97 -52q90 -40 138.5 -114t48.5 -177q0 -114 -40 -201.5t-113 -147.5t-174 -91t-222 -31h-590zM330 197h385q67 0 122 18t93 52.5t59 84.5t21 113 q0 99 -62 153t-190 54h-344zM449 866h374q114 0 176 57t62 152q0 74 -55.5 118t-178.5 44h-313z" />
<glyph unicode="C" horiz-adv-x="1333" d="M133 567q0 134 26 251.5t73 216.5t112.5 177t145 132.5t170.5 83t188 28.5q88 0 161.5 -21t132 -60.5t102 -95.5t71.5 -126l-203 -96q-23 46 -47.5 77.5t-59.5 57t-79.5 39.5t-102.5 14q-96 0 -181.5 -48.5t-149 -134.5t-101 -204.5t-37.5 -259.5q0 -98 22 -174 t63 -128.5t99 -80t130 -27.5q103 0 185 50.5t155 138.5l155 -135q-47 -63 -97.5 -109t-117.5 -83t-139 -55t-154 -18q-114 0 -209.5 37.5t-165 111.5t-108.5 184.5t-39 256.5z" />
<glyph unicode="D" horiz-adv-x="1382" d="M92 0l254 1434h285q172 0 305 -41t219.5 -123t123 -191.5t36.5 -237.5q0 -120 -28 -243.5t-90 -228.5t-143.5 -175t-175.5 -113t-186 -62t-190 -19h-410zM344 209h182q107 0 205.5 34t181 107.5t131 193.5t48.5 278q0 75 -19 148.5t-75 133t-149 90.5t-228 31h-97z" />
<glyph unicode="E" horiz-adv-x="1251" d="M92 0l252 1434h916l-37 -209h-701l-61 -355h565l-37 -208h-565l-80 -453h731l-37 -209h-946z" />
<glyph unicode="F" horiz-adv-x="1184" d="M94 0l252 1434h916l-37 -211h-701l-65 -375h403l-37 -211h-403l-113 -637h-215z" />
<glyph unicode="G" horiz-adv-x="1380" d="M133 584q0 131 26.5 246.5t74 212.5t113.5 173.5t145.5 130t169.5 81.5t186 28q176 0 294.5 -82t176.5 -244l-205 -90q-27 56 -50.5 88.5t-59.5 60.5t-81 42t-98 14q-95 0 -181 -47.5t-151 -134t-103 -206.5t-38 -265q0 -101 25.5 -177t70.5 -127t106 -76.5t132 -25.5 q139 0 227.5 83t122.5 239l2 12h-237l35 207h454l-24 -135q-27 -161 -80.5 -277t-130.5 -192t-175.5 -112t-215.5 -36q-118 0 -215.5 40t-167.5 117.5t-109 191t-39 260.5z" />
<glyph unicode="H" horiz-adv-x="1454" d="M92 0l252 1434h215l-102 -580h651l102 580h215l-251 -1434h-216l113 639h-651l-113 -639h-215z" />
<glyph unicode="I" horiz-adv-x="608" d="M102 0l254 1434h215l-254 -1434h-215z" />
<glyph unicode="J" horiz-adv-x="1239" d="M25 379l206 53q12 -55 34 -100t55 -77t79 -49.5t107 -17.5q70 0 125 21.5t96 68.5t70 120t47 177l151 859h215l-153 -869q-36 -204 -104.5 -333t-180.5 -192q-115 -63 -274 -63q-112 0 -195 31.5t-140.5 86.5t-91 128t-46.5 156z" />
<glyph unicode="K" horiz-adv-x="1395" d="M92 0l252 1434h209l-125 -725l692 725h254l-504 -521l344 -913h-227l-280 741l-336 -340l-70 -401h-209z" />
<glyph unicode="L" horiz-adv-x="1210" d="M92 0l252 1434h215l-215 -1223h707l-37 -211h-922z" />
<glyph unicode="M" horiz-adv-x="1647" d="M92 0l252 1434h221l235 -995l593 995h225l-252 -1434h-211l174 954l-606 -989l-249 989l-171 -954h-211z" />
<glyph unicode="N" horiz-adv-x="1454" d="M92 0l254 1434h207l478 -1066l186 1066h210l-253 -1434h-197l-488 1071l-186 -1071h-211z" />
<glyph unicode="O" horiz-adv-x="1448" d="M131 575q1 97 26 218t70 220t99 170.5t128 132.5t177 100.5t221 39.5q144 0 253 -57.5t170.5 -150.5t83.5 -188.5t23 -184.5q0 -115 -25.5 -237t-70.5 -220t-101 -172.5t-134 -136.5t-174.5 -97t-204.5 -35q-147 0 -258.5 57t-180.5 160t-85.5 207t-16.5 174zM355 620 v-17q0 -48 9 -113q11 -77 52.5 -150t110.5 -114.5t159 -41.5q101 0 191 51.5t155.5 151.5t95.5 222t30 201v21q0 65 -10 125q-12 70 -52 139t-111 111.5t-166 42.5q-97 0 -185.5 -52.5t-154.5 -156t-94 -223t-30 -197.5z" />
<glyph unicode="P" horiz-adv-x="1329" d="M92 0l254 1434h488q107 0 197.5 -27.5t153 -80.5t92.5 -123t30 -159q0 -111 -44 -218t-129 -172.5t-184 -92t-211 -26.5h-342l-94 -535h-211zM434 737h324q72 0 130.5 17.5t103 53.5t68.5 90.5t24 116.5q0 42 -14 83.5t-48 71t-86 45.5t-121 16h-295z" />
<glyph unicode="Q" horiz-adv-x="1444" d="M131 573q1 88 25 212t70 225t100 173t127 132.5t176.5 100.5t222.5 40q144 0 254 -57.5t175 -157.5t83 -201t18 -178q0 -88 -17.5 -183.5t-49 -185.5t-89 -185t-153.5 -179l86 -158l-180 -104l-84 153q-110 -40 -223 -40q-147 0 -258.5 56.5t-180.5 159t-85.5 205.5 t-16.5 172zM355 609q0 -48 9 -121t52 -147t112.5 -115.5t159.5 -41.5q28 0 56 4t55 13l-94 172l180 102l88 -164q86 91 135.5 234.5t49.5 284.5v9q0 52 -10 116q-12 70 -53.5 141.5t-112.5 112t-163 40.5q-96 0 -184 -52t-155.5 -156t-96 -228.5t-28.5 -203.5z" />
<glyph unicode="R" horiz-adv-x="1413" d="M92 0l254 1434h549q109 0 195.5 -23.5t146.5 -71t91.5 -119.5t31.5 -169q0 -89 -24 -164.5t-72.5 -134.5t-121 -100.5t-169.5 -63.5l198 -588h-229l-192 567h-347l-100 -567h-211zM440 770h400q138 0 217.5 65.5t79.5 200.5q0 91 -62 143t-196 52h-359z" />
<glyph unicode="S" horiz-adv-x="1282" d="M53 240l172 139q39 -50 76.5 -82.5t92.5 -60t111 -40t118 -12.5q56 0 105.5 13.5t88 40t61.5 67t23 89.5v5q-1 41 -15 71q-16 32 -48 60.5t-91 58.5t-147 64q-94 36 -163.5 75t-109.5 80.5t-63.5 95.5t-23.5 141q0 103 43 183t110 129t154 74t188 25q86 0 158 -16.5 t131.5 -45.5t108 -70t88.5 -89l-170 -148q-32 36 -67 66t-77.5 51.5t-93.5 34t-113 12.5q-60 0 -104.5 -14.5t-74.5 -39t-47.5 -60.5t-17.5 -75q0 -33 10.5 -59t40.5 -53t86 -55.5t146 -63.5q89 -35 163 -75t125.5 -93t73 -113.5t21.5 -134.5q0 -93 -39 -179.5t-114.5 -145 t-170 -86t-204.5 -27.5q-101 0 -185 21.5t-151.5 58t-119 84t-85.5 99.5z" />
<glyph unicode="T" horiz-adv-x="1235" d="M217 1223l37 211h1042l-36 -211h-414l-215 -1223h-215l215 1223h-414z" />
<glyph unicode="U" horiz-adv-x="1434" d="M174 455q2 35 6.5 79t12.5 89l143 811h215l-143 -811q-7 -38 -11 -73.5t-4 -66.5q0 -147 75.5 -222t219.5 -75q83 0 143 27t104 79t70.5 119.5t49.5 184.5l147 838h215l-151 -854q-26 -144 -71.5 -256t-117.5 -189t-172.5 -117.5t-234.5 -40.5q-117 0 -209 31.5t-156 92 t-97.5 149.5t-33.5 205z" />
<glyph unicode="V" horiz-adv-x="1409" d="M254 1434h223l172 -1148l580 1148h229l-737 -1434h-229z" />
<glyph unicode="W" horiz-adv-x="1759" d="M266 1434h219l5 -1059l448 1059h205l70 -1060l384 1060h220l-539 -1434h-229l-69 1077l-456 -1077h-219z" />
<glyph unicode="X" horiz-adv-x="1341" d="M18 0l580 750l-295 684h232l212 -491l377 491h244l-534 -695l317 -739h-229l-236 550l-424 -550h-244z" />
<glyph unicode="Y" horiz-adv-x="1403" d="M244 1434h239l258 -651l488 651h250l-666 -869l-98 -565h-215l100 567z" />
<glyph unicode="Z" horiz-adv-x="1352" d="M31 0l32 195l981 1040h-753l35 199h1015l-32 -197l-975 -1038h813l-35 -199h-1081z" />
<glyph unicode="[" horiz-adv-x="770" d="M61 -225l291 1659h447l-31 -174h-244l-229 -1311h244l-31 -174h-447z" />
<glyph unicode="\" horiz-adv-x="913" d="M223 1618h211l318 -1802h-211z" />
<glyph unicode="]" horiz-adv-x="770" d="M-4 -225l31 174h243l230 1311h-244l31 174h446l-291 -1659h-446z" />
<glyph unicode="^" horiz-adv-x="1184" d="M139 782l529 652h163l299 -652h-225l-186 428l-338 -428h-242z" />
<glyph unicode="_" horiz-adv-x="1024" d="M-160 -362l35 194h1024l-35 -194h-1024z" />
<glyph unicode="`" horiz-adv-x="1024" d="M381 1546h287l161 -327h-167z" />
<glyph unicode="a" horiz-adv-x="1110" d="M64 290q1 113 44.5 192t106.5 123t140 65.5t161 21.5q67 0 138.5 -13t127.5 -40l15 78q3 15 4.5 32t1.5 29q0 69 -47.5 100t-149.5 31q-75 0 -143.5 -18t-130.5 -49l-60 168q82 41 177.5 64.5t181.5 23.5q87 0 157 -17.5t120 -53.5t77 -91.5t27 -132.5q0 -22 -2.5 -43.5 t-5.5 -44.5l-125 -715h-207l16 96q-50 -49 -121.5 -84t-163.5 -35q-74 0 -138.5 22t-111.5 65.5t-68 101t-21 124.5zM270 316q0 -75 49 -115.5t138 -40.5q40 0 78.5 11t73 29t63.5 41.5t51 49.5l31 174q-42 23 -104.5 38t-143.5 15q-47 0 -89.5 -11.5t-75 -36t-52 -63 t-19.5 -91.5z" />
<glyph unicode="b" horiz-adv-x="1159" d="M61 0l244 1384l227 109l-90 -508q54 53 120 83t147 30q76 0 141 -28.5t113 -85t75 -140.5t27 -195q0 -155 -39.5 -279.5t-107 -211.5t-156 -134t-187.5 -47q-46 0 -89.5 9t-81 27t-65.5 39.5t-52 49.5l-17 -102h-209zM322 315q13 -22 38 -47t57.5 -46.5t70.5 -35.5 t79 -14q69 0 121.5 39.5t88.5 104.5t54.5 148.5t18.5 172.5q0 130 -55 198t-152 68q-41 0 -78 -13.5t-68.5 -33t-55.5 -40t-38 -34.5z" />
<glyph unicode="c" horiz-adv-x="1061" d="M92 443q0 151 46 278t127 213t176.5 125t191.5 39q77 0 136 -17.5t104 -46.5t79 -67t60 -78l-156 -141q-46 72 -105 110.5t-135 38.5q-58 0 -111 -25.5t-98 -80.5t-73 -142t-28 -194q0 -127 63 -202t178 -75q65 0 122 29.5t117 85.5l113 -143q-87 -85 -180.5 -129 t-198.5 -44q-104 0 -187 38.5t-138.5 107.5t-79 153t-23.5 167z" />
<glyph unicode="d" horiz-adv-x="1159" d="M94 426q0 155 39.5 279.5t107 211.5t156.5 134t187 47q47 0 91.5 -9.5t81.5 -27.5t64.5 -39.5t50.5 -48.5l72 411l230 109l-265 -1493h-209l17 90q-54 -53 -120 -83t-146 -30q-76 0 -141.5 28.5t-113.5 85t-75 140.5t-27 195zM309 438q0 -130 55 -198t152 -68 q41 0 78.5 13.5t68.5 33t55 40t38 34.5l82 467q-14 22 -39 47t-57.5 46.5t-71 35.5t-78.5 14q-68 0 -121 -39.5t-89 -104.5t-54.5 -149t-18.5 -172z" />
<glyph unicode="e" horiz-adv-x="1116" d="M92 444q0 144 45 273.5t122 215.5t168.5 125.5t188.5 39.5t170 -33t122 -91t73.5 -137.5t24.5 -172.5q0 -53 -7.5 -103.5t-19.5 -95.5h-682q-2 -19 -2 -37q0 -48 12 -88q16 -55 49 -93.5t81.5 -58.5t107.5 -20q66 0 123.5 23.5t117.5 60.5l93 -148q-84 -63 -172 -95 t-191 -32q-104 0 -187 37.5t-138.5 106t-77 153.5t-21.5 170zM324 635h481q2 20 2 39q-1 36 -7 69q-10 50 -35.5 86.5t-68 57t-102.5 20.5q-54 0 -97.5 -20.5t-77 -56.5t-57.5 -86t-38 -109z" />
<glyph unicode="f" horiz-adv-x="733" d="M131 0l156 879h-140l35 196h140l24 137q12 76 37 128.5t62.5 85t88 47t113.5 14.5q28 0 54 -3t47 -8t38 -11t31 -13l-31 -176q-20 11 -49.5 19t-66.5 8q-57 0 -82 -27.5t-35 -85.5l-21 -115h191l-35 -196h-190l-156 -879h-211z" />
<glyph unicode="g" horiz-adv-x="1159" d="M96 426q0 155 39.5 279.5t107 211.5t156.5 134t187 47q52 0 94 -9.5t80.5 -29t64.5 -40t49 -46.5l17 102h211l-164 -940q-23 -130 -64 -228t-114 -165t-185 -103t-276 -42l-31 176q121 1 201 21.5t130 58t76 92t40 125.5l4 20q-54 -53 -120 -83t-146 -30 q-76 0 -141.5 28.5t-113.5 85t-75 140.5t-27 195zM311 438q0 -130 55 -198t152 -68q41 0 78.5 13.5t68.5 33t55 40t38 34.5l82 467q-14 22 -39 47t-57.5 46.5t-71 35.5t-78.5 14q-68 0 -121 -39.5t-89 -104.5t-54.5 -149t-18.5 -172z" />
<glyph unicode="h" horiz-adv-x="1159" d="M59 0l244 1382l232 111l-91 -510q51 53 118 84t149 31t143.5 -22.5t103 -65t62 -106.5t20.5 -140q0 -31 -4 -66.5t-10 -70.5l-111 -627h-210l104 600q5 28 7.5 55t2.5 50q0 102 -40 150t-134 48q-50 0 -93 -19.5t-77.5 -57.5t-60 -95t-39.5 -133l-105 -598h-211z" />
<glyph unicode="i" horiz-adv-x="543" d="M72 0l188 1075h211l-188 -1075h-211zM276 1350q0 28 10.5 53t28.5 43.5t42.5 29.5t52.5 11q27 0 50.5 -11t41.5 -29.5t28.5 -43.5t10.5 -53t-10.5 -52.5t-28.5 -43t-41.5 -29.5t-50.5 -11q-28 0 -52.5 11t-42.5 29.5t-28.5 43t-10.5 52.5z" />
<glyph unicode="j" horiz-adv-x="543" d="M-205 -213q72 14 121 30.5t81.5 44.5t51.5 72t31 113l180 1028h211l-182 -1036q-18 -103 -47 -178t-79.5 -127t-128 -83t-192.5 -46zM276 1350q0 28 11 53t29.5 43.5t43 29.5t52.5 11q26 0 49.5 -11t41.5 -29.5t29 -43.5t11 -53t-11 -52.5t-29 -43t-41.5 -29.5t-49.5 -11 q-28 0 -52.5 11t-43 29.5t-29.5 43t-11 52.5z" />
<glyph unicode="k" horiz-adv-x="1075" d="M61 0l244 1382l232 111l-155 -873l419 455h243l-337 -358l190 -717h-213l-143 541l-211 -224l-58 -317h-211z" />
<glyph unicode="l" horiz-adv-x="543" d="M72 0l243 1382l232 111l-264 -1493h-211z" />
<glyph unicode="m" horiz-adv-x="1755" d="M61 0l189 1075h211l-17 -96q22 24 48 45.5t57.5 38t68.5 26t82 9.5q107 0 172.5 -42t102.5 -120q31 34 66.5 63.5t77.5 51.5t92 34.5t110 12.5q150 0 233.5 -85t83.5 -243q0 -32 -4 -72t-12 -77l-109 -621h-210l106 600q5 29 8.5 62.5t3.5 56.5q0 91 -40 135.5t-128 44.5 q-97 0 -163.5 -75.5t-92.5 -225.5l-104 -598h-211l104 600q5 29 10 61.5t5 57.5q0 41 -9 75.5t-29 58.5t-52 37t-80 13q-97 0 -162.5 -78t-91.5 -227l-105 -598h-211z" />
<glyph unicode="n" horiz-adv-x="1159" d="M59 0l191 1075h211l-17 -92q55 56 120.5 85.5t146.5 29.5q159 0 244 -84.5t85 -249.5q0 -31 -4 -66.5t-10 -70.5l-111 -627h-210l104 600q5 28 7.5 55t2.5 50q0 102 -40 150t-134 48q-47 0 -90 -18.5t-77 -54.5t-60 -90t-43 -142l-105 -598h-211z" />
<glyph unicode="o" horiz-adv-x="1159" d="M92 451q0 136 47 265t128 214.5t174 126.5t188 41q106 0 191.5 -39.5t141 -108t80 -151.5t24.5 -164q0 -158 -48 -283t-128.5 -209.5t-174 -125t-191.5 -40.5q-104 0 -187.5 39t-140.5 109t-80.5 154.5t-23.5 171.5zM306 470v-9q0 -55 12 -102q12 -51 41.5 -92.5 t75.5 -65t108 -23.5q64 0 118.5 30.5t97 87t68.5 139.5t26 179q0 51 -11.5 101t-42 92.5t-78 66t-111.5 23.5q-61 0 -115 -29.5t-97 -87.5t-67.5 -141t-24.5 -169z" />
<glyph unicode="p" horiz-adv-x="1159" d="M-10 -395l260 1470h209l-17 -90q54 53 120 83t147 30q76 0 141 -28.5t113 -85t75 -140.5t27 -195q0 -155 -39.5 -279.5t-107 -211.5t-156 -134t-187.5 -47q-41 0 -84.5 8t-82.5 26t-68.5 41t-52.5 50l-68 -389zM322 315q13 -22 38 -47t57.5 -46.5t70.5 -35.5t79 -14 q69 0 121.5 39.5t88.5 104.5t54.5 148.5t18.5 172.5q0 130 -55 198t-152 68q-41 0 -78 -13.5t-68.5 -33t-55.5 -40t-38 -34.5z" />
<glyph unicode="q" horiz-adv-x="1159" d="M94 426q0 155 39.5 279.5t107 211.5t156.5 134t187 47q47 0 91 -9.5t81.5 -27.5t64.5 -39.5t51 -48.5l17 102h211l-240 -1362l-227 -108l84 485q-54 -53 -120 -83t-146 -30q-76 0 -141.5 28.5t-113.5 85t-75 140.5t-27 195zM309 438q0 -130 55 -198t152 -68 q41 0 78.5 13.5t68.5 33t55 40t38 34.5l82 467q-14 22 -39 47t-57.5 46.5t-71 35.5t-78.5 14q-68 0 -121 -39.5t-89 -104.5t-54.5 -149t-18.5 -172z" />
<glyph unicode="r" horiz-adv-x="848" d="M61 0l191 1075h211l-19 -98q47 54 111 87.5t141 33.5q65 0 110 -17.5t73 -42.5l-88 -204q-25 20 -63 35.5t-89 15.5q-48 0 -90 -14.5t-76 -49t-58.5 -91.5t-39.5 -142l-103 -588h-211z" />
<glyph unicode="s" horiz-adv-x="1014" d="M33 137l112 156q68 -57 150 -93t188 -36q79 0 125.5 32t48.5 101q0 23 -8 40t-26 34t-54.5 37.5t-93.5 44.5q-80 34 -139 68t-95.5 73t-50.5 81.5t-14 87.5q0 157 99 246t276 89q66 0 123.5 -11t106.5 -29t90 -41.5t73 -47.5l-108 -168q-33 25 -64 43t-70 34t-81.5 24.5 t-88.5 8.5q-70 0 -108.5 -28t-38.5 -79q0 -26 7.5 -41.5t26 -32t58.5 -38.5t107 -53q70 -32 125 -64.5t91 -72.5q38 -38 54 -88q12 -36 12 -83q0 -17 -2 -34q-7 -91 -44.5 -152t-93.5 -98.5t-124.5 -53.5t-136.5 -16q-125 0 -234.5 40.5t-197.5 119.5z" />
<glyph unicode="t" horiz-adv-x="817" d="M129 883l35 192h153l54 303l227 115l-74 -418h254l-35 -192h-254l-100 -576q-3 -15 -4.5 -30t-1.5 -27q0 -42 25 -60t71 -18q50 0 85 12t69 35l-62 -201q-40 -21 -85.5 -31t-84.5 -10q-117 0 -176 56.5t-59 159.5q0 22 8 73l109 617h-154z" />
<glyph unicode="u" horiz-adv-x="1159" d="M117 311q0 31 4 66.5t10 71.5l111 626h211l-105 -600q-5 -28 -7.5 -54.5t-2.5 -49.5q0 -102 40 -150.5t134 -48.5q49 0 92.5 19t79 57t60.5 95t38 134l105 598h211l-191 -1075h-211l17 92q-66 -65 -129 -90t-138 -25q-158 0 -243.5 84.5t-85.5 249.5z" />
<glyph unicode="v" horiz-adv-x="1098" d="M162 1075h219l115 -794l401 794h227l-573 -1075h-199z" />
<glyph unicode="w" horiz-adv-x="1509" d="M174 1075h213l42 -724l329 724h180l66 -724l305 724h217l-477 -1075h-193l-63 745l-330 -745h-193z" />
<glyph unicode="x" horiz-adv-x="1081" d="M-33 0l445 569l-222 506h224l138 -325l251 325h231l-399 -512l248 -563h-224l-165 383l-295 -383h-232z" />
<glyph unicode="y" horiz-adv-x="1128" d="M156 -379l211 385l-205 1069h223l128 -801l417 801h225l-774 -1454h-225z" />
<glyph unicode="z" horiz-adv-x="1055" d="M27 0l26 160l671 731h-509l29 184h772l-27 -160l-661 -731h551l-33 -184h-819z" />
<glyph unicode="{" horiz-adv-x="866" d="M121 516l33 182h45q37 0 62 7.5t41.5 25t26.5 45.5t17 70l35 184q21 115 59 196t101 131.5t154 71t218 15.5l-26 -158q-77 -3 -128.5 -18.5t-85.5 -47t-53.5 -81t-31.5 -121.5l-21 -115q-13 -74 -31 -126t-42.5 -87t-57.5 -55t-76 -31q39 -14 64.5 -34.5t37.5 -55 t11.5 -85.5t-12.5 -126l-17 -92q-11 -68 -6.5 -116t28.5 -81t68.5 -52.5t112.5 -29.5l-29 -157q-110 7 -191 35.5t-130.5 81t-66 131t2.5 186.5l31 160q14 81 -7 114t-89 33h-47z" />
<glyph unicode="|" horiz-adv-x="606" d="M27 -379l356 2017h195l-357 -2017h-194z" />
<glyph unicode="}" horiz-adv-x="866" d="M-27 -225l27 157q78 3 130 18t86 46.5t53.5 81.5t31.5 123l23 114q12 75 29.5 127.5t42 87t57 54t75.5 30.5q-38 14 -63 34.5t-37.5 55t-12 85.5t12.5 126l18 93q12 67 6.5 115.5t-30 81.5t-69.5 52t-113 29l28 158q109 -8 190.5 -36.5t131.5 -81t67 -131t-2 -185.5 l-28 -160q-14 -82 7 -115t89 -33h43l-33 -182h-41q-37 0 -62 -7.5t-41.5 -25t-26.5 -45.5t-17 -69l-35 -185q-21 -115 -60 -196t-102.5 -131t-155.5 -71t-219 -15z" />
<glyph unicode="~" horiz-adv-x="1143" d="M104 651q46 80 86.5 132t82 87.5t84 52.5t87.5 17q54 0 100 -19.5t87 -45.5q25 -17 81.5 -52t100.5 -35q20 0 37.5 7.5t36.5 25.5t41.5 48t52.5 75l133 -76q-40 -71 -79.5 -124.5t-81 -90t-86 -55t-93.5 -18.5q-60 0 -108.5 22t-92.5 50q-23 15 -44.5 29t-42.5 25 t-41.5 18t-41.5 7q-19 0 -36 -7.5t-35.5 -25.5t-40.5 -48t-51 -75z" />
<glyph unicode="&#xa1;" horiz-adv-x="610" d="M104 0l113 637l109 383h135l-27 -383l-112 -637h-218zM293 1303q0 31 12 59t33 49t48.5 33t59.5 12q31 0 59 -12t49 -33t33.5 -49t12.5 -59q0 -32 -12.5 -60t-33.5 -49.5t-49 -34t-59 -12.5q-32 0 -59.5 12.5t-48.5 34t-33 49.5t-12 60z" />
<glyph unicode="&#xa2;" d="M194 627q0 134 38.5 247t105 198.5t157 139.5t195.5 70l32 186h205l-35 -190q69 -12 134 -50t124 -108l-157 -131q-37 53 -93.5 86t-132.5 33q-89 0 -156.5 -40t-111 -108t-64 -154t-20.5 -171q0 -141 63.5 -212.5t191.5 -71.5q76 0 133.5 26t113.5 84l123 -131 q-72 -69 -155.5 -110.5t-186.5 -49.5l-35 -193h-203l37 211q-147 42 -225 158t-78 281z" />
<glyph unicode="&#xa3;" d="M88 0l30 170q45 37 87.5 80t78 93.5t60.5 109t34 127.5h-186l29 176h153q-7 38 -17.5 74.5t-20 73.5t-16.5 76t-7 83q0 97 36.5 171t100.5 123t150.5 74t187.5 25q147 0 252 -49t168 -131l-141 -139q-57 70 -128 102.5t-169 32.5q-125 0 -183.5 -59.5t-58.5 -159.5 q0 -35 6.5 -70t15.5 -72t18.5 -75.5t14.5 -79.5h283l-31 -176h-252q-17 -116 -73 -213.5t-144 -178.5h660l-33 -188h-905z" />
<glyph unicode="&#xa4;" horiz-adv-x="1249" d="M125 547q0 136 24 256t67.5 221t105 181t136.5 136t162.5 85.5t182.5 29.5q90 0 159.5 -22.5t123 -65t92 -103.5t65.5 -137l-192 -90q-21 49 -46 88t-57 66t-73.5 41t-96.5 14q-53 0 -104.5 -19t-99 -55t-88.5 -88t-72 -118h493l-30 -168h-519q-8 -37 -13.5 -75.5 t-8.5 -80.5h514l-31 -168h-479q22 -140 98.5 -214.5t200.5 -74.5q48 0 90.5 14.5t81 39.5t73.5 59.5t70 73.5l154 -133q-48 -60 -101.5 -108.5t-114 -83t-128.5 -53t-146 -18.5q-117 0 -209 44t-155 120.5t-96 180.5t-33 225z" />
<glyph unicode="&#xa5;" d="M172 250l32 178h281l24 143l-251 863h229l167 -660l392 660h240l-555 -859l-27 -147h281l-31 -178h-281l-45 -250h-219l43 250h-280z" />
<glyph unicode="&#xa6;" horiz-adv-x="633" d="M26 -379l154 875h197l-154 -875h-197zM227 764l154 874h197l-154 -874h-197z" />
<glyph unicode="&#xa7;" horiz-adv-x="1352" d="M139 594q0 71 26 128.5t67 102t91.5 77t99.5 54.5q-38 60 -38 146q0 82 30 147.5t85.5 111.5t133.5 70.5t174 24.5q138 0 250.5 -44.5t188.5 -125.5l-144 -162q-36 32 -68 52.5t-72 38t-86.5 27t-94.5 9.5q-34 0 -65 -7t-55 -22.5t-38 -40.5t-14 -61q0 -32 17.5 -55.5 t51 -45t83 -43.5t114.5 -50q99 -44 170.5 -86.5t117 -89t67.5 -99t22 -116.5q0 -72 -26 -129t-67.5 -102t-92 -77.5t-99.5 -54.5q20 -31 29.5 -65.5t9.5 -79.5q0 -83 -30.5 -148.5t-86 -111.5t-133.5 -70.5t-174 -24.5q-137 0 -250 45t-188 125l143 162q36 -33 67 -52.5 t73 -38t87.5 -27.5t94.5 -9q79 0 125.5 33t46.5 98q0 31 -17.5 55t-51 45.5t-83.5 43.5t-114 51q-99 43 -170.5 86t-117.5 89.5t-67.5 99t-21.5 116.5zM364 623q0 -35 12.5 -63t42 -54.5t78 -53.5t119.5 -59q65 -29 117 -54t94 -48q109 53 155 106t46 109q0 34 -12.5 62 t-42 54.5t-78 53.5t-119.5 59q-65 29 -117.5 54.5t-95.5 48.5q-101 -49 -150 -103t-49 -112z" />
<glyph unicode="&#xa8;" horiz-adv-x="1024" d="M317 1356q0 28 11 53.5t30.5 44.5t44.5 30t54 11q27 0 52 -11t44 -30t30 -44.5t11 -53.5t-11 -53t-30 -43.5t-44 -29.5t-52 -11q-29 0 -54 11t-44.5 29.5t-30.5 43.5t-11 53zM717 1356q0 28 11 53.5t30 44.5t44 30t54 11q28 0 52.5 -11t43.5 -30t30 -44.5t11 -53.5 t-11 -53t-30 -43.5t-43.5 -29.5t-52.5 -11q-29 0 -54 11t-44 29.5t-30 43.5t-11 53z" />
<glyph unicode="&#xa9;" horiz-adv-x="1712" d="M125 717q0 158 56.5 293t155.5 234.5t235.5 155.5t291.5 56q156 0 292 -56t235 -155.5t155.5 -234.5t56.5 -293t-56.5 -293t-155.5 -234.5t-234 -156t-293 -56.5t-293 56.5t-234 156t-155.5 234.5t-56.5 293zM244 717q0 -132 47.5 -245.5t130.5 -197t196.5 -131 t245.5 -47.5t245.5 47.5t197 131t131 197t47.5 245.5t-47.5 245.5t-131 196.5t-197 130.5t-245.5 47.5t-245.5 -47.5t-196.5 -130.5t-130.5 -196.5t-47.5 -245.5zM528 721q0 92 24.5 168.5t69 131.5t107.5 85.5t141 30.5q100 0 168 -40t113 -120l-121 -76q-32 51 -67 74.5 t-93 23.5q-50 0 -87.5 -19.5t-62.5 -55.5t-37.5 -87.5t-12.5 -115.5t12.5 -116t37.5 -88.5t62.5 -56.5t87.5 -20q59 0 97.5 26.5t72.5 80.5l115 -78q-48 -82 -120 -124t-165 -42q-78 0 -141 30.5t-107.5 86t-69 132.5t-24.5 169z" />
<glyph unicode="&#xaa;" horiz-adv-x="934" d="M143 807q0 79 28 139.5t76.5 101t115 61.5t143.5 21q62 0 115.5 -10.5t93.5 -27.5l14 67q1 5 2.5 14.5t1.5 21.5q0 44 -32.5 71.5t-120.5 27.5q-59 0 -113 -15t-107 -40l-49 141q52 29 134 52.5t155 23.5q147 0 228 -56.5t81 -174.5q0 -16 -2.5 -32.5t-5.5 -33.5 l-102 -588h-174l14 72q-40 -37 -96 -63.5t-125 -26.5q-55 0 -104.5 15.5t-87.5 47t-60.5 79t-22.5 112.5zM319 823q0 -54 34.5 -86t105.5 -32q33 0 62.5 8.5t56 23t49 33t41.5 39.5l24 137q-34 17 -79.5 29t-110.5 12q-85 0 -134 -41.5t-49 -122.5z" />
<glyph unicode="&#xab;" horiz-adv-x="1204" d="M61 537l474 538h227l-463 -536l274 -539h-227zM516 537l473 538h228l-463 -536l274 -539h-227z" />
<glyph unicode="&#xac;" d="M140 602v205h989v-604h-211v399h-778z" />
<glyph unicode="&#xad;" horiz-adv-x="737" d="M131 645l37 209h512l-37 -209h-512z" />
<glyph unicode="&#xae;" horiz-adv-x="1712" d="M125 717q0 158 56.5 293t155.5 234.5t235.5 155.5t291.5 56q156 0 292 -56t235 -155.5t155.5 -234.5t56.5 -293t-56.5 -293t-155.5 -234.5t-234 -156t-293 -56.5t-293 56.5t-234 156t-155.5 234.5t-56.5 293zM244 717q0 -132 47.5 -245.5t130.5 -197t196.5 -131 t245.5 -47.5t245.5 47.5t197 131t131 197t47.5 245.5t-47.5 245.5t-131 196.5t-197 130.5t-245.5 47.5t-245.5 -47.5t-196.5 -130.5t-130.5 -196.5t-47.5 -245.5zM583 328v807h355q54 0 102 -14.5t84 -44.5t57 -76t21 -109q0 -96 -47 -155.5t-125 -82.5l166 -325h-162 l-158 311h-155v-311h-138zM721 772h213q55 0 92 27.5t37 87.5q0 57 -37 85.5t-92 28.5h-213v-229z" />
<glyph unicode="&#xaf;" horiz-adv-x="1024" d="M350 1249l31 185h573l-30 -185h-574z" />
<glyph unicode="&#xb0;" horiz-adv-x="995" d="M112 1053q0 84 31.5 157.5t86 128t128.5 86t160 31.5t160 -31.5t128.5 -86t85.5 -128t31 -157.5q0 -87 -31 -161.5t-85.5 -129.5t-128.5 -86t-160 -31t-160 31t-128.5 86t-86 129.5t-31.5 161.5zM296 1053q0 -48 17.5 -89t47.5 -71.5t70.5 -48t86.5 -17.5q47 0 87.5 17.5 t70 48t46.5 71.5t17 89q0 45 -17 85.5t-46.5 70.5t-70 47.5t-87.5 17.5q-46 0 -86.5 -17.5t-70.5 -47.5t-47.5 -70.5t-17.5 -85.5z" />
<glyph unicode="&#xb1;" d="M149 59v189h989v-189h-989zM149 705v204h389v379h211v-379h389v-204h-389v-379h-211v379h-389z" />
<glyph unicode="&#xb2;" horiz-adv-x="868" d="M23 532q22 103 60 177t90 130.5t118 101.5t146 91q79 44 126 86t47 98q0 37 -29 58.5t-86 21.5q-68 0 -124.5 -27t-115.5 -70l-84 129q82 60 168 94t180 34q61 0 110.5 -13t85 -39t55 -65t19.5 -91q0 -66 -22 -116.5t-60 -91t-89 -74t-110 -67.5q-57 -32 -99 -59.5 t-72.5 -52.5t-50.5 -47t-32 -44h449l-29 -164h-651z" />
<glyph unicode="&#xb3;" horiz-adv-x="817" d="M-4 664l127 115q40 -45 89.5 -73t112.5 -28q50 0 87 12t61.5 33t36.5 49t12 60q0 48 -37.5 73t-104.5 25h-99l26 147h91q34 0 63 9.5t49.5 26t32 40t11.5 52.5q0 44 -28 68t-96 24q-57 0 -104.5 -22.5t-95.5 -58.5l-85 119q29 22 63 43.5t73 38.5t82 27t90 10 q60 0 111 -12.5t88 -38.5t58 -66.5t21 -96.5q0 -33 -9.5 -66t-28 -63t-46 -55t-64.5 -42q57 -16 85 -58.5t28 -111.5q0 -68 -26.5 -127t-76.5 -102.5t-123.5 -68.5t-167.5 -25q-101 0 -177.5 40.5t-128.5 102.5z" />
<glyph unicode="&#xb4;" horiz-adv-x="1024" d="M432 1219l277 327h286l-395 -327h-168z" />
<glyph unicode="&#xb5;" horiz-adv-x="1167" d="M-10 -395l260 1470h211l-105 -600q-5 -28 -7.5 -54.5t-2.5 -49.5q0 -102 40 -150.5t134 -48.5q49 0 92.5 19t79 57t61 95t38.5 134l104 598h211l-191 -1075h-210l16 92q-22 -23 -49 -44t-60 -36.5t-72 -25t-85 -9.5q-58 0 -103.5 10.5t-79.5 29.5l-53 -304z" />
<glyph unicode="&#xb6;" horiz-adv-x="1475" d="M170 971q9 107 52.5 193t114 146t165 92t205.5 32h745l-319 -1813h-203l284 1616h-161l-285 -1616h-203l160 914h-78q-111 0 -203 28t-155.5 83t-95.5 136.5t-23 188.5z" />
<glyph unicode="&#xb7;" horiz-adv-x="520" d="M133 752q0 33 13 62.5t35 52t51.5 35.5t62.5 13t62.5 -13t51.5 -35.5t35 -52t13 -62.5t-13 -62.5t-35 -51.5t-51.5 -35t-62.5 -13t-62.5 13t-51.5 35t-35 51.5t-13 62.5z" />
<glyph unicode="&#xb8;" horiz-adv-x="1024" d="M115 -303l55 67q43 -30 91.5 -47.5t107.5 -17.5q51 0 82.5 17.5t33.5 56.5q3 30 -12 45.5t-49 15.5q-23 0 -41 -5.5t-37 -16.5l-70 28l89 199h100l-57 -133q17 8 37.5 13t48.5 5q65 0 102 -35t37 -97q0 -47 -20 -83t-51.5 -58.5t-74.5 -34t-94 -11.5q-86 0 -157.5 27 t-120.5 65z" />
<glyph unicode="&#xb9;" horiz-adv-x="670" d="M168 1188l22 129q42 3 74 9t57 18.5t42.5 33.5t31.5 54h146l-161 -910h-176l118 666h-154z" />
<glyph unicode="&#xba;" horiz-adv-x="985" d="M184 924q0 111 34 208t94.5 169t143 113.5t179.5 41.5q75 0 136.5 -27t106 -76t69 -118t24.5 -152q0 -114 -36.5 -211.5t-98.5 -168t-143.5 -110.5t-170.5 -40q-77 0 -139.5 26.5t-106.5 75.5t-68 117.5t-24 151.5zM365 932q0 -100 47 -155.5t129 -55.5q52 0 97.5 28.5 t79.5 76.5t53.5 112.5t19.5 136.5q0 97 -48.5 155t-136.5 58q-54 0 -98 -27.5t-76 -75.5t-49.5 -113t-17.5 -140z" />
<glyph unicode="&#xbb;" horiz-adv-x="1204" d="M-12 0l463 537l-275 538h227l285 -536l-473 -539h-227zM442 0l463 537l-274 538h227l285 -536l-473 -539h-228z" />
<glyph unicode="&#xbc;" horiz-adv-x="1905" d="M209 0l1215 1434h237l-1214 -1434h-238zM290 1188l22 129q42 3 74 9t57 18.5t42.5 33.5t31.5 54h146l-161 -910h-176l118 666h-154zM924 199l23 129l565 583h168l-98 -559h117l-27 -155h-117l-35 -195h-166l35 197h-465zM1162 352h254l57 323z" />
<glyph unicode="&#xbd;" horiz-adv-x="1905" d="M130 0l1215 1434h237l-1214 -1434h-238zM243 1188l22 129q42 3 74 9t57 18.5t42.5 33.5t31.5 54h146l-161 -910h-176l118 666h-154zM976 2q22 103 60 177t90 130.5t118 101.5t146 91q79 44 126 86t47 98q0 37 -29 58.5t-86 21.5q-68 0 -124.5 -27t-115.5 -70l-84 129 q82 60 168 94t180 34q61 0 110.5 -13t85 -39t55 -65t19.5 -91q0 -66 -22 -116.5t-60 -91t-89 -74t-110 -67.5q-57 -32 -99 -59.5t-72.5 -52.5t-50.5 -47t-32 -44h449l-29 -164h-651z" />
<glyph unicode="&#xbe;" horiz-adv-x="1905" d="M135 664l127 115q40 -45 89.5 -73t112.5 -28q50 0 87 12t61.5 33t36.5 49t12 60q0 48 -37.5 73t-104.5 25h-99l26 147h91q34 0 63 9.5t49.5 26t32 40t11.5 52.5q0 44 -28 68t-96 24q-57 0 -104.5 -22.5t-95.5 -58.5l-85 119q29 22 63 43.5t73 38.5t82 27t90 10 q60 0 111 -12.5t88 -38.5t58 -66.5t21 -96.5q0 -33 -9.5 -66t-28 -63t-46 -55t-64.5 -42q57 -16 85 -58.5t28 -111.5q0 -68 -26.5 -127t-76.5 -102.5t-123.5 -68.5t-167.5 -25q-101 0 -177.5 40.5t-128.5 102.5zM350 0l1215 1434h237l-1214 -1434h-238zM996 199l23 129 l565 583h168l-98 -559h117l-27 -155h-117l-35 -195h-166l35 197h-465zM1234 352h254l57 323z" />
<glyph unicode="&#xbf;" horiz-adv-x="1161" d="M74 326q0 80 19 140.5t56.5 108t93 85.5t128.5 73q50 24 90 46t70 52.5t50 74t29 110.5h211q-11 -100 -35 -167t-63 -114.5t-93.5 -81t-127.5 -65.5q-48 -21 -86.5 -43.5t-65.5 -48.5t-42 -58.5t-15 -72.5q0 -80 64.5 -127.5t177.5 -47.5q50 0 99 9.5t98 28.5t88.5 42 t99.5 68l110 -172q-108 -88 -237 -138.5t-279 -50.5q-105 0 -187 27t-138.5 74t-85.5 110.5t-29 137.5zM608 1303q0 31 12 59t33 49t49 33t60 12q31 0 59 -12t49 -33t33 -49t12 -59q0 -32 -12 -60t-33 -49.5t-49 -34t-59 -12.5q-32 0 -60 12.5t-49 34t-33 49.5t-12 60z" />
<glyph unicode="&#xc0;" horiz-adv-x="1448" d="M2 0l770 1434h217l266 -1434h-225l-59 342h-557l-178 -342h-234zM508 532h434l-105 613zM551 1853h287l161 -327h-167z" />
<glyph unicode="&#xc1;" horiz-adv-x="1448" d="M2 0l770 1434h217l266 -1434h-225l-59 342h-557l-178 -342h-234zM508 532h434l-105 613zM749 1526l277 327h286l-395 -327h-168z" />
<glyph unicode="&#xc2;" horiz-adv-x="1448" d="M2 0l770 1434h217l266 -1434h-225l-59 342h-557l-178 -342h-234zM501 1506l297 327h246l182 -327h-162l-163 180l-226 -180h-174zM508 532h434l-105 613z" />
<glyph unicode="&#xc3;" horiz-adv-x="1448" d="M2 0l770 1434h217l266 -1434h-225l-59 342h-557l-178 -342h-234zM508 532h434l-105 613zM512 1526q14 76 37 126t52.5 83.5t68.5 51t86 17.5q48 0 93 -17.5t84 -39.5q41 -24 78 -43t66 -19q34 0 57 25t42 88h145q-16 -85 -37 -131t-50.5 -79t-68 -51t-88.5 -18 q-52 0 -96.5 18t-83.5 41t-75 41.5t-64 18.5q-34 0 -58 -24.5t-43 -87.5h-145z" />
<glyph unicode="&#xc4;" horiz-adv-x="1448" d="M2 0l770 1434h217l266 -1434h-225l-59 342h-557l-178 -342h-234zM508 532h434l-105 613zM573 1663q0 28 11 53.5t30.5 44.5t44.5 30t54 11q27 0 52 -11t44 -30t30 -44.5t11 -53.5t-11 -53t-30 -43.5t-44 -29.5t-52 -11q-29 0 -54 11t-44.5 29.5t-30.5 43.5t-11 53z M973 1663q0 28 11 53.5t30 44.5t44 30t54 11q28 0 52.5 -11t43.5 -30t30 -44.5t11 -53.5t-11 -53t-30 -43.5t-43.5 -29.5t-52.5 -11q-29 0 -54 11t-44 29.5t-30 43.5t-11 53z" />
<glyph unicode="&#xc5;" horiz-adv-x="1448" d="M2 0l729 1358q-42 34 -65 84.5t-23 111.5q0 55 19.5 102.5t54 82t82 54t102.5 19.5t102.5 -19.5t82 -54t54 -82t19.5 -102.5q0 -80 -39.5 -141t-105.5 -92l246 -1321h-230l-59 342h-557l-178 -342h-234zM508 532h434l-105 613zM776 1554q0 -27 9.5 -50.5t26 -40.5 t39.5 -26.5t50 -9.5t50 9.5t39.5 26.5t26 40.5t9.5 50.5q0 28 -9.5 51t-26 40t-39.5 26.5t-50 9.5t-50 -9.5t-39.5 -26.5t-26 -40t-9.5 -51z" />
<glyph unicode="&#xc6;" horiz-adv-x="2085" d="M-72 0l1205 1434h960l-37 -209h-700l-62 -355h566l-37 -208h-566l-79 -453h731l-37 -209h-948l55 309h-537l-260 -309h-254zM600 508h414l108 622z" />
<glyph unicode="&#xc7;" horiz-adv-x="1333" d="M133 567q0 134 26 251.5t73 216.5t112.5 177t145 132.5t170.5 83t188 28.5q88 0 161.5 -21t132 -60.5t102 -95.5t71.5 -126l-203 -96q-23 46 -47.5 77.5t-59.5 57t-79.5 39.5t-102.5 14q-96 0 -181.5 -48.5t-149 -134.5t-101 -204.5t-37.5 -259.5q0 -98 22 -174 t63 -128.5t99 -80t130 -27.5q103 0 185 50.5t155 138.5l155 -135q-47 -63 -97.5 -109t-117.5 -83t-139 -55t-154 -18q-114 0 -209.5 37.5t-165 111.5t-108.5 184.5t-39 256.5zM317 -303l55 67q43 -30 91.5 -47.5t107.5 -17.5q51 0 82.5 17.5t33.5 56.5q3 30 -12 45.5 t-49 15.5q-23 0 -41 -5.5t-37 -16.5l-70 28l89 199h100l-57 -133q17 8 37.5 13t48.5 5q65 0 102 -35t37 -97q0 -47 -20 -83t-51.5 -58.5t-74.5 -34t-94 -11.5q-86 0 -157.5 27t-120.5 65z" />
<glyph unicode="&#xc8;" horiz-adv-x="1251" d="M92 0l252 1434h916l-37 -209h-701l-61 -355h565l-37 -208h-565l-80 -453h731l-37 -209h-946zM465 1853h287l161 -327h-167z" />
<glyph unicode="&#xc9;" horiz-adv-x="1251" d="M92 0l252 1434h916l-37 -209h-701l-61 -355h565l-37 -208h-565l-80 -453h731l-37 -209h-946zM655 1526l277 327h286l-395 -327h-168z" />
<glyph unicode="&#xca;" horiz-adv-x="1251" d="M92 0l252 1434h916l-37 -209h-701l-61 -355h565l-37 -208h-565l-80 -453h731l-37 -209h-946zM445 1526l297 327h246l182 -327h-162l-163 180l-226 -180h-174z" />
<glyph unicode="&#xcb;" horiz-adv-x="1251" d="M92 0l252 1434h916l-37 -209h-701l-61 -355h565l-37 -208h-565l-80 -453h731l-37 -209h-946zM489 1663q0 28 11 53.5t30.5 44.5t44.5 30t54 11q27 0 52 -11t44 -30t30 -44.5t11 -53.5t-11 -53t-30 -43.5t-44 -29.5t-52 -11q-29 0 -54 11t-44.5 29.5t-30.5 43.5t-11 53z M889 1663q0 28 11 53.5t30 44.5t44 30t54 11q28 0 52.5 -11t43.5 -30t30 -44.5t11 -53.5t-11 -53t-30 -43.5t-43.5 -29.5t-52.5 -11q-29 0 -54 11t-44 29.5t-30 43.5t-11 53z" />
<glyph unicode="&#xcc;" horiz-adv-x="608" d="M102 0l254 1434h215l-254 -1434h-215zM115 1853h287l161 -327h-167z" />
<glyph unicode="&#xcd;" horiz-adv-x="608" d="M102 0l254 1434h215l-254 -1434h-215zM379 1526l277 327h286l-395 -327h-168z" />
<glyph unicode="&#xce;" horiz-adv-x="608" d="M102 0l254 1434h215l-254 -1434h-215zM104 1512l297 327h246l182 -327h-162l-163 180l-226 -180h-174z" />
<glyph unicode="&#xcf;" horiz-adv-x="608" d="M102 0l254 1434h215l-254 -1434h-215zM161 1661q0 28 11 53.5t30.5 44.5t44.5 30t54 11q27 0 52 -11t44 -30t30 -44.5t11 -53.5t-11 -53t-30 -43.5t-44 -29.5t-52 -11q-29 0 -54 11t-44.5 29.5t-30.5 43.5t-11 53zM561 1661q0 28 11 53.5t30 44.5t44 30t54 11 q28 0 52.5 -11t43.5 -30t30 -44.5t11 -53.5t-11 -53t-30 -43.5t-43.5 -29.5t-52.5 -11q-29 0 -54 11t-44 29.5t-30 43.5t-11 53z" />
<glyph unicode="&#xd0;" horiz-adv-x="1423" d="M102 647l35 205h135l103 582h284q171 0 304.5 -41t222.5 -124.5t125 -191.5t36 -229q1 -164 -39 -298t-107 -227.5t-145.5 -153t-165.5 -97t-179 -55t-181 -17.5h-407l115 647h-136zM369 211h188q88 0 167 22t141.5 59.5t110 89.5t78 111t48.5 129.5t22 191.5 q0 112 -29 185t-88.5 124t-150 75.5t-207.5 24.5h-102l-66 -371h252l-35 -205h-252z" />
<glyph unicode="&#xd1;" horiz-adv-x="1454" d="M92 0l254 1434h207l478 -1066l186 1066h210l-253 -1434h-197l-488 1071l-186 -1071h-211zM502 1530q14 76 37 126t52.5 83.5t68.5 51t86 17.5q48 0 93 -17.5t84 -39.5q41 -24 78 -43t66 -19q34 0 57 25t42 88h145q-16 -85 -37 -131t-50.5 -79t-68 -51t-88.5 -18 q-52 0 -96.5 18t-83.5 41t-75 41.5t-64 18.5q-34 0 -58 -24.5t-43 -87.5h-145z" />
<glyph unicode="&#xd2;" horiz-adv-x="1448" d="M131 575q1 97 26 218t70 220t99 170.5t128 132.5t177 100.5t221 39.5q144 0 253 -57.5t170.5 -150.5t83.5 -188.5t23 -184.5q0 -115 -25.5 -237t-70.5 -220t-101 -172.5t-134 -136.5t-174.5 -97t-204.5 -35q-147 0 -258.5 57t-180.5 160t-85.5 207t-16.5 174zM355 620 q-2 -53 9 -130t52.5 -150t110.5 -114.5t159 -41.5q101 0 191 51.5t155.5 151.5t95.5 222t30 201q2 76 -10.5 145.5t-52 139t-110.5 112t-166 42.5q-97 0 -185.5 -52.5t-154.5 -156t-94 -223t-30 -197.5zM537 1853h287l161 -327h-167z" />
<glyph unicode="&#xd3;" horiz-adv-x="1448" d="M131 575q1 97 26 218t70 220t99 170.5t128 132.5t177 100.5t221 39.5q144 0 253 -57.5t170.5 -150.5t83.5 -188.5t23 -184.5q0 -115 -25.5 -237t-70.5 -220t-101 -172.5t-134 -136.5t-174.5 -97t-204.5 -35q-147 0 -258.5 57t-180.5 160t-85.5 207t-16.5 174zM355 620 q-2 -53 9 -130t52.5 -150t110.5 -114.5t159 -41.5q101 0 191 51.5t155.5 151.5t95.5 222t30 201q2 76 -10.5 145.5t-52 139t-110.5 112t-166 42.5q-97 0 -185.5 -52.5t-154.5 -156t-94 -223t-30 -197.5zM731 1526l277 327h286l-395 -327h-168z" />
<glyph unicode="&#xd4;" horiz-adv-x="1448" d="M131 575q1 97 26 218t70 220t99 170.5t128 132.5t177 100.5t221 39.5q144 0 253 -57.5t170.5 -150.5t83.5 -188.5t23 -184.5q0 -115 -25.5 -237t-70.5 -220t-101 -172.5t-134 -136.5t-174.5 -97t-204.5 -35q-147 0 -258.5 57t-180.5 160t-85.5 207t-16.5 174zM355 620 q-2 -53 9 -130t52.5 -150t110.5 -114.5t159 -41.5q101 0 191 51.5t155.5 151.5t95.5 222t30 201q2 76 -10.5 145.5t-52 139t-110.5 112t-166 42.5q-97 0 -185.5 -52.5t-154.5 -156t-94 -223t-30 -197.5zM518 1516l297 327h246l182 -327h-162l-163 180l-226 -180h-174z" />
<glyph unicode="&#xd5;" horiz-adv-x="1448" d="M131 575q1 97 26 218t70 220t99 170.5t128 132.5t177 100.5t221 39.5q144 0 253 -57.5t170.5 -150.5t83.5 -188.5t23 -184.5q0 -115 -25.5 -237t-70.5 -220t-101 -172.5t-134 -136.5t-174.5 -97t-204.5 -35q-147 0 -258.5 57t-180.5 160t-85.5 207t-16.5 174zM355 620 q-2 -53 9 -130t52.5 -150t110.5 -114.5t159 -41.5q101 0 191 51.5t155.5 151.5t95.5 222t30 201q2 76 -10.5 145.5t-52 139t-110.5 112t-166 42.5q-97 0 -185.5 -52.5t-154.5 -156t-94 -223t-30 -197.5zM510 1526q14 76 37 126t52.5 83.5t68.5 51t86 17.5q48 0 93 -17.5 t84 -39.5q41 -24 78 -43t66 -19q34 0 57 25t42 88h145q-16 -85 -37 -131t-50.5 -79t-68 -51t-88.5 -18q-52 0 -96.5 18t-83.5 41t-75 41.5t-64 18.5q-34 0 -58 -24.5t-43 -87.5h-145z" />
<glyph unicode="&#xd6;" horiz-adv-x="1448" d="M131 575q1 97 26 218t70 220t99 170.5t128 132.5t177 100.5t221 39.5q144 0 253 -57.5t170.5 -150.5t83.5 -188.5t23 -184.5q0 -115 -25.5 -237t-70.5 -220t-101 -172.5t-134 -136.5t-174.5 -97t-204.5 -35q-147 0 -258.5 57t-180.5 160t-85.5 207t-16.5 174zM355 620 q-2 -53 9 -130t52.5 -150t110.5 -114.5t159 -41.5q101 0 191 51.5t155.5 151.5t95.5 222t30 201q2 76 -10.5 145.5t-52 139t-110.5 112t-166 42.5q-97 0 -185.5 -52.5t-154.5 -156t-94 -223t-30 -197.5zM567 1663q0 28 11 53.5t30.5 44.5t44.5 30t54 11q27 0 52 -11t44 -30 t30 -44.5t11 -53.5t-11 -53t-30 -43.5t-44 -29.5t-52 -11q-29 0 -54 11t-44.5 29.5t-30.5 43.5t-11 53zM967 1663q0 28 11 53.5t30 44.5t44 30t54 11q28 0 52.5 -11t43.5 -30t30 -44.5t11 -53.5t-11 -53t-30 -43.5t-43.5 -29.5t-52.5 -11q-29 0 -54 11t-44 29.5t-30 43.5 t-11 53z" />
<glyph unicode="&#xd7;" d="M157 340l371 365l-371 364l133 133l365 -371l364 371l134 -133l-371 -364l371 -365l-134 -133l-364 371l-365 -371z" />
<glyph unicode="&#xd8;" horiz-adv-x="1448" d="M132 558q0 126 25.5 242t70.5 214.5t101 173t136 137t179.5 97t207.5 34.5q138 0 244 -53l84 133h200l-147 -236q71 -77 109.5 -188t38.5 -237t-25 -242.5t-70 -214.5t-101 -172.5t-134 -136.5t-174.5 -97t-204.5 -35q-144 1 -244 50l-82 -129h-201l144 227 q-81 83 -119 196t-38 237zM355 595q-1 -148 65 -261l555 878q-69 37 -149 37q-100 0 -185 -48t-152 -146t-100.5 -224.5t-33.5 -235.5zM547 215q64 -31 139 -31q98 0 184 47t154 144t101.5 224.5t33.5 236.5q1 144 -59 254z" />
<glyph unicode="&#xd9;" horiz-adv-x="1434" d="M174 455q2 35 6.5 79t12.5 89l143 811h215l-143 -811q-7 -38 -11 -73.5t-4 -66.5q0 -147 75.5 -222t219.5 -75q83 0 143 27t104 79t70.5 119.5t49.5 184.5l147 838h215l-151 -854q-26 -144 -71.5 -256t-117.5 -189t-172.5 -117.5t-234.5 -40.5q-117 0 -209 31.5t-156 92 t-97.5 149.5t-33.5 205zM563 1822h287l161 -327h-167z" />
<glyph unicode="&#xda;" horiz-adv-x="1434" d="M174 455q2 35 6.5 79t12.5 89l143 811h215l-143 -811q-7 -38 -11 -73.5t-4 -66.5q0 -147 75.5 -222t219.5 -75q83 0 143 27t104 79t70.5 119.5t49.5 184.5l147 838h215l-151 -854q-26 -144 -71.5 -256t-117.5 -189t-172.5 -117.5t-234.5 -40.5q-117 0 -209 31.5t-156 92 t-97.5 149.5t-33.5 205zM729 1495l277 327h286l-395 -327h-168z" />
<glyph unicode="&#xdb;" horiz-adv-x="1434" d="M174 455q2 35 6.5 79t12.5 89l143 811h215l-143 -811q-7 -38 -11 -73.5t-4 -66.5q0 -147 75.5 -222t219.5 -75q83 0 143 27t104 79t70.5 119.5t49.5 184.5l147 838h215l-151 -854q-26 -144 -71.5 -256t-117.5 -189t-172.5 -117.5t-234.5 -40.5q-117 0 -209 31.5t-156 92 t-97.5 149.5t-33.5 205zM528 1526l297 327h246l182 -327h-162l-163 180l-226 -180h-174z" />
<glyph unicode="&#xdc;" horiz-adv-x="1434" d="M174 455q2 35 6.5 79t12.5 89l143 811h215l-143 -811q-7 -38 -11 -73.5t-4 -66.5q0 -147 75.5 -222t219.5 -75q83 0 143 27t104 79t70.5 119.5t49.5 184.5l147 838h215l-151 -854q-26 -144 -71.5 -256t-117.5 -189t-172.5 -117.5t-234.5 -40.5q-117 0 -209 31.5t-156 92 t-97.5 149.5t-33.5 205zM573 1663q0 28 11 53.5t30.5 44.5t44.5 30t54 11q27 0 52 -11t44 -30t30 -44.5t11 -53.5t-11 -53t-30 -43.5t-44 -29.5t-52 -11q-29 0 -54 11t-44.5 29.5t-30.5 43.5t-11 53zM973 1663q0 28 11 53.5t30 44.5t44 30t54 11q28 0 52.5 -11t43.5 -30 t30 -44.5t11 -53.5t-11 -53t-30 -43.5t-43.5 -29.5t-52.5 -11q-29 0 -54 11t-44 29.5t-30 43.5t-11 53z" />
<glyph unicode="&#xdd;" horiz-adv-x="1403" d="M244 1434h239l258 -651l488 651h250l-666 -869l-98 -565h-215l100 567zM702 1498l277 327h286l-395 -327h-168z" />
<glyph unicode="&#xde;" horiz-adv-x="1313" d="M92 0l252 1434h215l-43 -240h275q106 0 196.5 -27.5t154.5 -81.5t96.5 -134.5t23.5 -186.5q-10 -127 -57 -216t-122.5 -145.5t-174 -82t-212.5 -25.5h-338l-51 -295h-215zM395 502h322q145 0 230 66.5t93 191.5q3 57 -14 99.5t-52 71t-87 42.5t-119 14h-287z" />
<glyph unicode="&#xdf;" horiz-adv-x="1176" d="M-6 -395l258 1472q38 212 147 311t295 99q87 0 157.5 -23t121 -65.5t77.5 -102t27 -131.5q0 -70 -18.5 -128.5t-51.5 -104t-78 -76.5t-98 -45q44 -12 87 -36.5t77 -62.5t55 -92t21 -126q0 -131 -42 -224t-115.5 -152.5t-174 -87.5t-217.5 -28q-40 0 -82 4l31 193 q32 -2 61 -2q155 0 240.5 74.5t85.5 211.5q0 109 -71.5 170.5t-202.5 61.5h-19l33 190h31q55 0 98.5 17t74 47.5t46.5 72t16 91.5q0 71 -49 115t-131 44q-100 0 -151.5 -57t-69.5 -158l-240 -1360z" />
<glyph unicode="&#xe0;" horiz-adv-x="1110" d="M64 290q1 113 44.5 192t106.5 123t140 65.5t161 21.5q67 0 138.5 -13t127.5 -40l15 78q3 15 4.5 32t1.5 29q0 69 -47.5 100t-149.5 31q-75 0 -143.5 -18t-130.5 -49l-60 168q82 41 177.5 64.5t181.5 23.5q87 0 157 -17.5t120 -53.5t77 -91.5t27 -132.5q0 -22 -2.5 -43.5 t-5.5 -44.5l-125 -715h-207l16 96q-50 -49 -121.5 -84t-163.5 -35q-74 0 -138.5 22t-111.5 65.5t-68 101t-21 124.5zM270 316q0 -75 49 -115.5t138 -40.5q40 0 78.5 11t73 29t63.5 41.5t51 49.5l31 174q-42 23 -104.5 38t-143.5 15q-47 0 -89.5 -11.5t-75 -36t-52 -63 t-19.5 -91.5zM365 1546h287l161 -327h-167z" />
<glyph unicode="&#xe1;" horiz-adv-x="1110" d="M64 290q1 113 44.5 192t106.5 123t140 65.5t161 21.5q67 0 138.5 -13t127.5 -40l15 78q3 15 4.5 32t1.5 29q0 69 -47.5 100t-149.5 31q-75 0 -143.5 -18t-130.5 -49l-60 168q82 41 177.5 64.5t181.5 23.5q87 0 157 -17.5t120 -53.5t77 -91.5t27 -132.5q0 -22 -2.5 -43.5 t-5.5 -44.5l-125 -715h-207l16 96q-50 -49 -121.5 -84t-163.5 -35q-74 0 -138.5 22t-111.5 65.5t-68 101t-21 124.5zM270 316q0 -75 49 -115.5t138 -40.5q40 0 78.5 11t73 29t63.5 41.5t51 49.5l31 174q-42 23 -104.5 38t-143.5 15q-47 0 -89.5 -11.5t-75 -36t-52 -63 t-19.5 -91.5zM547 1219l277 327h286l-395 -327h-168z" />
<glyph unicode="&#xe2;" horiz-adv-x="1110" d="M64 290q1 113 44.5 192t106.5 123t140 65.5t161 21.5q67 0 138.5 -13t127.5 -40l15 78q3 15 4.5 32t1.5 29q0 69 -47.5 100t-149.5 31q-75 0 -143.5 -18t-130.5 -49l-60 168q82 41 177.5 64.5t181.5 23.5q87 0 157 -17.5t120 -53.5t77 -91.5t27 -132.5q0 -22 -2.5 -43.5 t-5.5 -44.5l-125 -715h-207l16 96q-50 -49 -121.5 -84t-163.5 -35q-74 0 -138.5 22t-111.5 65.5t-68 101t-21 124.5zM270 316q0 -75 49 -115.5t138 -40.5q40 0 78.5 11t73 29t63.5 41.5t51 49.5l31 174q-42 23 -104.5 38t-143.5 15q-47 0 -89.5 -11.5t-75 -36t-52 -63 t-19.5 -91.5zM317 1211l297 327h246l182 -327h-162l-163 180l-226 -180h-174z" />
<glyph unicode="&#xe3;" horiz-adv-x="1110" d="M64 290q1 113 44.5 192t106.5 123t140 65.5t161 21.5q67 0 138.5 -13t127.5 -40l15 78q3 15 4.5 32t1.5 29q0 69 -47.5 100t-149.5 31q-75 0 -143.5 -18t-130.5 -49l-60 168q82 41 177.5 64.5t181.5 23.5q87 0 157 -17.5t120 -53.5t77 -91.5t27 -132.5q0 -22 -2.5 -43.5 t-5.5 -44.5l-125 -715h-207l16 96q-50 -49 -121.5 -84t-163.5 -35q-74 0 -138.5 22t-111.5 65.5t-68 101t-21 124.5zM270 316q0 -75 49 -115.5t138 -40.5q40 0 78.5 11t73 29t63.5 41.5t51 49.5l31 174q-42 23 -104.5 38t-143.5 15q-47 0 -89.5 -11.5t-75 -36t-52 -63 t-19.5 -91.5zM285 1219q14 76 37 126t52.5 83.5t68.5 51t86 17.5q48 0 93 -17.5t84 -39.5q41 -24 78 -43t66 -19q34 0 57 25t42 88h145q-16 -85 -37 -131t-50.5 -79t-68 -51t-88.5 -18q-52 0 -96.5 18t-83.5 41t-75 41.5t-64 18.5q-34 0 -58 -24.5t-43 -87.5h-145z" />
<glyph unicode="&#xe4;" horiz-adv-x="1110" d="M64 290q1 113 44.5 192t106.5 123t140 65.5t161 21.5q67 0 138.5 -13t127.5 -40l15 78q3 15 4.5 32t1.5 29q0 69 -47.5 100t-149.5 31q-75 0 -143.5 -18t-130.5 -49l-60 168q82 41 177.5 64.5t181.5 23.5q87 0 157 -17.5t120 -53.5t77 -91.5t27 -132.5q0 -22 -2.5 -43.5 t-5.5 -44.5l-125 -715h-207l16 96q-50 -49 -121.5 -84t-163.5 -35q-74 0 -138.5 22t-111.5 65.5t-68 101t-21 124.5zM270 316q0 -75 49 -115.5t138 -40.5q40 0 78.5 11t73 29t63.5 41.5t51 49.5l31 174q-42 23 -104.5 38t-143.5 15q-47 0 -89.5 -11.5t-75 -36t-52 -63 t-19.5 -91.5zM364 1348q0 28 11 53.5t30.5 44.5t44.5 30t54 11q27 0 52 -11t44 -30t30 -44.5t11 -53.5t-11 -53t-30 -43.5t-44 -29.5t-52 -11q-29 0 -54 11t-44.5 29.5t-30.5 43.5t-11 53zM764 1348q0 28 11 53.5t30 44.5t44 30t54 11q28 0 52.5 -11t43.5 -30t30 -44.5 t11 -53.5t-11 -53t-30 -43.5t-43.5 -29.5t-52.5 -11q-29 0 -54 11t-44 29.5t-30 43.5t-11 53z" />
<glyph unicode="&#xe5;" horiz-adv-x="1110" d="M64 290q1 113 44.5 192t106.5 123t140 65.5t161 21.5q67 0 138.5 -13t127.5 -40l15 78q3 15 4.5 32t1.5 29q0 69 -47.5 100t-149.5 31q-75 0 -143.5 -18t-130.5 -49l-60 168q82 41 177.5 64.5t181.5 23.5q87 0 157 -17.5t120 -53.5t77 -91.5t27 -132.5q0 -22 -2.5 -43.5 t-5.5 -44.5l-125 -715h-207l16 96q-50 -49 -121.5 -84t-163.5 -35q-74 0 -138.5 22t-111.5 65.5t-68 101t-21 124.5zM270 316q0 -75 49 -115.5t138 -40.5q40 0 78.5 11t73 29t63.5 41.5t51 49.5l31 174q-42 23 -104.5 38t-143.5 15q-47 0 -89.5 -11.5t-75 -36t-52 -63 t-19.5 -91.5zM471 1475q0 55 19.5 102.5t54 82t81.5 54t103 19.5q55 0 102.5 -19.5t82 -54t54 -82t19.5 -102.5q0 -56 -19.5 -102.5t-54 -81t-82 -53.5t-102.5 -19q-56 0 -103 19t-81.5 53.5t-54 81t-19.5 102.5zM604 1475q0 -28 9.5 -51t26 -40t39.5 -26.5t50 -9.5 t49.5 9.5t39.5 26.5t26.5 40t9.5 51q0 27 -9.5 50.5t-26.5 40.5t-39.5 26.5t-49.5 9.5t-50 -9.5t-39.5 -26.5t-26 -40.5t-9.5 -50.5z" />
<glyph unicode="&#xe6;" horiz-adv-x="1747" d="M66 330q7 93 46 161t101.5 113t142.5 66.5t168 21.5q67 0 130.5 -14.5t113.5 -38.5l16 90q2 11 3 23.5t1 23.5q0 66 -43 102.5t-133 36.5q-75 0 -142.5 -16.5t-135.5 -50.5l-60 162q76 39 172 63.5t189 24.5q115 0 192 -34t115 -110q60 66 138.5 105t172.5 39 q100 0 172.5 -35.5t119 -95.5t69 -139t22.5 -166q0 -57 -7 -108t-19 -89h-674q-6 -69 9.5 -122.5t48 -90t80 -55.5t106.5 -19q58 0 114 20t113 58l102 -152q-85 -66 -173.5 -96.5t-178.5 -30.5q-121 0 -209 48t-141 127q-92 -84 -191 -129.5t-210 -45.5q-78 0 -143.5 23 t-111.5 67.5t-68.5 110.5t-16.5 152zM276 328q-2 -79 43 -123.5t138 -44.5q73 0 146.5 38t133.5 101q-2 7 -4.5 35.5t0.5 68.5l6 62q-43 23 -97.5 38t-135.5 15q-46 0 -87 -11t-73 -36t-49.5 -60t-20.5 -83zM965 635h471q5 57 -4.5 107t-35 86.5t-67 57.5t-100.5 21 q-52 0 -95 -20.5t-76 -57t-56.5 -86.5t-36.5 -108z" />
<glyph unicode="&#xe7;" horiz-adv-x="1061" d="M92 443q0 151 46 278t127 213t176.5 125t191.5 39q77 0 136 -17.5t104 -46.5t79 -67t60 -78l-156 -141q-46 72 -105 110.5t-135 38.5q-58 0 -111 -25.5t-98 -80.5t-73 -142t-28 -194q0 -127 63 -202t178 -75q65 0 122 29.5t117 85.5l113 -143q-87 -85 -180.5 -129 t-198.5 -44q-104 0 -187 38.5t-138.5 107.5t-79 153t-23.5 167zM162 -303l55 67q43 -30 91.5 -47.5t107.5 -17.5q51 0 82.5 17.5t33.5 56.5q3 30 -12 45.5t-49 15.5q-23 0 -41 -5.5t-37 -16.5l-70 28l89 199h100l-57 -133q17 8 37.5 13t48.5 5q65 0 102 -35t37 -97 q0 -47 -20 -83t-51.5 -58.5t-74.5 -34t-94 -11.5q-86 0 -157.5 27t-120.5 65z" />
<glyph unicode="&#xe8;" horiz-adv-x="1116" d="M92 444q0 144 45 273.5t122 215.5t168.5 125.5t188.5 39.5t170 -33t122 -91t73.5 -137.5t24.5 -172.5q0 -53 -7.5 -103.5t-19.5 -95.5h-682q-6 -70 10 -125t49 -93.5t81.5 -58.5t107.5 -20q66 0 123.5 23.5t117.5 60.5l93 -148q-84 -63 -172 -95t-191 -32 q-104 0 -187 37.5t-138.5 106t-77 153.5t-21.5 170zM324 635h481q5 58 -4.5 108t-35.5 86.5t-68.5 57t-102.5 20.5q-54 0 -97.5 -20.5t-77 -56.5t-57.5 -86t-38 -109zM340 1546h287l161 -327h-167z" />
<glyph unicode="&#xe9;" horiz-adv-x="1116" d="M92 444q0 144 45 273.5t122 215.5t168.5 125.5t188.5 39.5t170 -33t122 -91t73.5 -137.5t24.5 -172.5q0 -53 -7.5 -103.5t-19.5 -95.5h-682q-6 -70 10 -125t49 -93.5t81.5 -58.5t107.5 -20q66 0 123.5 23.5t117.5 60.5l93 -148q-84 -63 -172 -95t-191 -32 q-104 0 -187 37.5t-138.5 106t-77 153.5t-21.5 170zM324 635h481q5 58 -4.5 108t-35.5 86.5t-68.5 57t-102.5 20.5q-54 0 -97.5 -20.5t-77 -56.5t-57.5 -86t-38 -109zM543 1219l277 327h286l-395 -327h-168z" />
<glyph unicode="&#xea;" horiz-adv-x="1116" d="M92 444q0 144 45 273.5t122 215.5t168.5 125.5t188.5 39.5t170 -33t122 -91t73.5 -137.5t24.5 -172.5q0 -53 -7.5 -103.5t-19.5 -95.5h-682q-6 -70 10 -125t49 -93.5t81.5 -58.5t107.5 -20q66 0 123.5 23.5t117.5 60.5l93 -148q-84 -63 -172 -95t-191 -32 q-104 0 -187 37.5t-138.5 106t-77 153.5t-21.5 170zM313 1201l297 327h246l182 -327h-162l-163 180l-226 -180h-174zM324 635h481q5 58 -4.5 108t-35.5 86.5t-68.5 57t-102.5 20.5q-54 0 -97.5 -20.5t-77 -56.5t-57.5 -86t-38 -109z" />
<glyph unicode="&#xeb;" horiz-adv-x="1116" d="M92 444q0 144 45 273.5t122 215.5t168.5 125.5t188.5 39.5t170 -33t122 -91t73.5 -137.5t24.5 -172.5q0 -53 -7.5 -103.5t-19.5 -95.5h-682q-6 -70 10 -125t49 -93.5t81.5 -58.5t107.5 -20q66 0 123.5 23.5t117.5 60.5l93 -148q-84 -63 -172 -95t-191 -32 q-104 0 -187 37.5t-138.5 106t-77 153.5t-21.5 170zM324 635h481q5 58 -4.5 108t-35.5 86.5t-68.5 57t-102.5 20.5q-54 0 -97.5 -20.5t-77 -56.5t-57.5 -86t-38 -109zM362 1348q0 28 11 53.5t30.5 44.5t44.5 30t54 11q27 0 52 -11t44 -30t30 -44.5t11 -53.5t-11 -53 t-30 -43.5t-44 -29.5t-52 -11q-29 0 -54 11t-44.5 29.5t-30.5 43.5t-11 53zM762 1348q0 28 11 53.5t30 44.5t44 30t54 11q28 0 52.5 -11t43.5 -30t30 -44.5t11 -53.5t-11 -53t-30 -43.5t-43.5 -29.5t-52.5 -11q-29 0 -54 11t-44 29.5t-30 43.5t-11 53z" />
<glyph unicode="&#xec;" horiz-adv-x="543" d="M49 1546h287l161 -327h-167zM72 0l188 1075h211l-188 -1075h-211z" />
<glyph unicode="&#xed;" horiz-adv-x="543" d="M72 0l188 1075h211l-188 -1075h-211zM284 1219l277 327h286l-395 -327h-168z" />
<glyph unicode="&#xee;" horiz-adv-x="543" d="M28 1190l297 327h246l182 -327h-162l-163 180l-226 -180h-174zM72 0l188 1075h211l-188 -1075h-211z" />
<glyph unicode="&#xef;" horiz-adv-x="543" d="M72 0l188 1075h211l-188 -1075h-211zM77 1338q0 28 11 53.5t30.5 44.5t44.5 30t54 11q27 0 52 -11t44 -30t30 -44.5t11 -53.5t-11 -53t-30 -43.5t-44 -29.5t-52 -11q-29 0 -54 11t-44.5 29.5t-30.5 43.5t-11 53zM477 1338q0 28 11 53.5t30 44.5t44 30t54 11 q28 0 52.5 -11t43.5 -30t30 -44.5t11 -53.5t-11 -53t-30 -43.5t-43.5 -29.5t-52.5 -11q-29 0 -54 11t-44 29.5t-30 43.5t-11 53z" />
<glyph unicode="&#xf0;" horiz-adv-x="1159" d="M86 399q0 134 47 247.5t124.5 188.5t165 110.5t173.5 35.5q117 0 191.5 -36.5t117.5 -96.5q-9 91 -35 170t-86 141l-120 -108l-103 106l96 86q-79 33 -157 45l28 172q156 -21 277 -86l92 82l102 -106l-75 -68q78 -83 119.5 -206t41.5 -294q0 -146 -22.5 -262.5 t-62.5 -206t-94.5 -153.5t-118 -104.5t-132.5 -59.5t-139 -19q-98 0 -177 31t-135.5 86.5t-87 133.5t-30.5 171zM303 406q0 -112 58.5 -174t173.5 -62q64 0 120 29.5t97 81t64.5 121.5t23.5 151q0 55 -17.5 99t-49.5 75t-77.5 47.5t-101.5 16.5q-63 0 -116.5 -28.5 t-92 -79.5t-60.5 -122t-22 -155z" />
<glyph unicode="&#xf1;" horiz-adv-x="1159" d="M59 0l191 1075h211l-17 -92q55 56 120.5 85.5t146.5 29.5q159 0 244 -84.5t85 -249.5q0 -31 -4 -66.5t-10 -70.5l-111 -627h-210l104 600q5 28 7.5 55t2.5 50q0 102 -40 150t-134 48q-47 0 -90 -18.5t-77 -54.5t-60 -90t-43 -142l-105 -598h-211zM317 1219q14 76 37 126 t52.5 83.5t68.5 51t86 17.5q48 0 93 -17.5t84 -39.5q41 -24 78 -43t66 -19q34 0 57 25t42 88h145q-16 -85 -37 -131t-50.5 -79t-68 -51t-88.5 -18q-52 0 -96.5 18t-83.5 41t-75 41.5t-64 18.5q-34 0 -58 -24.5t-43 -87.5h-145z" />
<glyph unicode="&#xf2;" horiz-adv-x="1159" d="M92 451q0 136 47 265t128 214.5t174 126.5t188 41q106 0 191.5 -39.5t141 -108t80 -151.5t24.5 -164q0 -158 -48 -283t-128.5 -209.5t-174 -125t-191.5 -40.5q-104 0 -187.5 39t-140.5 109t-80.5 154.5t-23.5 171.5zM306 470q-1 -60 11.5 -111t42 -92.5t75.5 -65 t108 -23.5q64 0 118.5 30.5t97 87t68.5 139.5t26 179q0 51 -11.5 101t-42 92.5t-78 66t-111.5 23.5q-61 0 -115 -29.5t-97 -87.5t-67.5 -141t-24.5 -169zM352 1546h287l161 -327h-167z" />
<glyph unicode="&#xf3;" horiz-adv-x="1159" d="M92 451q0 136 47 265t128 214.5t174 126.5t188 41q106 0 191.5 -39.5t141 -108t80 -151.5t24.5 -164q0 -158 -48 -283t-128.5 -209.5t-174 -125t-191.5 -40.5q-104 0 -187.5 39t-140.5 109t-80.5 154.5t-23.5 171.5zM306 470q-1 -60 11.5 -111t42 -92.5t75.5 -65 t108 -23.5q64 0 118.5 30.5t97 87t68.5 139.5t26 179q0 51 -11.5 101t-42 92.5t-78 66t-111.5 23.5q-61 0 -115 -29.5t-97 -87.5t-67.5 -141t-24.5 -169zM555 1219l277 327h286l-395 -327h-168z" />
<glyph unicode="&#xf4;" horiz-adv-x="1159" d="M92 451q0 136 47 265t128 214.5t174 126.5t188 41q106 0 191.5 -39.5t141 -108t80 -151.5t24.5 -164q0 -158 -48 -283t-128.5 -209.5t-174 -125t-191.5 -40.5q-104 0 -187.5 39t-140.5 109t-80.5 154.5t-23.5 171.5zM306 470q-1 -60 11.5 -111t42 -92.5t75.5 -65 t108 -23.5q64 0 118.5 30.5t97 87t68.5 139.5t26 179q0 51 -11.5 101t-42 92.5t-78 66t-111.5 23.5q-61 0 -115 -29.5t-97 -87.5t-67.5 -141t-24.5 -169zM319 1201l297 327h246l182 -327h-162l-163 180l-226 -180h-174z" />
<glyph unicode="&#xf5;" horiz-adv-x="1159" d="M92 451q0 136 47 265t128 214.5t174 126.5t188 41q106 0 191.5 -39.5t141 -108t80 -151.5t24.5 -164q0 -158 -48 -283t-128.5 -209.5t-174 -125t-191.5 -40.5q-104 0 -187.5 39t-140.5 109t-80.5 154.5t-23.5 171.5zM305 1219q14 76 37 126t52.5 83.5t68.5 51t86 17.5 q48 0 93 -17.5t84 -39.5q41 -24 78 -43t66 -19q34 0 57 25t42 88h145q-16 -85 -37 -131t-50.5 -79t-68 -51t-88.5 -18q-52 0 -96.5 18t-83.5 41t-75 41.5t-64 18.5q-34 0 -58 -24.5t-43 -87.5h-145zM306 470q-1 -60 11.5 -111t42 -92.5t75.5 -65t108 -23.5q64 0 118.5 30.5 t97 87t68.5 139.5t26 179q0 51 -11.5 101t-42 92.5t-78 66t-111.5 23.5q-61 0 -115 -29.5t-97 -87.5t-67.5 -141t-24.5 -169z" />
<glyph unicode="&#xf6;" horiz-adv-x="1159" d="M92 451q0 136 47 265t128 214.5t174 126.5t188 41q106 0 191.5 -39.5t141 -108t80 -151.5t24.5 -164q0 -158 -48 -283t-128.5 -209.5t-174 -125t-191.5 -40.5q-104 0 -187.5 39t-140.5 109t-80.5 154.5t-23.5 171.5zM306 470q-1 -60 11.5 -111t42 -92.5t75.5 -65 t108 -23.5q64 0 118.5 30.5t97 87t68.5 139.5t26 179q0 51 -11.5 101t-42 92.5t-78 66t-111.5 23.5q-61 0 -115 -29.5t-97 -87.5t-67.5 -141t-24.5 -169zM368 1338q0 28 11 53.5t30.5 44.5t44.5 30t54 11q27 0 52 -11t44 -30t30 -44.5t11 -53.5t-11 -53t-30 -43.5t-44 -29.5 t-52 -11q-29 0 -54 11t-44.5 29.5t-30.5 43.5t-11 53zM768 1338q0 28 11 53.5t30 44.5t44 30t54 11q28 0 52.5 -11t43.5 -30t30 -44.5t11 -53.5t-11 -53t-30 -43.5t-43.5 -29.5t-52.5 -11q-29 0 -54 11t-44 29.5t-30 43.5t-11 53z" />
<glyph unicode="&#xf7;" d="M161 610v189h989v-189h-989zM505 272q0 31 12 59t32.5 49t47.5 33.5t58 12.5q30 0 57 -12.5t47.5 -33.5t32.5 -49t12 -59q0 -32 -12 -59t-32.5 -47t-47.5 -31.5t-57 -11.5q-32 0 -59 11.5t-47.5 31.5t-32 47t-11.5 59zM505 1133q0 31 12 59t32.5 49t47.5 33t58 12 q30 0 57 -12t47.5 -33t32.5 -49t12 -59q0 -32 -12 -59t-32.5 -47.5t-47.5 -32t-57 -11.5q-32 0 -59 11.5t-47.5 32t-32 47.5t-11.5 59z" />
<glyph unicode="&#xf8;" horiz-adv-x="1159" d="M59 -102l146 215q-59 70 -85.5 154t-26.5 177q0 155 47 277.5t124 206t172 127t193 43.5q54 0 103.5 -10.5t105.5 -36.5l86 127h188l-151 -226q53 -64 79 -148t26 -169q0 -158 -48 -283t-128.5 -209.5t-174 -125t-191.5 -40.5q-54 0 -102.5 10.5t-91.5 30.5l-82 -120 h-189zM306 462q0 -93 28 -157l389 578q-24 12 -51 18.5t-58 7.5q-66 0 -120.5 -32.5t-97 -93t-66.5 -144.5t-24 -177zM442 186q52 -20 101 -20q64 0 118.5 32.5t98 93t68.5 142.5t25 175q0 84 -26 149z" />
<glyph unicode="&#xf9;" horiz-adv-x="1159" d="M117 311q0 31 4 66.5t10 71.5l111 626h211l-105 -600q-5 -28 -7.5 -54.5t-2.5 -49.5q0 -102 40 -150.5t134 -48.5q49 0 92.5 19t79 57t60.5 95t38 134l105 598h211l-191 -1075h-211l17 92q-66 -65 -129 -90t-138 -25q-158 0 -243.5 84.5t-85.5 249.5zM375 1546h287 l161 -327h-167z" />
<glyph unicode="&#xfa;" horiz-adv-x="1159" d="M117 311q0 31 4 66.5t10 71.5l111 626h211l-105 -600q-5 -28 -7.5 -54.5t-2.5 -49.5q0 -102 40 -150.5t134 -48.5q49 0 92.5 19t79 57t60.5 95t38 134l105 598h211l-191 -1075h-211l17 92q-66 -65 -129 -90t-138 -25q-158 0 -243.5 84.5t-85.5 249.5zM573 1219l277 327 h286l-395 -327h-168z" />
<glyph unicode="&#xfb;" horiz-adv-x="1159" d="M117 311q0 31 4 66.5t10 71.5l111 626h211l-105 -600q-5 -28 -7.5 -54.5t-2.5 -49.5q0 -102 40 -150.5t134 -48.5q49 0 92.5 19t79 57t60.5 95t38 134l105 598h211l-191 -1075h-211l17 92q-66 -65 -129 -90t-138 -25q-158 0 -243.5 84.5t-85.5 249.5zM342 1219l297 327 h246l182 -327h-162l-163 180l-226 -180h-174z" />
<glyph unicode="&#xfc;" horiz-adv-x="1159" d="M117 311q0 31 4 66.5t10 71.5l111 626h211l-105 -600q-5 -28 -7.5 -54.5t-2.5 -49.5q0 -102 40 -150.5t134 -48.5q49 0 92.5 19t79 57t60.5 95t38 134l105 598h211l-191 -1075h-211l17 92q-66 -65 -129 -90t-138 -25q-158 0 -243.5 84.5t-85.5 249.5zM391 1356 q0 28 11 53.5t30.5 44.5t44.5 30t54 11q27 0 52 -11t44 -30t30 -44.5t11 -53.5t-11 -53t-30 -43.5t-44 -29.5t-52 -11q-29 0 -54 11t-44.5 29.5t-30.5 43.5t-11 53zM791 1356q0 28 11 53.5t30 44.5t44 30t54 11q28 0 52.5 -11t43.5 -30t30 -44.5t11 -53.5t-11 -53t-30 -43.5 t-43.5 -29.5t-52.5 -11q-29 0 -54 11t-44 29.5t-30 43.5t-11 53z" />
<glyph unicode="&#xfd;" horiz-adv-x="1128" d="M156 -379l211 385l-205 1069h223l128 -801l417 801h225l-774 -1454h-225zM534 1201l277 327h286l-395 -327h-168z" />
<glyph unicode="&#xfe;" horiz-adv-x="1159" d="M-8 -395l313 1779l227 109l-90 -508q54 53 121 83t148 30q82 0 151.5 -32.5t118 -97t71.5 -161.5t11 -227q-10 -142 -53 -254t-109.5 -189.5t-152 -118.5t-179.5 -41q-41 0 -83 8.5t-79.5 26.5t-66.5 41t-51 49l-68 -389zM324 315q13 -22 39 -47t59 -46.5t71 -35.5 t76 -14q57 0 109 29.5t91 89t61 145.5t22 201q1 124 -53.5 195t-153.5 71q-33 0 -65.5 -10t-63 -27t-58.5 -39t-52 -45z" />
<glyph unicode="&#xff;" horiz-adv-x="1128" d="M156 -379l211 385l-205 1069h223l128 -801l417 801h225l-774 -1454h-225zM364 1338q0 28 11 53.5t30.5 44.5t44.5 30t54 11q27 0 52 -11t44 -30t30 -44.5t11 -53.5t-11 -53t-30 -43.5t-44 -29.5t-52 -11q-29 0 -54 11t-44.5 29.5t-30.5 43.5t-11 53zM764 1338 q0 28 11 53.5t30 44.5t44 30t54 11q28 0 52.5 -11t43.5 -30t30 -44.5t11 -53.5t-11 -53t-30 -43.5t-43.5 -29.5t-52.5 -11q-29 0 -54 11t-44 29.5t-30 43.5t-11 53z" />
<glyph unicode="&#x152;" horiz-adv-x="2167" d="M131 575q1 97 26 218t70 220t99 170.5t128 132.5t177 100.5t221 39.5q66 0 126 -13t109 -37.5t89.5 -60t72.5 -81.5l31 170h895l-37 -209h-700l-62 -355h565l-37 -208h-565l-79 -453h731l-17 -209h-946l27 156q-34 -42 -73 -75t-85.5 -56t-102 -35.5t-122.5 -12.5 q-147 0 -258.5 57t-180.5 160t-85.5 207t-16.5 174zM355 620q-2 -53 9 -130t52.5 -150t110.5 -114.5t159 -41.5q101 0 191 51.5t155.5 151.5t95.5 222t30 201q2 76 -10.5 145.5t-52 139t-110.5 112t-166 42.5q-97 0 -185.5 -52.5t-154.5 -156t-94 -223t-30 -197.5z" />
<glyph unicode="&#x153;" horiz-adv-x="1872" d="M90 451q0 136 46 264t128 214.5t174.5 127.5t190.5 41q125 0 217.5 -57t140.5 -158q36 53 78 92.5t95 69t108 41.5t104 12q97 0 169.5 -33t121.5 -91t73.5 -137.5t24.5 -172.5q0 -53 -7 -103.5t-19 -95.5h-682q-6 -70 9.5 -125t48.5 -93.5t81.5 -58.5t107.5 -20 q67 0 124.5 23.5t117.5 60.5l92 -148q-83 -63 -171 -95t-191 -32q-130 0 -219.5 55.5t-137.5 157.5q-72 -103 -174.5 -158t-218.5 -55q-102 0 -185.5 39t-140.5 109t-81.5 160.5t-24.5 165.5zM304 470q-1 -58 12.5 -110.5t42.5 -94t75.5 -64.5t108.5 -23q64 0 118.5 30.5 t97 87t67.5 139.5t25 179q0 51 -12.5 101t-42.5 92.5t-78 66t-108 23.5q-61 0 -116.5 -29.5t-98 -87.5t-67 -141t-24.5 -169zM1079 635h482q5 58 -5 108t-36 86.5t-68 57t-102 20.5q-54 0 -97.5 -20.5t-77.5 -56.5t-57.5 -86t-38.5 -109z" />
<glyph unicode="&#x178;" horiz-adv-x="1403" d="M244 1434h239l258 -651l488 651h250l-666 -869l-98 -565h-215l100 567zM534 1643q0 28 11 53.5t30.5 44.5t44.5 30t54 11q27 0 52 -11t44 -30t30 -44.5t11 -53.5t-11 -53t-30 -43.5t-44 -29.5t-52 -11q-29 0 -54 11t-44.5 29.5t-30.5 43.5t-11 53zM934 1643q0 28 11 53.5 t30 44.5t44 30t54 11q28 0 52.5 -11t43.5 -30t30 -44.5t11 -53.5t-11 -53t-30 -43.5t-43.5 -29.5t-52.5 -11q-29 0 -54 11t-44 29.5t-30 43.5t-11 53z" />
<glyph unicode="&#x2c6;" horiz-adv-x="1024" d="M268 1219l297 327h246l182 -327h-162l-163 180l-226 -180h-174z" />
<glyph unicode="&#x2dc;" horiz-adv-x="1024" d="M258 1219q14 76 37 126t52.5 83.5t68.5 51t86 17.5q48 0 93 -17.5t84 -39.5q41 -24 78 -43t66 -19q34 0 57 25t42 88h145q-16 -85 -37 -131t-50.5 -79t-68 -51t-88.5 -18q-52 0 -96.5 18t-83.5 41t-75 41.5t-64 18.5q-34 0 -58 -24.5t-43 -87.5h-145z" />
<glyph unicode="&#x2000;" horiz-adv-x="926" />
<glyph unicode="&#x2001;" horiz-adv-x="1853" />
<glyph unicode="&#x2002;" horiz-adv-x="926" />
<glyph unicode="&#x2003;" horiz-adv-x="1853" />
<glyph unicode="&#x2004;" horiz-adv-x="617" />
<glyph unicode="&#x2005;" horiz-adv-x="463" />
<glyph unicode="&#x2006;" horiz-adv-x="308" />
<glyph unicode="&#x2007;" horiz-adv-x="308" />
<glyph unicode="&#x2008;" horiz-adv-x="231" />
<glyph unicode="&#x2009;" horiz-adv-x="370" />
<glyph unicode="&#x200a;" horiz-adv-x="102" />
<glyph unicode="&#x2010;" horiz-adv-x="737" d="M131 645l37 209h512l-37 -209h-512z" />
<glyph unicode="&#x2011;" horiz-adv-x="737" d="M131 645l37 209h512l-37 -209h-512z" />
<glyph unicode="&#x2012;" horiz-adv-x="737" d="M131 645l37 209h512l-37 -209h-512z" />
<glyph unicode="&#x2013;" horiz-adv-x="942" d="M133 651l35 197h717l-35 -197h-717z" />
<glyph unicode="&#x2014;" d="M133 651l33 197h1044l-32 -197h-1045z" />
<glyph unicode="&#x2018;" horiz-adv-x="543" d="M180 920l248 514h141l-120 -514h-269z" />
<glyph unicode="&#x2019;" horiz-adv-x="543" d="M199 920l120 514h269l-248 -514h-141z" />
<glyph unicode="&#x201a;" horiz-adv-x="543" d="M0 -229l119 514h268l-246 -514h-141z" />
<glyph unicode="&#x201c;" horiz-adv-x="1024" d="M180 920l246 514h141l-118 -514h-269zM662 920l245 514h142l-119 -514h-268z" />
<glyph unicode="&#x201d;" horiz-adv-x="1024" d="M201 920l118 514h269l-246 -514h-141zM682 920l119 514h268l-246 -514h-141z" />
<glyph unicode="&#x201e;" horiz-adv-x="1024" d="M-4 -229l121 514h268l-248 -514h-141zM477 -229l121 514h268l-248 -514h-141z" />
<glyph unicode="&#x2022;" horiz-adv-x="952" d="M125 317v871l759 -436z" />
<glyph unicode="&#x2026;" horiz-adv-x="1561" d="M27 139q0 33 13 62.5t34.5 52t51 36t62.5 13.5t62.5 -13.5t51.5 -36t35 -52t13 -62.5t-13 -62.5t-35 -51.5t-51.5 -35t-62.5 -13t-62.5 13t-51 35t-34.5 51.5t-13 62.5zM547 139q0 33 13 62.5t35 52t51.5 36t62.5 13.5t62.5 -13.5t51 -36t34.5 -52t13 -62.5t-13 -62.5 t-34.5 -51.5t-51 -35t-62.5 -13t-62.5 13t-51.5 35t-35 51.5t-13 62.5zM1067 139q0 33 13 62.5t35 52t51.5 36t62.5 13.5t62.5 -13.5t51.5 -36t35 -52t13 -62.5t-13 -62.5t-35 -51.5t-51.5 -35t-62.5 -13t-62.5 13t-51.5 35t-35 51.5t-13 62.5z" />
<glyph unicode="&#x202f;" horiz-adv-x="370" />
<glyph unicode="&#x2039;" horiz-adv-x="750" d="M61 537l474 538h227l-463 -536l274 -539h-227z" />
<glyph unicode="&#x203a;" horiz-adv-x="750" d="M-12 0l463 537l-275 538h227l285 -536l-473 -539h-227z" />
<glyph unicode="&#x205f;" horiz-adv-x="463" />
<glyph unicode="&#x20ac;" d="M28 498l27 147h127q7 72 20 154h-121l27 145h131q37 117 93.5 211.5t131.5 161t166.5 103t198.5 36.5q82 0 144.5 -18t110 -53t81.5 -86.5t59 -118.5l-192 -82q-18 49 -38.5 82.5t-47 53.5t-60.5 29t-80 9q-57 0 -108.5 -23.5t-96 -66t-80.5 -103t-63 -135.5h443 l-27 -145h-455q-15 -71 -22 -154h450l-26 -147h-430v-9q0 -100 19.5 -163.5t52.5 -100t76 -50t89 -13.5q86 0 155 43.5t142 140.5l160 -108q-86 -123 -203 -192t-272 -69q-186 0 -294.5 106t-132.5 300q-2 14 -4 32q-3 30 -3 83h-148z" />
<glyph unicode="&#x2122;" horiz-adv-x="1577" d="M174 1298l23 136h596l-23 -136h-229l-119 -671h-137l118 671h-229zM784 627l142 807h137l134 -519l312 519h140l-142 -807h-131l88 512l-325 -537l-135 533l-89 -508h-131z" />
<glyph unicode="&#x25fc;" horiz-adv-x="1075" d="M0 0v1075h1075v-1075h-1075z" />
</font>
</defs>
</svg>
